<?xml version="1.0" encoding="UTF-8"?>
<svg width="28px" height="48px" viewBox="0 0 28 48" version="1.1" xmlns="http://www.w3.org/2000/svg" xmlns:xlink="http://www.w3.org/1999/xlink">
    <title>14C439D1-E6EE-4812-87F2-46C49E3ADF1D</title>
    <g id="Page-1" stroke="none" stroke-width="1" fill="none" fill-rule="evenodd">
        <g id="Capture-d’écran-2023-11-22-à-16.31.05" transform="translate(-786, -583)">
            <g id="Group-3" transform="translate(375, 288)">
                <g id="Group-4" transform="translate(411.0576, 295.3294)">
                    <g id="Group-33" transform="translate(13.9081, 23.732) rotate(89) translate(-13.9081, -23.732)translate(-9.5919, 10.232)">
                        <rect id="Rectangle-Copy" fill="#FFFFFF" x="0" y="0" width="47" height="27" rx="13.5"></rect>
                        <g id="Arrow" transform="translate(13, 8)" fill="#000000" fill-rule="nonzero">
                            <path d="M21.747155,5.14926633 L21.747155,5.14926633 L16.7718506,0.173919192 C16.5931273,-0.0347765329 16.2790362,-0.059105127 16.0703405,0.119660869 C15.8616447,0.298384109 15.8373162,0.612475237 16.0160822,0.821170963 C16.0327573,0.840625287 16.0508862,0.858796908 16.0703405,0.875429286 L20.1948709,5.00496228 L0.497517611,5.00496228 C0.222762698,5.00496228 0,5.22772498 0,5.50252265 C0,5.77732032 0.222762698,6.00004026 0.497517611,6.00004026 L20.1948709,6.00004026 L16.0703405,10.1245707 C15.8616447,10.303294 15.8373162,10.6173851 16.0160822,10.8260808 C16.1948481,11.0347765 16.5088965,11.0591051 16.7175922,10.8803391 C16.7370466,10.863664 16.7552182,10.8455351 16.7718506,10.8260808 L21.7471977,5.85073367 C21.9400734,5.65674627 21.9400734,5.34333925 21.747155,5.14926633 Z" id="Path"></path>
                        </g>
                    </g>
                </g>
            </g>
        </g>
    </g>
</svg>