<?xml version="1.0" encoding="UTF-8"?>
<svg width="26px" height="26px" viewBox="0 0 26 26" version="1.1" xmlns="http://www.w3.org/2000/svg" xmlns:xlink="http://www.w3.org/1999/xlink">
    <title>DD7DBDB6-6E52-46DC-AF78-2E04DBF7FAE1</title>
    <g id="Page-1" stroke="none" stroke-width="1" fill="none" fill-rule="evenodd">
        <g id="MOBILE" transform="translate(-364, -31)" fill="#000000" fill-rule="nonzero">
            <g id="messenger" transform="translate(364, 31)">
                <path d="M14.6245426,12.9992632 C14.6245426,13.896314 13.8965133,14.6243553 12.9994772,14.6243553 C12.1024412,14.6243553 11.3744119,13.896314 11.3744119,12.9992632 C11.3744119,12.1022123 12.1024412,11.3741711 12.9994772,11.3741711 C13.8965133,11.3741711 14.6245426,12.1022123 14.6245426,12.9992632 Z M18.4163617,11.3741711 C17.5193257,11.3741711 16.7912964,12.1022123 16.7912964,12.9992632 C16.7912964,13.896314 17.5193257,14.6243553 18.4163617,14.6243553 C19.3133978,14.6243553 20.0414271,13.896314 20.0414271,12.9992632 C20.0414271,12.1022123 19.3133978,11.3741711 18.4163617,11.3741711 Z M7.58259277,11.3741711 C6.6855567,11.3741711 5.95752743,12.1022123 5.95752743,12.9992632 C5.95752743,13.896314 6.6855567,14.6243553 7.58259277,14.6243553 C8.47962884,14.6243553 9.20765811,13.896314 9.20765811,12.9992632 C9.20765811,12.1022123 8.47962884,11.3741711 7.58259277,11.3741711 Z M26,13.3676174 L26,20.5830263 C26,23.5699456 23.5699856,26 20.5831155,26 L14.1727744,26 C6.58805278,26 0.508141639,20.8083724 0.0314558051,13.9244823 C-0.229638027,10.1586022 1.14408388,6.47289328 3.80052403,3.81315921 C6.45696417,1.15342513 10.1426124,-0.224652972 13.9051803,0.0299447904 C20.6871197,0.490387553 26,6.34938628 26,13.3687008 L26,13.3676174 Z M23.8332462,13.3676174 C23.8332462,7.48370057 19.408735,2.57483902 13.7589245,2.19131729 C13.5108311,2.17398297 13.2627378,2.16639921 13.0157279,2.16639921 C10.1382789,2.16639921 7.37241765,3.30179689 5.33350233,5.34399597 C3.11907996,7.5606216 1.97395058,10.6342125 2.19279271,13.7749738 C2.59689229,19.6036375 7.63567824,23.8342939 14.1738578,23.8342939 L20.5841989,23.8342939 C22.3761043,23.8342939 23.8343296,22.3760446 23.8343296,20.5841097 L23.8343296,13.3687008 L23.8332462,13.3676174 Z" id="Shape"></path>
            </g>
        </g>
    </g>
</svg>