<?xml version="1.0" encoding="UTF-8"?>
<svg width="63px" height="50px" viewBox="0 0 63 50" version="1.1" xmlns="http://www.w3.org/2000/svg" xmlns:xlink="http://www.w3.org/1999/xlink">
    <title>E2398E79-EC9A-439E-986E-6E75A3586B14</title>
    <defs>
        <linearGradient x1="50%" y1="0%" x2="50%" y2="100%" id="linearGradient-1">
            <stop stop-color="#EA9C34" offset="0%"></stop>
            <stop stop-color="#892929" offset="100%"></stop>
        </linearGradient>
    </defs>
    <g id="Page-1" stroke="none" stroke-width="1" fill="none" fill-rule="evenodd">
        <g id="OCTOBRE-New-version" transform="translate(-920, -882)" fill="url(#linearGradient-1)" fill-rule="nonzero">
            <g id="Group-8" transform="translate(200, 661)">
                <g id="Group" transform="translate(0, 153)">
                    <g id="cloud-upload-alt" transform="translate(720, 68)">
                        <path d="M32.972625,16.902375 L41.61675,25.5465 L39.760875,27.402375 L31.502625,19.144125 L31.502625,39.375 L28.877625,39.375 L28.877625,19.144125 L20.619375,27.402375 L18.7635,25.5465 L27.407625,16.902375 C28.94325,15.369375 31.439625,15.369375 32.97525,16.902375 L32.972625,16.902375 Z M63,31.5 C63,41.629875 54.754875,49.875 44.625,49.875 L12.46875,49.875 C5.593875,49.875 0,44.281125 0,37.40625 C0,33.135375 2.170875,29.203125 5.725125,26.91675 C5.410125,25.41 5.25,23.863875 5.25,22.3125 C5.25,10.009125 15.259125,0 27.5625,0 C36.542625,0 44.501625,5.252625 48.045375,13.442625 C56.623875,15.059625 63,22.6905 63,31.5 Z M60.375,31.5 C60.375,23.732625 54.5895,17.033625 46.91925,15.915375 L46.165875,15.805125 L45.89025,15.096375 C42.900375,7.518 35.707875,2.622375 27.565125,2.622375 C16.708125,2.622375 7.877625,11.452875 7.877625,22.309875 C7.877625,23.97675 8.085,25.6305 8.497125,27.229125 L8.754375,28.226625 L7.846125,28.714875 C4.627875,30.431625 2.63025,33.765375 2.63025,37.40625 C2.63025,42.832125 7.0455,47.25 12.474,47.25 L44.63025,47.25 C53.316375,47.25 60.38025,40.186125 60.38025,31.5 L60.375,31.5 Z" id="Shape"></path>
                    </g>
                </g>
            </g>
        </g>
    </g>
</svg>