<?xml version="1.0" encoding="UTF-8"?>
<svg width="64px" height="58px" viewBox="0 0 64 58" version="1.1" xmlns="http://www.w3.org/2000/svg" xmlns:xlink="http://www.w3.org/1999/xlink">
    <title>8650A8A3-D5C0-483B-8703-DB808C52AB52</title>
    <defs>
        <linearGradient x1="50%" y1="0%" x2="50%" y2="100%" id="linearGradient-1">
            <stop stop-color="#EA9C34" offset="0%"></stop>
            <stop stop-color="#892929" offset="100%"></stop>
        </linearGradient>
    </defs>
    <g id="Page-1" stroke="none" stroke-width="1" fill="none" fill-rule="evenodd">
        <g id="OCTOBRE-New-version" transform="translate(-313, -882)" fill="url(#linearGradient-1)" fill-rule="nonzero">
            <g id="Group-8" transform="translate(200, 661)">
                <g id="Group" transform="translate(0, 153)">
                    <g id="display-code" transform="translate(113, 68)">
                        <path d="M63.4947368,47.4545455 L63.4947368,6.59090909 C63.4947368,2.95536364 60.5263579,0 56.8807018,0 L6.61403509,0 C2.96837895,0 0,2.95536364 0,6.59090909 L0,47.4545455 L30.4245614,47.4545455 L30.4245614,55.3636364 L15.8736842,55.3636364 L15.8736842,58 L47.6210526,58 L47.6210526,55.3636364 L33.0701754,55.3636364 L33.0701754,47.4545455 L63.4947368,47.4545455 Z M2.64561404,6.59090909 C2.64561404,4.41063636 4.42611228,2.63636364 6.61403509,2.63636364 L56.8807018,2.63636364 C59.0686246,2.63636364 60.8491228,4.41063636 60.8491228,6.59090909 L60.8491228,44.8181818 L2.64561404,44.8181818 L2.64561404,6.59090909 Z M16.2599439,22.794 C15.7440491,23.3080909 15.7440491,24.1438182 16.2599439,24.6579091 L26.1809965,34.5442727 L24.3105474,36.4081818 L14.3894947,26.5218182 C12.8418105,24.9795455 12.8418105,22.4723636 14.3894947,20.9300909 L24.3105474,11.0437273 L26.1809965,12.9076364 L16.2599439,22.794 Z M49.1025965,20.9300909 C50.6502807,22.4723636 50.6502807,24.9795455 49.1025965,26.5218182 L39.1815439,36.4081818 L37.3110947,34.5442727 L47.2321474,24.6579091 C47.7480421,24.1438182 47.7480421,23.3080909 47.2321474,22.794 L37.3110947,12.9076364 L39.1815439,11.0437273 L49.1025965,20.9300909 Z" id="Shape"></path>
                    </g>
                </g>
            </g>
        </g>
    </g>
</svg>