<?xml version="1.0" encoding="UTF-8"?>
<svg width="63px" height="56px" viewBox="0 0 63 56" version="1.1" xmlns="http://www.w3.org/2000/svg" xmlns:xlink="http://www.w3.org/1999/xlink">
    <title>EAA28398-6A1C-45AA-9803-D6899F01354D</title>
    <defs>
        <linearGradient x1="50%" y1="0%" x2="50%" y2="100%" id="linearGradient-1">
            <stop stop-color="#EA9C34" offset="0%"></stop>
            <stop stop-color="#892929" offset="100%"></stop>
        </linearGradient>
    </defs>
    <g id="Page-1" stroke="none" stroke-width="1" fill="none" fill-rule="evenodd">
        <g id="OCTOBRE-New-version" transform="translate(-1224, -880)" fill="url(#linearGradient-1)" fill-rule="nonzero">
            <g id="Group-8" transform="translate(200, 661)">
                <g id="Group" transform="translate(0, 153)">
                    <g id="envelopes" transform="translate(1024, 66)">
                        <path d="M51.1875,0 L19.6875,0 C13.15125,0 7.875,5.27625 7.875,11.8125 L7.875,35.4375 C7.875,41.97375 13.15125,47.25 19.6875,47.25 L51.1875,47.25 C57.72375,47.25 63,41.97375 63,35.4375 L63,11.8125 C63,5.27625 57.72375,0 51.1875,0 Z M51.1875,2.625 C53.68125,2.625 55.965,3.6225 57.61875,5.25 L41.9475,20.92125 C38.35125,24.5175 32.55,24.5175 28.95375,20.92125 L13.25625,5.25 C14.91,3.6225 17.19375,2.625 19.6875,2.625 L51.1875,2.625 Z M60.375,35.4375 C60.375,40.50375 56.25375,44.625 51.1875,44.625 L19.6875,44.625 C14.62125,44.625 10.5,40.50375 10.5,35.4375 L10.5,11.8125 C10.5,10.185 10.92,8.68875 11.655,7.35 L27.09,22.785 C29.4,25.095 32.41875,26.25 35.4375,26.25 C38.45625,26.25 41.475,25.095 43.785,22.785 L59.22,7.35 C59.955,8.6625 60.375,10.185 60.375,11.8125 L60.375,35.4375 Z M47.25,53.8125 C47.25,54.5475 46.6725,55.125 45.9375,55.125 L11.8125,55.125 C5.3025,55.125 0,49.8225 0,43.3125 L0,14.4375 C0,13.7025 0.5775,13.125 1.3125,13.125 C2.0475,13.125 2.625,13.7025 2.625,14.4375 L2.625,43.3125 C2.625,48.37875 6.74625,52.5 11.8125,52.5 L45.9375,52.5 C46.6725,52.5 47.25,53.0775 47.25,53.8125 Z" id="Shape"></path>
                    </g>
                </g>
            </g>
        </g>
    </g>
</svg>