<?xml version="1.0" encoding="UTF-8" standalone="no"?>
<svg
   data-name="Layer 1"
   x="0px"
   y="0px"
   preserveAspectRatio="xMinYMax"
   version="1.1"
   id="svg4"
   sodipodi:docname="IconProjet2.svg"
   width="63.872002"
   height="56.570999"
   inkscape:version="1.3 (0e150ed, 2023-07-21)"
   inkscape:export-filename="IconProjet.svg"
   inkscape:export-xdpi="96"
   inkscape:export-ydpi="96"
   xmlns:inkscape="http://www.inkscape.org/namespaces/inkscape"
   xmlns:sodipodi="http://sodipodi.sourceforge.net/DTD/sodipodi-0.dtd"
   xmlns:xlink="http://www.w3.org/1999/xlink"
   xmlns="http://www.w3.org/2000/svg"
   xmlns:svg="http://www.w3.org/2000/svg">
  <sodipodi:namedview
     id="namedview4"
     pagecolor="#ffffff"
     bordercolor="#000000"
     borderopacity="0.25"
     inkscape:showpageshadow="2"
     inkscape:pageopacity="0.0"
     inkscape:pagecheckerboard="0"
     inkscape:deskcolor="#d1d1d1"
     inkscape:zoom="1.8897405"
     inkscape:cx="34.92543"
     inkscape:cy="25.400313"
     inkscape:window-width="1312"
     inkscape:window-height="449"
     inkscape:window-x="0"
     inkscape:window-y="25"
     inkscape:window-maximized="0"
     inkscape:current-layer="svg4"
     showguides="false" />
  <defs
     id="defs2">
    <linearGradient
       x1="0.5"
       y1="0"
       x2="0.5"
       y2="1"
       id="linearGradient-1">
      <stop
         stop-color="#EA9C34"
         offset="0%"
         id="stop1" />
      <stop
         stop-color="#892929"
         offset="100%"
         id="stop2" />
    </linearGradient>
    <linearGradient
       inkscape:collect="always"
       xlink:href="#linearGradient-1"
       id="linearGradient4"
       x1="28.754087"
       y1="12.032707"
       x2="28.754087"
       y2="62.35236"
       gradientTransform="matrix(1.1128853,0,0,0.89856521,0,1.7535095)"
       gradientUnits="userSpaceOnUse" />
    <linearGradient
       inkscape:collect="always"
       xlink:href="#linearGradient-1"
       id="linearGradient5"
       x1="27.385878"
       y1="16.53681"
       x2="27.385878"
       y2="21.757015"
       gradientTransform="matrix(0.99513044,0,0,1.0048934,0,1.7535095)"
       gradientUnits="userSpaceOnUse" />
    <linearGradient
       inkscape:collect="always"
       xlink:href="#linearGradient-1"
       id="linearGradient6"
       x1="35.93504"
       y1="6.0460649"
       x2="35.93504"
       y2="36.799576"
       gradientTransform="matrix(0.75837545,0,0,1.3186081,0,1.7535095)"
       gradientUnits="userSpaceOnUse" />
    <linearGradient
       inkscape:collect="always"
       xlink:href="#linearGradient-1"
       id="linearGradient7"
       x1="29.643295"
       y1="8.6062117"
       x2="29.643295"
       y2="60.481979"
       gradientTransform="scale(1.0795021,0.92635297)"
       gradientUnits="userSpaceOnUse" />
  </defs>
  <g
     fill="url(#linearGradient-1)"
     fill-rule="nonzero"
     style="fill:url(#linearGradient7)"
     id="g26"
     transform="matrix(0.11326852,0,0,0.11326852,1.8011627,-0.56883132)">
    <path
       d="m 412.76,465.178 c -1.076,0 -2.127,-0.435 -2.893,-1.235 l -18.145,-18.982 c -7.201,0.67 -14.604,0.334 -22.068,-0.998 l -13.258,16.87 c -1.064,1.354 -2.873,1.876 -4.496,1.294 -9.387,-3.367 -18.617,-8.014 -27.432,-13.81 -0.971,-0.639 -1.617,-1.667 -1.77,-2.819 l -3.506,-26.574 c -6.809,-5.88 -13.092,-12.578 -18.719,-19.949 l -22.115,-1.373 c -1.326,-0.082 -2.525,-0.817 -3.199,-1.962 -2.857,-4.85 -5.51,-9.891 -7.885,-14.981 -2.379,-5.104 -4.535,-10.378 -6.41,-15.675 -0.443,-1.252 -0.236,-2.643 0.553,-3.711 l 4.416,-5.98 c 1.313,-1.777 3.816,-2.155 5.594,-0.842 1.777,1.312 2.154,3.816 0.842,5.594 l -3.145,4.259 c 1.615,4.386 3.43,8.741 5.402,12.975 1.969,4.223 4.139,8.409 6.463,12.472 l 21.82,1.355 c 1.178,0.073 2.262,0.662 2.965,1.608 5.859,7.896 12.506,14.997 19.76,21.105 0.762,0.643 1.258,1.547 1.389,2.536 l 3.465,26.267 c 6.971,4.446 14.193,8.127 21.523,10.972 l 12.959,-16.49 c 0.938,-1.193 2.471,-1.752 3.957,-1.445 8.143,1.688 16.203,2.072 23.953,1.147 1.252,-0.15 2.496,0.299 3.367,1.208 l 17.797,18.618 c 3.221,-1.041 6.363,-2.273 9.369,-3.675 3.002,-1.401 5.963,-3.015 8.83,-4.813 l -2.82,-25.602 c -0.139,-1.25 0.32,-2.493 1.238,-3.354 5.684,-5.335 10.568,-11.757 14.518,-19.088 0.721,-1.336 2.117,-2.156 3.65,-2.102 l 20.957,0.675 c 2.539,-7.458 4.361,-15.354 5.432,-23.539 l -17.893,-19.54 c -0.674,-0.736 -1.049,-1.697 -1.051,-2.695 -0.014,-9.48 -1.18,-19.138 -3.465,-28.702 -0.273,-1.147 -0.027,-2.357 0.674,-3.306 l 7.961,-10.78 c 1.313,-1.778 3.818,-2.152 5.594,-0.842 1.777,1.313 2.154,3.817 0.842,5.595 l -6.867,9.297 c 2.033,9.049 3.125,18.171 3.25,27.164 l 18.102,19.769 c 0.783,0.856 1.156,2.011 1.021,3.164 -1.219,10.459 -3.592,20.517 -7.055,29.894 -0.596,1.615 -2.143,2.668 -3.881,2.612 l -21.441,-0.69 c -3.783,6.58 -8.285,12.467 -13.42,17.548 l 2.877,26.101 c 0.164,1.484 -0.514,2.936 -1.754,3.765 -3.826,2.555 -7.836,4.816 -11.918,6.721 -4.088,1.906 -8.4,3.525 -12.816,4.813 -0.368,0.104 -0.745,0.156 -1.118,0.156 z m -34.069,-57.597 c -25.588,10e-4 -52.412,-18.347 -66.234,-47.992 -1.613,-3.46 -3.027,-7.028 -4.203,-10.607 -0.689,-2.099 0.453,-4.358 2.551,-5.049 2.098,-0.691 4.359,0.453 5.049,2.552 1.078,3.279 2.375,6.551 3.854,9.725 12.469,26.741 36.361,43.399 58.867,43.4 6.205,10e-4 12.303,-1.266 18.029,-3.936 23.195,-10.816 33.131,-41.393 23.623,-72.702 -0.643,-2.113 0.551,-4.348 2.664,-4.989 2.109,-0.639 4.348,0.552 4.99,2.665 10.676,35.157 -1.057,69.761 -27.896,82.277 -6.776,3.158 -13.985,4.656 -21.294,4.656 z"
       id="path1" />
    <path
       d="m 407.381,397.659 c -0.779,0 -1.559,-0.227 -2.236,-0.683 -1.445,-0.975 -2.094,-2.773 -1.602,-4.446 4.883,-16.606 2.943,-36.297 -5.32,-54.021 -1.342,-2.876 -2.846,-5.694 -4.469,-8.376 -1.143,-1.891 -0.539,-4.35 1.352,-5.493 1.889,-1.146 4.35,-0.539 5.492,1.351 1.773,2.928 3.412,6.002 4.875,9.138 6.877,14.749 9.746,30.808 8.371,45.749 10.209,-14.826 12.877,-36.51 6.385,-57.901 -0.643,-2.114 0.551,-4.348 2.664,-4.989 2.123,-0.641 4.35,0.553 4.99,2.665 9.049,29.806 1.809,60.404 -18.016,76.14 -0.726,0.575 -1.605,0.866 -2.486,0.866 z"
       id="path2" />
    <path
       d="m 454.912,433.868 c -0.043,0 -0.086,-10e-4 -0.129,-0.002 l -20.83,-0.671 c -1.988,-0.064 -3.629,-1.581 -3.846,-3.56 l -0.783,-7.094 c -0.139,-1.251 0.32,-2.494 1.238,-3.355 5.684,-5.335 10.568,-11.757 14.518,-19.088 0.721,-1.336 2.152,-2.156 3.65,-2.102 l 23.879,0.769 c 1.441,0.046 2.746,0.866 3.416,2.145 0.668,1.278 0.596,2.818 -0.189,4.029 l -17.566,27.104 c -0.739,1.141 -2.004,1.825 -3.358,1.825 z m -17.234,-8.557 15.107,0.486 12.484,-19.264 -14.359,-0.462 c -3.783,6.58 -8.285,12.467 -13.42,17.547 z"
       id="path3" />
    <path
       d="m 395.188,492.284 c -1.076,0 -2.125,-0.436 -2.891,-1.236 l -18.143,-18.983 c -7.207,0.669 -14.607,0.334 -22.07,-0.998 l -13.256,16.871 c -1.064,1.354 -2.873,1.876 -4.496,1.294 -9.393,-3.37 -18.623,-8.018 -27.432,-13.813 -0.971,-0.638 -1.615,-1.666 -1.768,-2.817 l -3.51,-26.574 c -6.813,-5.885 -13.096,-12.583 -18.715,-19.949 l -22.119,-1.373 c -1.326,-0.082 -2.523,-0.818 -3.199,-1.963 -2.865,-4.866 -5.518,-9.907 -7.883,-14.982 -2.381,-5.103 -4.537,-10.377 -6.41,-15.675 -0.414,-1.171 -0.262,-2.467 0.414,-3.509 l 12.908,-19.913 c -0.566,-2.694 -1.055,-5.417 -1.455,-8.114 -0.324,-2.186 1.186,-4.22 3.371,-4.544 2.094,-0.311 4.041,1.057 4.49,3.088 l 2.809,-3.802 c 1.313,-1.778 3.816,-2.152 5.594,-0.842 1.777,1.313 2.154,3.817 0.842,5.594 l -3.145,4.259 c 1.615,4.386 3.43,8.741 5.402,12.975 1.969,4.223 4.139,8.409 6.463,12.472 l 21.82,1.355 c 1.178,0.073 2.262,0.662 2.965,1.608 5.859,7.896 12.506,14.997 19.76,21.105 0.762,0.643 1.258,1.547 1.389,2.536 l 3.465,26.267 c 6.971,4.446 14.193,8.127 21.523,10.972 l 12.959,-16.49 c 0.938,-1.193 2.471,-1.752 3.957,-1.445 8.143,1.688 16.203,2.072 23.953,1.147 1.252,-0.15 2.496,0.299 3.367,1.208 l 17.797,18.618 c 3.221,-1.041 6.363,-2.273 9.369,-3.675 3.713,-1.733 7.367,-3.793 10.855,-6.123 1.58,-1.055 3.68,-0.854 5.029,0.479 1.352,1.332 1.58,3.431 0.549,5.022 l -17.568,27.106 c -0.295,0.457 -0.682,0.85 -1.137,1.152 -3.834,2.558 -7.844,4.818 -11.918,6.72 -4.09,1.905 -8.4,3.524 -12.816,4.813 -0.368,0.106 -0.744,0.159 -1.119,0.159 z m -19.5,-28.404 c 1.086,0 2.133,0.442 2.893,1.236 l 17.793,18.619 c 3.221,-1.041 6.365,-2.273 9.371,-3.675 3.467,-1.617 6.887,-3.524 10.178,-5.674 l 8.541,-13.179 c -3.414,1.477 -6.963,2.755 -10.584,3.811 -1.432,0.417 -2.98,0.002 -4.012,-1.076 L 391.723,444.96 c -7.201,0.67 -14.604,0.334 -22.068,-0.998 l -13.258,16.87 c -1.064,1.354 -2.873,1.876 -4.496,1.294 -9.387,-3.367 -18.617,-8.014 -27.432,-13.81 -0.971,-0.639 -1.617,-1.667 -1.77,-2.819 l -3.506,-26.574 c -6.809,-5.88 -13.092,-12.578 -18.719,-19.949 l -22.115,-1.373 c -1.326,-0.082 -2.525,-0.817 -3.199,-1.962 -2.857,-4.85 -5.51,-9.891 -7.885,-14.981 -1.256,-2.697 -2.451,-5.441 -3.576,-8.212 l -12.195,18.817 c 1.627,4.434 3.459,8.838 5.455,13.117 1.963,4.212 4.133,8.398 6.463,12.474 l 21.822,1.354 c 1.176,0.073 2.262,0.662 2.965,1.609 5.852,7.89 12.498,14.99 19.756,21.105 0.762,0.643 1.258,1.547 1.389,2.535 l 3.469,26.267 c 6.967,4.445 14.186,8.126 21.521,10.972 l 12.957,-16.49 c 0.939,-1.193 2.471,-1.754 3.959,-1.445 8.135,1.688 16.193,2.073 23.955,1.147 0.158,-0.018 0.316,-0.028 0.473,-0.028 z"
       id="path4" />
    <path
       d="m 126.48,482.591 c -1.076,0 -2.127,-0.436 -2.893,-1.236 l -11.725,-12.266 c -4.488,0.361 -9.088,0.16 -13.725,-0.604 l -8.4,10.689 c -1.063,1.354 -2.873,1.876 -4.496,1.293 -6.391,-2.293 -12.672,-5.454 -18.664,-9.395 -0.971,-0.639 -1.617,-1.667 -1.77,-2.819 l -2.285,-17.316 c -4.336,-3.79 -8.357,-8.071 -11.982,-12.76 l -14.227,-0.883 c -1.326,-0.082 -2.525,-0.818 -3.199,-1.964 -1.936,-3.289 -3.732,-6.705 -5.342,-10.151 -1.611,-3.461 -3.072,-7.034 -4.346,-10.623 -0.443,-1.253 -0.236,-2.644 0.553,-3.713 l 8.469,-11.464 c -1.26,-5.785 -1.955,-11.617 -2.072,-17.382 L 18.58,369.115 c -0.785,-0.857 -1.158,-2.014 -1.021,-3.168 0.836,-7.13 2.451,-13.974 4.797,-20.339 0.596,-1.616 2.178,-2.674 3.883,-2.614 l 13.59,0.439 c 2.395,-4.045 5.195,-7.699 8.357,-10.904 l -1.859,-16.863 c -0.164,-1.482 0.512,-2.933 1.75,-3.762 2.607,-1.745 5.355,-3.296 8.172,-4.608 2.814,-1.312 5.768,-2.42 8.777,-3.295 1.43,-0.416 2.975,-0.003 4.008,1.076 l 11.727,12.264 c 4.682,-0.374 9.492,-0.136 14.33,0.711 2.176,0.382 3.631,2.455 3.25,4.631 -0.381,2.176 -2.465,3.628 -4.631,3.249 -4.768,-0.836 -9.482,-0.986 -14.021,-0.445 -1.248,0.147 -2.496,-0.3 -3.365,-1.208 L 64.972,312.405 c -1.826,0.62 -3.615,1.338 -5.344,2.143 -1.727,0.806 -3.428,1.715 -5.076,2.715 l 1.799,16.329 c 0.139,1.251 -0.32,2.493 -1.236,3.354 -3.709,3.48 -6.896,7.673 -9.475,12.461 -0.719,1.338 -2.18,2.157 -3.65,2.102 l -13.066,-0.422 c -1.447,4.448 -2.516,9.138 -3.188,13.994 l 11.576,12.642 c 0.672,0.735 1.047,1.696 1.049,2.693 0.014,6.26 0.783,12.63 2.289,18.935 0.273,1.146 0.027,2.356 -0.674,3.306 l -8.281,11.212 c 1.008,2.681 2.125,5.341 3.33,7.932 1.205,2.58 2.523,5.144 3.932,7.644 l 13.912,0.864 c 1.178,0.072 2.262,0.661 2.965,1.608 3.867,5.211 8.252,9.896 13.035,13.923 0.762,0.643 1.258,1.547 1.389,2.536 L 72.5,465.37 c 4.148,2.604 8.426,4.799 12.768,6.549 l 8.08,-10.279 c 0.938,-1.192 2.467,-1.75 3.955,-1.445 5.32,1.103 10.58,1.356 15.633,0.751 1.252,-0.15 2.496,0.299 3.365,1.208 l 11.354,11.876 c 1.836,-0.624 3.625,-1.342 5.344,-2.144 1.719,-0.802 3.418,-1.712 5.074,-2.716 l -1.799,-16.33 c -0.137,-1.25 0.32,-2.493 1.238,-3.354 3.707,-3.479 6.895,-7.67 9.473,-12.458 0.721,-1.336 2.141,-2.145 3.65,-2.101 l 13.064,0.42 c 1.453,-4.459 2.523,-9.147 3.189,-13.99 l -11.576,-12.643 c -0.674,-0.736 -1.047,-1.697 -1.049,-2.695 -0.01,-6.248 -0.779,-12.618 -2.285,-18.935 -0.273,-1.147 -0.027,-2.356 0.672,-3.305 l 2.076,-2.81 c 1.313,-1.778 3.816,-2.153 5.594,-0.841 1.778,1.312 2.154,3.816 0.842,5.594 l -0.986,1.333 c 1.262,5.795 1.957,11.627 2.07,17.384 l 11.795,12.881 c 0.783,0.856 1.156,2.011 1.023,3.163 -0.828,7.11 -2.443,13.954 -4.801,20.342 -0.596,1.615 -2.156,2.666 -3.881,2.612 l -13.586,-0.438 c -2.396,4.045 -5.197,7.698 -8.357,10.902 l 1.857,16.866 c 0.164,1.483 -0.512,2.936 -1.754,3.765 -2.621,1.75 -5.369,3.299 -8.162,4.603 -2.795,1.304 -5.748,2.413 -8.779,3.297 -0.371,0.106 -0.747,0.159 -1.121,0.159 z m -22.818,-38.61 c -17.656,0.001 -36.117,-12.576 -45.605,-32.925 -5.848,-12.537 -7.48,-26.168 -4.602,-38.381 2.961,-12.561 10.311,-22.144 20.695,-26.986 10.965,-5.113 24.133,-4.148 36.123,2.646 1.922,1.089 2.598,3.53 1.51,5.452 -1.09,1.922 -3.531,2.598 -5.453,1.508 -9.711,-5.502 -20.207,-6.361 -28.799,-2.355 -8.117,3.786 -13.902,11.446 -16.289,21.572 -2.469,10.471 -1.025,22.249 4.064,33.164 10.355,22.208 32.691,33.787 49.787,25.814 14.262,-6.65 20.777,-24.979 15.846,-44.568 -0.539,-2.142 0.76,-4.316 2.902,-4.855 2.148,-0.537 4.316,0.761 4.855,2.902 5.881,23.364 -2.434,45.476 -20.223,53.772 -4.711,2.198 -9.729,3.239 -14.811,3.24 z"
       id="path5" />
    <path
       d="m 42.119,351.51 c -0.045,0 -0.088,0 -0.131,-0.002 l -2.043,-0.066 c -1.988,-0.064 -3.627,-1.581 -3.846,-3.56 L 34.55,333.834 c -0.102,-0.917 0.117,-1.84 0.619,-2.614 l 11.775,-18.168 c 0.92,-1.418 2.633,-2.107 4.279,-1.716 1.646,0.39 2.869,1.772 3.053,3.454 l 2.072,18.801 c 0.139,1.251 -0.32,2.493 -1.236,3.354 -3.709,3.48 -6.896,7.673 -9.475,12.461 -0.698,1.299 -2.051,2.104 -3.518,2.104 z m 0.539,-17.135 0.453,4.1 c 1.566,-2.122 3.262,-4.107 5.074,-5.945 l -0.629,-5.71 z"
       id="path6" />
    <path
       d="m 122.875,437.335 c -0.779,0 -1.559,-0.226 -2.236,-0.683 -1.445,-0.975 -2.094,-2.773 -1.602,-4.446 3.184,-10.826 1.91,-23.685 -3.496,-35.277 -10.357,-22.21 -32.693,-33.794 -49.785,-25.822 -1.854,0.865 -3.637,1.973 -5.297,3.292 -1.367,1.084 -3.277,1.157 -4.723,0.185 -1.447,-0.975 -2.094,-2.773 -1.604,-4.446 3.324,-11.295 10.432,-19.978 20.018,-24.447 10.965,-5.113 24.133,-4.148 36.123,2.646 1.922,1.089 2.598,3.53 1.51,5.452 -1.09,1.922 -3.531,2.598 -5.453,1.508 -9.711,-5.502 -20.207,-6.361 -28.799,-2.355 -4.332,2.021 -8.029,5.19 -10.891,9.264 20.354,-6.362 44.74,6.874 56.15,31.345 3.893,8.345 5.908,17.309 5.957,25.954 4.076,-8.535 4.992,-19.456 2.191,-30.581 -0.539,-2.143 0.762,-4.316 2.902,-4.855 2.148,-0.54 4.316,0.76 4.855,2.903 4.959,19.703 -0.275,39.133 -13.336,49.499 -0.724,0.573 -1.603,0.864 -2.484,0.864 z"
       id="path7" />
    <path
       d="m 154.732,461.604 c -0.043,0 -0.086,0 -0.129,-0.002 l -13.959,-0.449 c -1.99,-0.064 -3.629,-1.581 -3.848,-3.559 l -0.525,-4.755 c -0.139,-1.252 0.32,-2.495 1.238,-3.356 3.707,-3.479 6.895,-7.67 9.473,-12.458 0.721,-1.336 2.127,-2.152 3.65,-2.101 l 16.006,0.515 c 1.441,0.047 2.746,0.866 3.416,2.145 0.668,1.279 0.596,2.818 -0.189,4.029 L 158.09,459.78 c -0.74,1.14 -2.004,1.824 -3.358,1.824 z m -9.703,-8.314 7.576,0.244 6.693,-10.326 -6.504,-0.21 c -2.245,3.79 -4.847,7.237 -7.765,10.292 z"
       id="path8" />
    <path
       d="m 114.701,500.759 c -1.076,0 -2.125,-0.436 -2.891,-1.236 l -11.723,-12.267 c -4.498,0.361 -9.1,0.157 -13.723,-0.604 l -8.402,10.689 c -1.063,1.354 -2.871,1.876 -4.494,1.294 -6.391,-2.292 -12.67,-5.454 -18.666,-9.396 -0.969,-0.639 -1.615,-1.667 -1.768,-2.818 l -2.287,-17.315 c -4.338,-3.792 -8.359,-8.073 -11.982,-12.761 l -14.227,-0.883 c -1.326,-0.082 -2.523,-0.818 -3.199,-1.963 -1.941,-3.299 -3.738,-6.715 -5.342,-10.153 -1.615,-3.461 -3.076,-7.036 -4.346,-10.625 -0.414,-1.171 -0.26,-2.467 0.416,-3.509 l 8.355,-12.893 C 19.32,410.921 18.709,405.502 18.6,400.166 L 6.805,387.281 C 6.02,386.425 5.647,385.269 5.782,384.115 6.616,377 8.229,370.157 10.581,363.776 c 0.104,-0.277 0.236,-0.543 0.396,-0.792 l 11.775,-18.168 c 1.107,-1.709 3.322,-2.315 5.148,-1.4 1.822,0.912 2.666,3.048 1.961,4.96 -1.932,5.239 -3.318,10.851 -4.127,16.704 l 11.576,12.642 c 0.674,0.735 1.047,1.696 1.049,2.693 0.014,6.26 0.783,12.63 2.289,18.935 0.273,1.146 0.027,2.356 -0.674,3.306 l -8.281,11.212 c 1.008,2.682 2.125,5.341 3.33,7.932 1.205,2.579 2.523,5.144 3.932,7.644 l 13.912,0.864 c 1.178,0.072 2.262,0.661 2.965,1.608 3.867,5.211 8.252,9.896 13.035,13.923 0.762,0.643 1.258,1.547 1.389,2.536 l 2.242,16.994 c 4.148,2.604 8.426,4.799 12.768,6.549 l 8.08,-10.279 c 0.938,-1.192 2.467,-1.75 3.955,-1.445 5.297,1.098 10.598,1.354 15.633,0.751 1.252,-0.15 2.496,0.299 3.365,1.208 l 11.354,11.876 c 1.836,-0.624 3.625,-1.342 5.344,-2.144 2.428,-1.133 4.818,-2.48 7.104,-4.006 1.576,-1.054 3.678,-0.854 5.029,0.479 1.351,1.333 1.58,3.431 0.547,5.023 l -11.773,18.168 c -0.297,0.457 -0.684,0.85 -1.137,1.152 -2.627,1.752 -5.375,3.301 -8.164,4.602 -2.801,1.306 -5.754,2.415 -8.781,3.297 -0.371,0.106 -0.746,0.159 -1.121,0.159 z m -13.068,-21.676 c 1.086,0 2.133,0.441 2.891,1.236 l 11.35,11.876 c 1.836,-0.623 3.627,-1.341 5.348,-2.144 2.184,-1.02 4.344,-2.216 6.426,-3.562 l 3.34,-5.152 c -1.115,0.396 -2.246,0.76 -3.387,1.093 -1.432,0.418 -2.98,0.003 -4.012,-1.076 l -11.725,-12.266 c -4.496,0.362 -9.096,0.157 -13.725,-0.604 l -8.316,10.582 c 3.846,0.468 7.662,0.483 11.336,0.045 0.157,-0.019 0.316,-0.028 0.474,-0.028 z m -40.908,4.451 c 4.148,2.606 8.426,4.801 12.768,6.551 l 8.078,-10.28 c 0.156,-0.199 0.33,-0.381 0.518,-0.544 -5.303,-2.151 -10.506,-4.898 -15.51,-8.188 -0.971,-0.639 -1.617,-1.667 -1.77,-2.819 l -2.285,-17.316 c -4.336,-3.79 -8.357,-8.071 -11.982,-12.76 l -14.227,-0.883 c -1.326,-0.082 -2.525,-0.818 -3.199,-1.964 -1.936,-3.29 -3.732,-6.705 -5.342,-10.151 -0.5,-1.072 -0.984,-2.156 -1.455,-3.247 l -6.455,9.96 c 1.02,2.728 2.154,5.435 3.385,8.072 1.201,2.577 2.52,5.141 3.932,7.646 l 13.914,0.864 c 1.176,0.072 2.262,0.661 2.965,1.608 3.863,5.21 8.248,9.894 13.031,13.924 0.764,0.642 1.258,1.546 1.389,2.535 z M 13.957,383.247 25.533,395.89 c 0.674,0.735 1.049,1.696 1.051,2.693 0.006,2.689 0.152,5.408 0.441,8.14 l 5.424,-7.344 c -1.26,-5.785 -1.955,-11.617 -2.072,-17.382 L 18.58,369.115 c -0.404,-0.441 -0.699,-0.963 -0.871,-1.521 -1.738,4.946 -2.998,10.199 -3.752,15.653 z"
       id="path9" />
    <path
       d="m 136.232,392.021 c -8.004,0 -16.104,-5.377 -19.693,-13.077 L 1.813,132.909 c -1.959,-4.196 -2.342,-8.644 -1.086,-12.562 0.045,-0.182 0.105,-0.362 0.18,-0.54 l 0.012,-0.026 c 0.102,-0.277 0.211,-0.551 0.33,-0.819 l 6.674,-16.56 c 0.402,-0.997 1.189,-1.79 2.182,-2.201 0.992,-0.41 2.109,-0.403 3.1,0.019 1.914,0.817 2.889,2.97 2.23,4.944 -0.666,2.005 -0.42,4.425 0.695,6.814 l 114.727,246.034 c 2.248,4.822 7.598,8.459 12.443,8.459 0.672,0 1.324,-0.072 1.938,-0.214 l 353.99,-81.805 c 1.918,-0.443 3.346,-1.557 4.125,-3.22 0.85,-1.81 2.902,-2.717 4.813,-2.119 1.064,0.332 1.947,1.095 2.426,2.103 0.479,1.008 0.52,2.172 0.104,3.207 l -6.801,16.959 c -1.68,4.269 -5.303,7.345 -9.93,8.414 l -353.992,81.806 c -1.203,0.278 -2.461,0.419 -3.741,0.419 z M 8.428,122.539 c -0.012,0.037 -0.025,0.074 -0.037,0.111 -0.695,2.019 -0.455,4.46 0.672,6.877 L 123.79,375.562 c 2.25,4.822 7.598,8.458 12.443,8.458 0.674,0 1.324,-0.071 1.938,-0.213 l 353.992,-81.805 c 2.078,-0.48 3.564,-1.717 4.295,-3.573 l 2.266,-5.648 -351.686,81.271 c -1.203,0.278 -2.461,0.419 -3.738,0.419 -8.006,0 -16.104,-5.378 -19.693,-13.078 L 10.191,118.174 l -1.549,3.84 c -0.018,0.043 -0.035,0.087 -0.055,0.129 -0.056,0.13 -0.11,0.261 -0.159,0.396 z"
       id="path10" />
    <path
       d="m 143.299,374.472 c -8.006,0 -16.104,-5.378 -19.693,-13.078 L 8.879,115.36 C 6.58,110.434 6.457,105.157 8.541,100.883 c 1.85,-3.797 5.221,-6.432 9.49,-7.418 l 353.99,-81.806 c 1.201,-0.278 2.459,-0.419 3.738,-0.419 8.006,0 16.104,5.378 19.693,13.078 l 114.73,246.034 c 2.297,4.927 2.42,10.203 0.336,14.477 -1.852,3.797 -5.223,6.432 -9.492,7.418 l -353.99,81.805 c -1.2,0.279 -2.46,0.42 -3.737,0.42 z M 375.76,19.241 c -0.674,0 -1.324,0.072 -1.936,0.213 L 19.832,101.261 c -1.898,0.438 -3.316,1.521 -4.102,3.129 -1.02,2.094 -0.875,4.859 0.398,7.589 l 114.727,246.034 c 2.248,4.822 7.598,8.459 12.443,8.459 0.672,0 1.324,-0.072 1.938,-0.214 l 353.99,-81.805 c 1.898,-0.438 3.316,-1.521 4.102,-3.129 1.021,-2.095 0.877,-4.861 -0.395,-7.59 L 388.203,27.7 c -2.248,-4.822 -7.598,-8.459 -12.443,-8.459 z"
       id="path11" />
    <path
       d="m 141.504,356.7 c -1.527,0 -2.957,-0.878 -3.625,-2.311 L 26.273,115.046 c -0.51,-1.094 -0.5,-2.358 0.029,-3.443 0.529,-1.084 1.52,-1.872 2.695,-2.145 L 370.614,30.699 c 1.844,-0.425 3.729,0.496 4.525,2.207 L 486.75,272.25 c 0.51,1.094 0.498,2.359 -0.029,3.443 -0.529,1.085 -1.52,1.873 -2.695,2.145 l -341.621,78.759 c -0.301,0.069 -0.604,0.103 -0.901,0.103 z M 35.609,116.141 143.759,348.073 477.411,271.156 369.26,39.224 Z"
       id="path12" />
    <path
       d="m 107.268,122.414 c -1.82,0 -3.467,-1.251 -3.895,-3.101 -0.496,-2.152 0.846,-4.301 2.998,-4.798 l 9.588,-2.216 c 2.146,-0.498 4.299,0.844 4.797,2.996 0.498,2.153 -0.844,4.301 -2.996,4.799 l -9.588,2.216 c -0.303,0.07 -0.606,0.104 -0.904,0.104 z"
       id="path13" />
    <path
       d="m 138.354,115.229 c -1.82,0 -3.465,-1.251 -3.893,-3.1 -0.498,-2.152 0.844,-4.301 2.996,-4.799 l 15.533,-3.59 c 2.145,-0.495 4.301,0.844 4.799,2.997 0.496,2.152 -0.846,4.301 -2.998,4.798 l -15.533,3.59 c -0.303,0.071 -0.606,0.104 -0.904,0.104 z m 33.009,-7.627 c -1.82,0 -3.467,-1.251 -3.895,-3.1 -0.496,-2.153 0.846,-4.301 2.998,-4.799 L 186,96.113 c 2.141,-0.495 4.299,0.844 4.797,2.997 0.498,2.152 -0.844,4.301 -2.996,4.798 l -15.533,3.59 c -0.303,0.07 -0.606,0.104 -0.905,0.104 z m 33.008,-7.628 c -1.82,0 -3.465,-1.251 -3.893,-3.101 -0.498,-2.152 0.844,-4.301 2.996,-4.798 l 15.533,-3.59 c 2.146,-0.496 4.301,0.844 4.799,2.996 0.496,2.153 -0.846,4.301 -2.998,4.799 l -15.533,3.59 c -0.302,0.069 -0.605,0.104 -0.904,0.104 z m 33.01,-7.628 c -1.82,0 -3.467,-1.251 -3.895,-3.101 -0.496,-2.152 0.846,-4.301 2.998,-4.798 l 15.533,-3.59 c 2.143,-0.496 4.299,0.843 4.797,2.996 0.498,2.152 -0.844,4.301 -2.996,4.799 l -15.533,3.59 c -0.303,0.07 -0.605,0.104 -0.904,0.104 z m 33.008,-7.629 c -1.82,0 -3.467,-1.251 -3.895,-3.1 -0.496,-2.153 0.846,-4.301 2.998,-4.799 l 15.533,-3.59 c 2.146,-0.495 4.301,0.844 4.799,2.997 0.496,2.152 -0.846,4.301 -2.998,4.798 l -15.533,3.59 c -0.303,0.071 -0.605,0.104 -0.904,0.104 z m 33.007,-7.628 c -1.82,0 -3.465,-1.251 -3.893,-3.101 -0.498,-2.152 0.844,-4.3 2.996,-4.798 l 15.535,-3.59 c 2.143,-0.496 4.299,0.844 4.797,2.997 0.498,2.152 -0.844,4.301 -2.996,4.798 l -15.535,3.59 c -0.302,0.071 -0.605,0.104 -0.904,0.104 z"
       id="path14" />
    <path
       d="m 341.395,68.309 c -1.82,0 -3.467,-1.251 -3.895,-3.101 -0.496,-2.152 0.846,-4.301 2.998,-4.798 l 9.588,-2.217 c 2.143,-0.495 4.301,0.844 4.799,2.997 0.496,2.152 -0.846,4.301 -2.998,4.798 l -9.588,2.217 c -0.303,0.069 -0.606,0.104 -0.904,0.104 z"
       id="path15" />
    <path
       d="m 199.57,320.346 c -1.506,0 -2.949,-0.855 -3.627,-2.311 L 111.621,137.209 c -0.51,-1.094 -0.498,-2.359 0.029,-3.443 0.529,-1.085 1.52,-1.873 2.695,-2.145 L 358.062,75.299 c 2.145,-0.495 4.299,0.844 4.797,2.997 0.498,2.152 -0.844,4.301 -2.996,4.798 l -238.904,55.21 82.234,176.351 c 0.934,2.002 0.066,4.382 -1.936,5.315 -0.546,0.255 -1.12,0.376 -1.687,0.376 z"
       id="path16" />
    <path
       d="m 76.9,176.417 c -1.82,0 -3.465,-1.251 -3.893,-3.101 -0.498,-2.152 0.844,-4.301 2.996,-4.798 l 33.254,-7.687 c 2.145,-0.497 4.299,0.844 4.797,2.997 0.498,2.152 -0.844,4.301 -2.996,4.798 l -33.254,7.687 c -0.302,0.07 -0.605,0.104 -0.904,0.104 z"
       id="path17" />
    <path
       d="m 90.418,205.405 c -1.82,0 -3.465,-1.251 -3.893,-3.1 -0.498,-2.152 0.844,-4.301 2.996,-4.799 l 33.254,-7.686 c 2.145,-0.497 4.301,0.844 4.799,2.996 0.496,2.152 -0.846,4.301 -2.998,4.799 l -33.254,7.686 c -0.302,0.071 -0.605,0.104 -0.904,0.104 z"
       id="path18" />
    <path
       d="m 103.938,234.395 c -1.82,0 -3.467,-1.251 -3.895,-3.101 -0.496,-2.152 0.846,-4.301 2.998,-4.798 l 33.252,-7.686 c 2.145,-0.497 4.301,0.844 4.799,2.996 0.496,2.152 -0.846,4.301 -2.998,4.799 l -33.252,7.686 c -0.303,0.069 -0.606,0.104 -0.904,0.104 z"
       id="path19" />
    <path
       d="m 117.455,263.384 c -1.82,0 -3.467,-1.251 -3.895,-3.101 -0.496,-2.152 0.846,-4.301 2.998,-4.798 l 33.252,-7.686 c 2.146,-0.497 4.299,0.844 4.797,2.996 0.498,2.152 -0.844,4.301 -2.996,4.799 l -33.252,7.686 c -0.302,0.07 -0.605,0.104 -0.904,0.104 z"
       id="path20" />
    <path
       d="m 130.971,292.372 c -1.82,0 -3.465,-1.251 -3.893,-3.1 -0.498,-2.152 0.844,-4.301 2.996,-4.799 l 33.254,-7.686 c 2.146,-0.496 4.301,0.844 4.799,2.997 0.496,2.152 -0.846,4.301 -2.998,4.798 l -33.254,7.686 c -0.303,0.071 -0.605,0.104 -0.904,0.104 z"
       id="path21" />
    <path
       d="m 145.746,168.985 c -1.527,0 -2.955,-0.878 -3.623,-2.31 l -7.139,-15.31 c -0.51,-1.094 -0.5,-2.359 0.029,-3.443 0.529,-1.085 1.52,-1.873 2.695,-2.145 l 67.561,-15.612 c 1.842,-0.424 3.727,0.495 4.525,2.207 l 7.139,15.309 c 0.51,1.094 0.5,2.358 -0.029,3.443 -0.529,1.085 -1.52,1.872 -2.695,2.145 l -67.561,15.613 c -0.3,0.07 -0.603,0.103 -0.902,0.103 z m -1.426,-16.524 3.684,7.897 59.594,-13.771 -3.684,-7.896 z"
       id="path22" />
    <path
       d="m 203.604,187.729 c -1.527,0 -2.957,-0.878 -3.625,-2.311 l -7.139,-15.311 c -0.51,-1.094 -0.5,-2.359 0.029,-3.443 0.529,-1.085 1.52,-1.873 2.695,-2.145 l 97.295,-22.483 c 1.844,-0.425 3.727,0.495 4.525,2.207 l 7.139,15.31 c 0.51,1.094 0.498,2.358 -0.029,3.443 -0.529,1.085 -1.52,1.872 -2.695,2.145 l -97.295,22.484 c -0.301,0.07 -0.604,0.104 -0.9,0.104 z m -1.428,-16.526 3.684,7.898 89.326,-20.643 -3.682,-7.897 z"
       id="path23" />
    <path
       d="m 265.77,205.476 c -1.527,0 -2.957,-0.878 -3.625,-2.31 l -7.139,-15.311 c -0.51,-1.094 -0.5,-2.359 0.029,-3.443 0.529,-1.085 1.52,-1.873 2.695,-2.145 l 67.561,-15.613 c 1.84,-0.426 3.727,0.496 4.525,2.207 l 7.139,15.31 c 0.51,1.094 0.498,2.359 -0.029,3.443 -0.529,1.085 -1.52,1.873 -2.695,2.145 l -67.561,15.614 c -0.301,0.069 -0.604,0.103 -0.9,0.103 z m -1.426,-16.526 3.682,7.898 59.592,-13.772 -3.682,-7.897 z"
       id="path24" />
    <path
       d="m 253.861,240.339 c -1.527,0 -2.955,-0.878 -3.623,-2.31 l -7.139,-15.309 c -0.51,-1.094 -0.5,-2.359 0.029,-3.443 0.529,-1.085 1.52,-1.873 2.695,-2.145 l 126.764,-29.296 c 1.842,-0.425 3.729,0.495 4.525,2.207 l 7.139,15.311 c 0.51,1.094 0.5,2.358 -0.029,3.443 -0.529,1.085 -1.52,1.872 -2.695,2.145 l -126.764,29.294 c -0.3,0.07 -0.603,0.103 -0.902,0.103 z m -1.425,-16.524 3.684,7.896 118.797,-27.452 -3.684,-7.898 z"
       id="path25" />
    <path
       d="m 382.621,242.696 c -1.527,0 -2.957,-0.878 -3.625,-2.31 l -7.139,-15.31 c -0.51,-1.094 -0.5,-2.359 0.029,-3.443 0.529,-1.085 1.52,-1.873 2.695,-2.145 l 45.303,-10.47 c 1.846,-0.426 3.729,0.495 4.525,2.207 l 7.141,15.31 c 0.51,1.094 0.498,2.359 -0.029,3.443 -0.529,1.085 -1.52,1.873 -2.695,2.145 l -45.305,10.47 c -0.3,0.07 -0.603,0.103 -0.9,0.103 z m -1.426,-16.524 3.682,7.897 37.336,-8.628 -3.684,-7.897 z"
       id="path26" />
  </g>
</svg>
