<?xml version="1.0" encoding="UTF-8" standalone="no"?>
<svg
   data-name="Layer 1"
   x="0px"
   y="0px"
   preserveAspectRatio="xMinYMax"
   version="1.1"
   id="svg4"
   sodipodi:docname="IconProjet.svg"
   width="63.872002"
   height="56.570999"
   inkscape:version="1.3 (0e150ed, 2023-07-21)"
   inkscape:export-filename="IconProjet.svg"
   inkscape:export-xdpi="96"
   inkscape:export-ydpi="96"
   xmlns:inkscape="http://www.inkscape.org/namespaces/inkscape"
   xmlns:sodipodi="http://sodipodi.sourceforge.net/DTD/sodipodi-0.dtd"
   xmlns:xlink="http://www.w3.org/1999/xlink"
   xmlns="http://www.w3.org/2000/svg"
   xmlns:svg="http://www.w3.org/2000/svg">
  <sodipodi:namedview
     id="namedview4"
     pagecolor="#ffffff"
     bordercolor="#000000"
     borderopacity="0.25"
     inkscape:showpageshadow="2"
     inkscape:pageopacity="0.0"
     inkscape:pagecheckerboard="0"
     inkscape:deskcolor="#d1d1d1"
     inkscape:zoom="1.5733333"
     inkscape:cx="150"
     inkscape:cy="25.423729"
     inkscape:window-width="1312"
     inkscape:window-height="449"
     inkscape:window-x="0"
     inkscape:window-y="25"
     inkscape:window-maximized="0"
     inkscape:current-layer="svg4"
     showguides="false" />
  <defs
     id="defs2">
    <linearGradient
       x1="0.5"
       y1="0"
       x2="0.5"
       y2="1"
       id="linearGradient-1">
      <stop
         stop-color="#EA9C34"
         offset="0%"
         id="stop1" />
      <stop
         stop-color="#892929"
         offset="100%"
         id="stop2" />
    </linearGradient>
    <linearGradient
       inkscape:collect="always"
       xlink:href="#linearGradient-1"
       id="linearGradient4"
       x1="28.754087"
       y1="12.032707"
       x2="28.754087"
       y2="62.35236"
       gradientTransform="matrix(1.1128853,0,0,0.89856521,0,1.7535095)"
       gradientUnits="userSpaceOnUse" />
    <linearGradient
       inkscape:collect="always"
       xlink:href="#linearGradient-1"
       id="linearGradient5"
       x1="27.385878"
       y1="16.53681"
       x2="27.385878"
       y2="21.757015"
       gradientTransform="matrix(0.99513044,0,0,1.0048934,0,1.7535095)"
       gradientUnits="userSpaceOnUse" />
    <linearGradient
       inkscape:collect="always"
       xlink:href="#linearGradient-1"
       id="linearGradient6"
       x1="35.93504"
       y1="6.0460649"
       x2="35.93504"
       y2="36.799576"
       gradientTransform="matrix(0.75837545,0,0,1.3186081,0,1.7535095)"
       gradientUnits="userSpaceOnUse" />
    <linearGradient
       inkscape:collect="always"
       xlink:href="#linearGradient-1"
       id="linearGradient7"
       x1="29.643295"
       y1="8.6062117"
       x2="29.643295"
       y2="60.481979"
       gradientTransform="scale(1.0795021,0.92635297)"
       gradientUnits="userSpaceOnUse" />
  </defs>
  <g
     fill="url(#linearGradient-1)"
     fill-rule="nonzero"
     style="fill:url(#linearGradient7)"
     id="g9"
     transform="matrix(0.44776326,0,0,0.44776326,2.7245073,0.15671102)">
    <g
       id="g8">
      <path
         d="m 93,25 c -5.514,0 -10,4.486 -10,10 0,5.514 4.486,10 10,10 5.514,0 10,-4.486 10,-10 0,-5.514 -4.486,-10 -10,-10 z m 0,18 c -4.411,0 -8,-3.589 -8,-8 0,-4.411 3.589,-8 8,-8 4.411,0 8,3.589 8,8 0,4.411 -3.589,8 -8,8 z"
         id="path1" />
      <path
         d="m 123.216,42.034 c -0.533,-0.139 -1.081,0.175 -1.225,0.709 C 118.501,55.848 106.579,65 93,65 76.458,65 63,51.542 63,35 63,18.458 76.458,5 93,5 c 14.056,0 26.076,9.55 29.231,23.225 0.125,0.539 0.665,0.873 1.199,0.75 0.538,-0.125 0.874,-0.661 0.75,-1.199 C 120.814,13.188 107.992,3 93,3 75.355,3 61,17.355 61,35 c 0,17.645 14.355,32 32,32 14.484,0 27.201,-9.763 30.925,-23.743 0.141,-0.533 -0.176,-1.081 -0.709,-1.223 z"
         id="path2" />
      <path
         d="m 124.935,32.937 c -0.036,-0.551 -0.518,-0.979 -1.062,-0.935 -0.551,0.035 -0.97,0.51 -0.935,1.062 0.041,0.64 0.062,1.286 0.062,1.936 0,0.966 -0.047,1.943 -0.139,2.904 -0.053,0.55 0.35,1.039 0.899,1.091 0.032,0.003 0.064,0.004 0.097,0.004 0.51,0 0.944,-0.387 0.994,-0.904 C 124.95,37.071 125,36.03 125,35 c 0,-0.693 -0.022,-1.381 -0.065,-2.063 z"
         id="path3" />
      <path
         d="m 109,67 c -0.553,0 -1,0.448 -1,1 v 43.028 C 106.439,109.177 104.104,108 101.5,108 h -90 C 7.916,108 5,105.084 5,101.5 5,99.768 5.677,98.137 6.907,96.907 8.137,95.677 9.768,95 11.5,95 H 19 c 0.552,0 1,-0.448 1,-1 V 59 h 45 c 0.553,0 1,-0.448 1,-1 0,-0.552 -0.447,-1 -1,-1 H 20 V 43 c 0,-0.552 -0.448,-1 -1,-1 H 11.5 C 9.233,42 7.1,42.885 5.493,44.493 3.885,46.1 3,48.233 3,50.5 v 51 c 0,4.687 3.813,8.5 8.5,8.5 H 93 v 14 c 0,0.552 0.447,1 1,1 h 7.5 c 2.267,0 4.4,-0.885 6.007,-2.493 1.45,-1.45 2.306,-3.329 2.461,-5.347 C 109.977,117.106 110,117.057 110,117 V 116.5 68 c 0,-0.552 -0.447,-1 -1,-1 z M 5,50.5 C 5,48.768 5.677,47.137 6.907,45.907 8.137,44.677 9.768,44 11.5,44 H 18 V 93 H 11.5 C 9.233,93 7.1,93.885 5.493,95.493 5.32,95.666 5.156,95.845 5,96.029 Z m 101.093,70.593 c -1.229,1.23 -2.86,1.907 -4.593,1.907 H 95 v -13 h 6.5 c 3.584,0 6.5,2.916 6.5,6.5 0,1.732 -0.678,3.363 -1.907,4.593 z"
         id="path4" />
      <path
         d="m 30,79 h 25 c 0.552,0 1,-0.448 1,-1 v -9 c 0,-0.552 -0.448,-1 -1,-1 H 30 c -0.552,0 -1,0.448 -1,1 v 9 c 0,0.552 0.448,1 1,1 z m 1,-9 h 23 v 7 H 31 Z"
         id="path5" />
      <path
         d="m 29,97 c 0,0.552 0.448,1 1,1 h 25 39 c 0.553,0 1,-0.448 1,-1 v -9 c 0,-0.552 -0.447,-1 -1,-1 H 55 30 c -0.552,0 -1,0.448 -1,1 z M 93,96 H 56 V 89 H 93 Z M 31,89 h 23 v 7 H 31 Z"
         id="path6" />
      <path
         d="m 65,78 v -8 c 0,-0.552 -0.448,-1 -1,-1 -0.552,0 -1,0.448 -1,1 v 8 c 0,0.552 0.448,1 1,1 0.552,0 1,-0.448 1,-1 z"
         id="path7" />
      <path
         d="m 111.284,31.372 2.036,-1.176 c 1.433,-0.827 1.925,-2.665 1.099,-4.098 l -3,-5.197 c -0.828,-1.432 -2.664,-1.921 -4.099,-1.098 l -2.045,1.181 c -0.354,0.204 -0.79,0.172 -1.11,-0.082 -1.391,-1.106 -2.92,-1.995 -4.545,-2.642 C 99.243,18.11 99,17.75 99,17.342 V 15 c 0,-1.654 -1.346,-3 -3,-3 h -6 c -1.654,0 -3,1.346 -3,3 v 2.343 c 0,0.408 -0.243,0.768 -0.619,0.918 -1.626,0.646 -3.155,1.535 -4.545,2.641 -0.321,0.255 -0.757,0.288 -1.111,0.082 l -2.045,-1.18 c -1.432,-0.825 -3.271,-0.333 -4.099,1.098 l -3,5.197 c -0.826,1.433 -0.334,3.271 1.099,4.098 l 2.036,1.175 c 0.355,0.206 0.546,0.601 0.485,1.004 C 75.067,33.25 75,34.133 75,35 c 0,0.867 0.067,1.75 0.2,2.623 0.062,0.405 -0.129,0.8 -0.484,1.005 l -2.036,1.176 c -1.433,0.827 -1.925,2.665 -1.099,4.098 l 3,5.197 c 0.828,1.432 2.667,1.924 4.099,1.098 l 2.045,-1.181 c 0.354,-0.204 0.79,-0.173 1.11,0.082 1.391,1.106 2.92,1.995 4.545,2.642 0.377,0.15 0.62,0.51 0.62,0.918 V 55 c 0,1.654 1.346,3 3,3 h 6 c 1.654,0 3,-1.346 3,-3 v -2.343 c 0,-0.408 0.243,-0.768 0.619,-0.918 1.626,-0.646 3.155,-1.535 4.545,-2.641 0.321,-0.255 0.758,-0.287 1.111,-0.082 l 2.045,1.18 c 1.435,0.828 3.271,0.334 4.099,-1.098 l 3,-5.197 c 0.826,-1.433 0.334,-3.271 -1.099,-4.098 l -2.036,-1.175 c -0.355,-0.206 -0.546,-0.601 -0.485,-1.004 C 110.933,36.75 111,35.867 111,35 c 0,-0.867 -0.067,-1.75 -0.2,-2.623 -0.062,-0.405 0.129,-0.8 0.484,-1.005 z m -1,-1.732 c -1.073,0.62 -1.646,1.811 -1.462,3.037 0.118,0.775 0.178,1.556 0.178,2.323 0,0.767 -0.06,1.548 -0.179,2.325 -0.184,1.224 0.39,2.416 1.463,3.036 l 2.036,1.176 c 0.478,0.275 0.642,0.888 0.366,1.366 l -3,5.196 c -0.274,0.477 -0.887,0.643 -1.366,0.366 l -2.045,-1.18 c -1.071,-0.619 -2.389,-0.521 -3.356,0.249 -1.236,0.984 -2.595,1.774 -4.039,2.348 C 97.738,50.335 97,51.425 97,52.657 V 55 c 0,0.551 -0.448,1 -1,1 h -6 c -0.552,0 -1,-0.449 -1,-1 V 52.657 C 89,51.425 88.262,50.335 87.119,49.881 85.676,49.307 84.317,48.517 83.08,47.533 82.536,47.1 81.881,46.88 81.222,46.88 c -0.513,0 -1.028,0.134 -1.497,0.404 l -2.045,1.18 c -0.481,0.276 -1.092,0.11 -1.366,-0.366 l -3,-5.196 c -0.275,-0.478 -0.111,-1.091 0.366,-1.366 l 2.036,-1.176 c 1.073,-0.62 1.646,-1.811 1.462,-3.037 C 77.06,36.548 77,35.767 77,35 c 0,-0.767 0.06,-1.548 0.179,-2.325 0.184,-1.224 -0.39,-2.416 -1.463,-3.036 L 73.68,28.463 c -0.478,-0.275 -0.642,-0.888 -0.366,-1.366 l 3,-5.196 c 0.274,-0.478 0.886,-0.643 1.366,-0.366 l 2.045,1.18 c 1.071,0.619 2.389,0.521 3.356,-0.249 1.236,-0.984 2.595,-1.774 4.039,-2.348 C 88.262,19.663 89,18.574 89,17.342 V 15 c 0,-0.551 0.448,-1 1,-1 h 6 c 0.552,0 1,0.449 1,1 v 2.343 c 0,1.232 0.738,2.322 1.881,2.776 1.443,0.574 2.802,1.364 4.039,2.348 0.967,0.771 2.284,0.868 3.355,0.249 l 2.045,-1.18 c 0.479,-0.278 1.092,-0.111 1.366,0.366 l 3,5.196 c 0.275,0.478 0.111,1.091 -0.366,1.366 z"
         id="path8" />
    </g>
  </g>
</svg>
