<?xml version="1.0" encoding="UTF-8" standalone="no"?>
<svg
   width="26"
   height="26"
   viewBox="0 0 26 26"
   version="1.1"
   id="svg4"
   xmlns:xlink="http://www.w3.org/1999/xlink"
   xmlns="http://www.w3.org/2000/svg"
   xmlns:svg="http://www.w3.org/2000/svg"
   xmlns:rdf="http://www.w3.org/1999/02/22-rdf-syntax-ns#"
   xmlns:cc="http://creativecommons.org/ns#"
   xmlns:dc="http://purl.org/dc/elements/1.1/">
  <title
     id="title1">FC431F3A-3ECC-47A3-B2B7-21B8B0702AD2</title>
  <defs
     id="defs3">
    <linearGradient
       x1="83.688133"
       y1="38.206871"
       x2="106"
       y2="20.783131"
       id="linearGradient-1"
       gradientUnits="userSpaceOnUse">
      <stop
         stop-color="#B5530C"
         offset="0%"
         id="stop1" />
      <stop
         stop-color="#EB9D34"
         offset="49.261484%"
         id="stop2" />
      <stop
         stop-color="#F72900"
         offset="100%"
         id="stop3" />
    </linearGradient>
    <path
       d="m 93,42 c 7.1797,0 13,-5.820298 13,-13 0,-7.179702 -5.8203,-13 -13,-13 -7.179702,0 -13,5.820298 -13,13 0,7.179702 5.820298,13 13,13 z"
       id="path-2" />
    <mask
       id="mask-3"
       maskContentUnits="userSpaceOnUse"
       maskUnits="objectBoundingBox"
       x="0"
       y="0"
       width="26"
       height="26"
       fill="#ffffff">
      <use
         xlink:href="#path-2"
         id="use3" />
    </mask>
  </defs>
  <g
     id="Page-1"
     stroke="none"
     stroke-width="1"
     fill="none"
     fill-rule="evenodd"
     transform="translate(-80,-16)">
    <g
       id="Capture-d’écran-2023-11-22-à-16.31.05"
       transform="translate(-201,-5557)">
      <g
         id="Group-5"
         transform="translate(201,5557)">
        <path
           d="M 5.928,35.88 Q 2.34,32.24 2.34,26.78 q 0,-5.46 3.588,-9.1 3.64,-3.64 9.048,-3.64 5.408,0 8.996,3.64 3.64,3.64 3.64,9.1 0,5.46 -3.64,9.1 -3.588,3.64 -8.996,3.64 -5.408,0 -9.048,-3.64 z M 9.464,21.06 Q 7.28,23.4 7.28,26.78 q 0,3.38 2.184,5.72 2.184,2.34 5.512,2.34 3.328,0 5.512,-2.34 2.184,-2.34 2.184,-5.72 0,-3.38 -2.184,-5.72 -2.184,-2.34 -5.512,-2.34 -3.328,0 -5.512,2.34 z m 41.761551,9.984 3.796,2.756 q -1.508,2.548 -4.524,4.16 -3.016,1.56 -6.344,1.56 -5.616,0 -9.36,-3.64 -3.692,-3.64 -3.692,-9.1 0,-5.46 3.64,-9.1 3.64,-3.64 9.1,-3.64 3.12,0 5.876,1.456 2.756,1.404 4.524,3.848 l -3.64,3.068 q -2.652,-3.692 -6.76,-3.692 -3.328,0 -5.564,2.288 -2.236,2.288 -2.236,5.772 0,3.588 2.288,5.824 2.288,2.236 5.824,2.236 4.212,0 7.072,-3.796 z m 22.417575,3.484 0.988,4.472 q -1.56,0.52 -3.848,0.52 -4.368,0 -6.916,-2.86 -1.976,-2.184 -1.976,-6.5 V 18.98 h -6.24 v -4.42 h 6.24 V 7.8 h 4.94 v 6.76 h 7.8 v 4.42 h -7.8 v 11.44 q 0,2.288 0.728,3.12 1.04,1.3 3.38,1.3 1.612,0 2.704,-0.312 z"
           id="oct"
           style="font-size:52px;font-family:Brown-Regular, Brown;letter-spacing:-1.19036;fill:#1c1c1c"
           aria-label="oct" />
        <path
           d="M 116.204,36.764 V 39 H 111.42 V 2.08 h 4.94 v 14.612 q 3.172,-2.652 7.488,-2.652 3.328,0 5.98,1.56 2.86,1.664 4.576,4.628 1.716,2.964 1.716,6.552 0,3.588 -1.716,6.552 -1.664,2.912 -4.524,4.576 -2.704,1.612 -6.136,1.612 -4.472,0 -7.54,-2.756 z m 0.156,-14.56 v 9.152 q 2.6,3.484 6.708,3.484 3.484,0 5.772,-2.34 2.34,-2.392 2.34,-5.72 0,-3.328 -2.236,-5.668 -2.184,-2.392 -5.616,-2.392 -4.316,0 -6.968,3.484 z m 39.36962,-8.008 -0.572,4.732 q -0.78,-0.208 -1.924,-0.208 -1.872,0 -3.744,1.196 -1.82,1.144 -2.86,2.912 V 39 h -4.94 V 14.56 h 4.784 v 2.808 q 0.988,-1.404 2.912,-2.34 1.924,-0.988 4.42,-0.988 1.04,0 1.924,0.156 z m 25.27752,13.624 h -18.824 q 0.208,3.12 2.444,5.252 2.288,2.132 5.46,2.132 4.004,0 7.02,-3.328 l 3.224,3.068 q -1.508,1.976 -4.16,3.276 -2.652,1.3 -6.136,1.3 -5.356,0 -8.996,-3.64 -3.64,-3.64 -3.64,-9.1 0,-5.512 3.328,-9.1 3.38,-3.64 8.58,-3.64 5.096,0 8.424,3.64 3.328,3.64 3.328,9.1 0,0.572 -0.052,1.04 z m -11.544,-9.464 q -2.392,0 -4.316,1.508 -1.924,1.456 -2.548,3.796 h 13.312 q -0.52,-2.288 -2.392,-3.796 -1.82,-1.508 -4.056,-1.508 z"
           id="bre"
           style="font-size:52px;font-family:Brown-Regular, Brown;letter-spacing:-1.19036;fill:#1c1c1c"
           aria-label="bre" />
        <use
           id="Oval-Copy"
           stroke="url(#linearGradient-1)"
           mask="url(#mask-3)"
           stroke-width="8"
           stroke-linejoin="round"
           stroke-dasharray="6, 2.6"
           xlink:href="#path-2"
           style="stroke:url(#linearGradient-1)" />
      </g>
    </g>
  </g>
  <metadata
     id="metadata4">
    <rdf:RDF>
      <cc:Work
         rdf:about="">
        <dc:title>FC431F3A-3ECC-47A3-B2B7-21B8B0702AD2</dc:title>
      </cc:Work>
    </rdf:RDF>
  </metadata>
</svg>
