<?xml version="1.0" encoding="UTF-8"?>
<svg width="63px" height="58px" viewBox="0 0 63 58" version="1.1" xmlns="http://www.w3.org/2000/svg" xmlns:xlink="http://www.w3.org/1999/xlink">
    <title>0B7FA694-13AF-46EF-8127-0A82142D59FD</title>
    <defs>
        <linearGradient x1="50%" y1="0%" x2="50%" y2="100%" id="linearGradient-1">
            <stop stop-color="#EA9C34" offset="0%"></stop>
            <stop stop-color="#892929" offset="100%"></stop>
        </linearGradient>
    </defs>
    <g id="Page-1" stroke="none" stroke-width="1" fill="none" fill-rule="evenodd">
        <g id="OCTOBRE-New-version" transform="translate(-617, -878)" fill="url(#linearGradient-1)" fill-rule="nonzero">
            <g id="Group-8" transform="translate(200, 661)">
                <g id="Group" transform="translate(0, 153)">
                    <g id="display-arrow-down" transform="translate(417, 64)">
                        <path d="M32.8125,49.7070707 L32.8125,54.9393939 L44.625,54.9393939 L44.625,57.5555556 L18.375,57.5555556 L18.375,54.9393939 L30.1875,54.9393939 L30.1875,49.7070707 L0,49.7070707 L0,11.7727273 C0,8.16765657 2.942625,5.23232323 6.5625,5.23232323 L23.625,5.23232323 L23.625,7.84848485 L6.5625,7.84848485 C4.391625,7.84848485 2.625,9.60916162 2.625,11.7727273 L2.625,47.0909091 L60.375,47.0909091 L60.375,11.7727273 C60.375,9.60916162 58.608375,7.84848485 56.4375,7.84848485 L39.375,7.84848485 L39.375,5.23232323 L56.4375,5.23232323 C60.057375,5.23232323 63,8.16765657 63,11.7727273 L63,49.7070707 L32.8125,49.7070707 Z M21.92925,17.1646364 L20.073375,19.0142626 L28.7175,27.6292828 C29.484,28.393202 30.494625,28.7751616 31.502625,28.7751616 C32.510625,28.7751616 33.52125,28.393202 34.28775,27.6292828 L42.931875,19.0142626 L41.076,17.1646364 L32.81775,25.3950808 L32.81775,0 L30.19275,0 L30.19275,25.3950808 L21.9345,17.1646364 L21.92925,17.1646364 Z" id="Shape"></path>
                    </g>
                </g>
            </g>
        </g>
    </g>
</svg>