<?xml version="1.0" encoding="UTF-8"?>
<svg width="87px" height="50px" viewBox="0 0 87 50" version="1.1" xmlns="http://www.w3.org/2000/svg" xmlns:xlink="http://www.w3.org/1999/xlink">
    <title>B1789072-0D0F-4330-B8A6-C3CD792F5AB7</title>
    <g id="Page-1" stroke="none" stroke-width="1" fill="none" fill-rule="evenodd">
        <g id="Capture-d’écran-2023-11-22-à-16.31.05" transform="translate(-772, -3608)" fill="#FF4100" fill-rule="nonzero">
            <g id="Logo_Hermès" transform="translate(772, 3608)">
                <g id="g1079" transform="translate(25.9728, 42.3682)">
                    <path d="M15.7897796,0.100725766 L15.7897796,7.5365258 L16.9130854,7.5365258 L16.9130854,4.30579956 L17.3819437,4.30579956 C17.9545759,4.30579956 18.4224978,4.48005981 19.4527345,6.00541089 L20.4368493,7.53408398 L21.7555126,7.53408398 L21.1767664,6.66962681 C21.0315001,6.47118214 20.8922444,6.2684067 20.7591887,6.06157636 C20.1628022,5.13636265 19.7281693,4.44815619 19.0205059,4.0005528 C19.8544473,3.68548003 20.3245183,3.04023224 20.3245183,2.18128509 C20.3245183,0.895989457 19.3383118,0.100725766 17.7604498,0.100725766 L15.7897796,0.100725766 Z M16.9155272,1.01402297 L17.6359086,1.01402297 C18.7236586,1.01402297 19.1569636,1.43966879 19.1694665,2.13732993 C19.1782186,2.76247308 18.8386851,3.34610539 17.6359086,3.34610539 L17.633408,3.34860596 L16.9154684,3.34860596 L16.9155272,1.01402297 Z" id="path1046"></path>
                    <path d="M9.17936526,0.0543287989 L5.89003174,7.53164217 L7.07682961,7.53164217 L7.9779165,5.34119497 L11.2355052,5.34119497 L12.1658951,7.53164217 L13.3795542,7.53164217 L9.95347031,0.0543287989 L9.17936526,0.0543287989 Z M9.55054475,1.44380974 L10.7837408,4.38150079 L8.40526146,4.38150079 L9.55054475,1.44380974 Z" id="path1038"></path>
                    <path d="M0,0.0982839517 L0,7.53408398 L1.10132814,7.53408398 L1.10132814,4.31556681 L2.32231266,4.31556681 C4.0977215,4.31556681 4.90347511,3.40277723 4.90347511,2.23500874 C4.90347511,1.05723795 4.13927359,0.0982839517 2.46638969,0.0982839517 L0,0.0982839517 Z M1.10376995,1.05797937 L2.4688315,1.05797937 C3.46906129,1.05797937 3.76795908,1.64598644 3.76795908,2.18861053 C3.76795908,2.93253236 3.24506455,3.35831446 2.42487635,3.35831446 L2.42237577,3.35831446 L1.10371119,3.35831446 L1.10376995,1.05797937 Z" id="path1034"></path>
                    <path d="M30.3239568,1.84292568 C30.3239568,1.31780439 30.8590804,0.958971504 31.6042525,0.958971504 C32.1543796,0.958971504 32.8207835,1.13401194 33.507192,1.73415056 L33.507192,0.521370427 C32.9646565,0.184109478 32.3393333,0.00365289035 31.7005247,0 C30.2151816,0 29.2412067,0.771428185 29.2412067,1.98295803 C29.2412067,4.02092876 32.7457662,4.19596919 32.7457662,5.73382441 C32.7457662,6.14641971 32.3306703,6.66904042 31.4267115,6.66904042 C30.6290272,6.66904042 29.8838551,6.28645205 29.2887176,5.59379206 L29.2887176,6.94410396 C29.9663742,7.41296225 30.6765382,7.63176279 31.5567415,7.63176279 C32.8632933,7.63176279 33.8247707,6.77906584 33.8247707,5.61504697 C33.8297665,3.24825028 30.3239568,3.27075548 30.3239568,1.84167539 L30.3239568,1.84292568 Z" id="path1044"></path>
                    <polygon id="path1042" points="24.6488959 0.0987728147 25.7491501 0.0987728147 25.7491501 7.53424027 24.6488959 7.53424027"></polygon>
                </g>
                <g id="g1088" transform="translate(0, 23.0993)">
                    <polyline id="path1060" points="54.3000423 12.935019 54.3000423 14.7766944 59.6012668 14.7766944 59.6012668 12.935019 57.8633653 12.935019 57.8633653 3.63287037 59.6012668 3.63287037 59.6012668 1.78244296 54.8626722 1.78244296 51.7244474 9.37669709 51.6594324 9.74928315 51.5969179 9.37044565 48.458693 1.78119267 43.7250997 1.78119267 43.7250997 3.63162009 45.4592502 3.63162009 45.4592502 12.9337687 43.7225991 12.9337687 43.7225991 14.7754441 49.0200727 14.7754441 49.0200727 12.935019 47.3634401 12.935019 47.3634401 4.38054307 47.375943 3.81541254 47.5297285 4.2655165 51.1430631 12.9112635 52.1708005 12.9112635 55.796638 4.26301593 55.9291686 3.80791081 55.9491732 4.32052921 55.9491732 12.935019"></polyline>
                    <path d="M83.1517065,7.34622809 C81.8451547,6.97364203 80.9224416,7.05866167 79.5933846,6.61480915 C78.3931073,6.21221615 78.1555525,5.47454577 78.1555525,4.98568285 C78.1555525,4.49431935 78.6856749,3.22027507 80.5711104,3.22027507 C82.4590465,3.22027507 83.6943318,4.46806329 83.764348,5.56706714 L83.7718497,5.56206598 L83.7718497,5.56706714 L85.5847685,5.56706714 L85.5847685,1.77869209 L83.8306133,1.77869209 L83.8306133,2.6038827 L83.885626,2.86144219 C83.8731231,2.82393353 83.8231116,2.72015956 83.6380688,2.5363671 C83.6355682,2.53261624 83.6355682,2.53011566 83.6355682,2.52636479 C83.0791897,2.02624928 82.0189448,1.48112336 80.4248266,1.48112336 C78.4931304,1.48112336 76.2176048,2.67890003 76.2176048,4.99443487 C76.2176048,7.25120614 77.8479814,8.03888808 79.2308008,8.40397241 C80.6161208,8.77155731 81.322534,8.77155731 82.4778008,9.08412951 C83.6305671,9.39670171 84.3782398,10.0918623 84.3782398,11.1221002 C84.3782398,12.0973255 83.7781012,13.3763709 81.3375374,13.3763709 C78.8932228,13.3763709 77.9279999,12.0585666 77.6454346,10.1731311 L77.62543,10.1818831 L75.9000315,10.1818831 L75.9000315,14.7804453 L77.7029479,14.7804453 L77.7029479,13.9202466 L77.6979468,13.9139951 L77.6329317,13.6864426 C77.6329317,13.6864426 77.6979468,13.8402281 77.9029941,13.982761 L77.9204982,14.0077668 C78.833209,14.7079285 80.0309857,15.1730359 81.5663403,15.1730359 C83.2792359,15.1730359 86.2774285,14.2940829 86.2774285,11.1808638 C86.2724273,8.95284919 85.0896541,7.9026066 83.1517065,7.3449778 L83.1517065,7.34622809 Z" id="path1058"></path>
                    <path d="M65.1419991,4.02108902e-14 L66.1944884,1.14039966 L69.9380294,1.14039966 L68.980777,4.02108902e-14 L65.1419991,4.02108902e-14 Z M62.0358141,1.78263801 L62.0358141,3.63365181 L63.7769388,3.63365181 L63.7769388,12.9351165 L62.0358141,12.9351165 L62.0358141,14.7763618 L72.7389688,14.7763618 L72.7389688,10.4467493 L70.8513266,10.4467493 L70.848826,12.9351165 L65.6987102,12.9351165 L65.6987102,8.60061908 L70.1284446,8.60061908 L70.1284446,6.76669923 L65.6962684,6.76669923 L65.6962684,3.63365181 L70.8878975,3.63365181 L70.8878975,5.41140618 L72.7120489,5.41140618 L72.7120489,1.78263801 L62.0358141,1.78263801 Z" id="path1056"></path>
                    <polyline id="path1054" points="26.1935502 10.4469443 24.3056141 10.4469443 24.3056141 12.935019 19.1544243 12.935019 19.1544243 8.60026775 23.5866981 8.60026775 23.5866981 6.76609409 19.1544243 6.76609409 19.1544243 3.63287037 24.3468737 3.63287037 24.3468737 5.41078104 26.1722953 5.41078104 26.1722953 1.78244296 15.494829 1.78244296 15.494829 3.63287037 17.2364813 3.63287037 17.2364813 12.935019 15.4935787 12.935019 15.4935787 14.7766944 26.1935502 14.7766944"></polyline>
                    <polyline id="path182" points="7.80680322 3.63287037 9.45968501 3.63287037 9.45968501 6.79109987 3.5808271 6.79109987 3.5808271 3.63287037 5.22620716 3.63287037 5.22620716 1.78244296 0 1.78244296 0 3.63287037 1.66288409 3.63287037 1.66288409 12.935019 0 12.935019 0 14.7766944 5.22620716 14.7766944 5.22620716 12.935019 3.57957681 12.935019 3.57957681 8.61902208 9.45843472 8.61902208 9.45843472 12.935019 7.80680322 12.935019 7.80680322 14.7766944 13.0455133 14.7766944 13.0455133 12.935019 11.377628 12.935019 11.377628 3.63287037 13.0467636 3.63287037 13.0467636 1.78244296 7.80805351 1.78244296"></polyline>
                    <path d="M29.0863084,1.77775438 L29.0863084,3.62876818 L30.7248706,3.62876818 L30.7248706,12.9497687 L29.0863084,12.9497687 L29.0863084,14.7910139 L34.2535169,14.7910139 L34.2535169,12.9473268 L32.6369335,12.9473268 L32.6369335,8.84237492 L36.2095362,8.84237492 C37.4410694,8.85737839 37.9183284,9.66731172 37.9433342,10.3637226 L38.0336926,14.7885721 L41.6038535,14.7885721 L41.6038535,12.9497687 L39.9335451,12.9497687 L39.8847089,10.2806946 C39.8847089,9.51801973 39.3748436,8.61784931 38.6759334,8.1952517 C38.5054369,8.09150537 38.3131603,8.02880669 38.1142799,8.0121044 C38.2843192,8.02210671 38.5133571,8.00935376 38.7296558,7.91930796 C38.736684,7.91654819 38.7441,7.91490299 38.7516359,7.91443183 C39.4592981,7.59935906 40.3169387,6.68445898 40.3169387,5.14035357 C40.3169387,3.99884116 39.8273319,3.07766963 38.9933905,2.47128082 C38.2132115,1.90615028 37.2873514,1.77775438 36.363388,1.77775438 L29.0863084,1.77775438 Z M32.6393753,3.62876818 L36.382915,3.62876818 C36.7705045,3.62876818 37.2544263,3.61574017 37.630762,3.80703185 C38.0908683,4.04083586 38.5220816,4.544761 38.5220816,5.36745103 C38.5220816,6.31766926 37.6506091,7.05729385 36.5953666,7.05729385 L36.5953666,7.05479327 L32.6393753,7.05479327 L32.6393753,3.62876818 Z" id="path1030"></path>
                </g>
                <g id="g1583" transform="translate(17.6668, 0)">
                    <path d="M13.9805589,19.4104344 L6.70887932,19.4104344 C6.68387354,19.4604459 6.35129673,19.7480124 6.21626554,19.8355326 L14.4431658,19.8355326 C14.2726112,19.7127291 14.1173121,19.5700218 13.9805589,19.4104344 Z" id="path1068"></path>
                    <path d="M0.422427269,21.0758191 L48.5710487,21.0758191 L48.5710487,20.1756111 L17.6038959,20.1756111 C16.8124631,20.5531983 15.8084812,20.5356943 15.0258004,20.1756111 L5.62362865,20.1756111 C4.73592361,20.5657012 3.71318737,20.5632007 2.82298175,20.179362 L0.422427269,20.1731106 L0.422427269,21.0733185 L0.422427269,21.0758191 Z" id="path1066"></path>
                    <path d="M48.5785504,19.4179361 L47.6483356,19.4179361 C47.3895258,19.4679477 47.1982316,19.6867482 47.1769767,19.8355326 L48.5773001,19.8355326 L48.5773001,19.4166858 L48.5785504,19.4179361 Z" id="path1064"></path>
                    <path d="M0.422427269,19.4104344 L0.422427269,19.8355326 L2.21034024,19.8355326 C2.03343653,19.7022795 1.86319171,19.5604088 1.70022242,19.4104344 L0.422427269,19.4104344 Z" id="path1062"></path>
                    <g id="g1569">
                        <path d="M38.2470428,0.000658131163 C38.1516082,-0.00147126069 38.0778637,0.00130289259 38.0419179,0.0128679764 C37.9006353,0.062879128 37.6292251,0.318114258 37.6292238,0.31811427 C37.0753559,0.434390128 36.7407286,0.253937446 36.3594005,0.0226358576 C36.3594005,0.0226358576 36.4407443,0.460297037 36.8770976,0.645338278 C36.4920087,0.802873465 36.3217931,1.12906703 36.2592787,1.53665738 C35.7291662,1.64418222 35.7094454,2.17082936 35.7782113,2.41088281 C35.3443611,2.66969059 35.3875548,3.01323194 35.5413403,3.36080923 C35.1537508,3.62086729 35.2115366,3.99755993 35.3215621,4.28387406 C34.996497,4.48391827 35.3228124,5.03815279 35.3728489,5.36322487 C36.3068046,5.1706824 37.4727677,7.23149053 39.1481347,7.48529715 C39.4632075,6.01371825 39.0687163,5.2935544 38.7061388,4.56714262 C38.9786918,4.40835694 39.2732711,4.18914406 39.5608275,3.95909192 C39.7283662,4.89055007 39.8484914,6.23918145 39.6609506,7.78077553 C39.6484477,7.76827264 39.6367075,7.75909052 39.6292058,7.74658763 C39.5241815,7.74658763 39.4187472,7.67533993 39.3337275,7.64158338 C39.3512316,7.69159368 39.5434235,7.99801333 39.5046645,8.05427633 C39.5046645,8.05427633 38.962128,8.41408294 37.8856393,7.96148114 C37.5980729,8.63413151 33.9027856,10.2862369 33.9027856,10.2862369 C34.0403174,11.3064645 34.5259858,11.9851134 35.0260913,12.5377332 C35.8200247,13.1253689 36.6668315,13.4266397 37.6683029,13.6341777 C37.8783514,14.176803 38.5557153,15.9838817 38.6182298,16.2739487 C38.6857454,16.5640057 38.8477753,16.5645433 38.8477753,16.564542 C38.9440475,16.6945721 39.2596479,17.2699012 39.294656,17.546215 L39.3727991,18.5205613 C39.4065569,18.7431027 39.6987331,18.5747114 39.7537458,18.7647577 L39.6194373,19.4216482 L28.5475449,19.4241488 C28.7025807,18.6489698 28.3083096,17.970258 28.513362,17.2800986 C28.0682592,16.5049295 26.8602264,15.9706261 27.0652738,14.952901 C27.6528995,14.1427239 29.4778423,13.3507047 29.065247,12.3717383 C30.7243702,11.5303 31.5986059,12.9346023 33.1701989,12.8308284 C33.7178254,12.8008214 34.3293829,12.7414952 34.8307387,12.5939574 C34.2106055,12.0563401 33.6170796,11.2662045 33.3045074,10.5597963 C30.0112767,11.8850924 26.8095009,12.9762532 23.2387061,13.7001704 L22.9627637,13.6122626 C22.691451,13.6535221 18.7576999,14.5392355 17.714969,14.9455793 C17.4416474,14.7808833 17.1416625,14.6651863 16.8285343,14.6037029 L16.9188926,14.6037029 C17.2527197,14.6037029 17.7638928,14.4247353 18.1252263,14.2984561 C19.6530692,13.7408373 20.2141563,11.5665451 20.8993045,10.1837367 C21.4994432,12.3342164 22.8925587,12.5098792 23.7002453,12.2423176 L23.7759502,12.9163019 C23.7759502,12.9163019 24.4814657,12.8919712 25.0115882,12.6794309 C24.9578257,12.5519014 24.8857778,12.2101001 24.8357663,11.7612494 C25.1570805,11.594963 25.3317296,11.4726467 25.4780034,11.387628 C25.5217635,11.8977418 25.5523956,12.3791047 25.3998603,12.6379176 L27.2166875,12.1544068 C27.5667583,10.5828057 28.5167628,8.39696336 30.1958906,6.80160786 C27.9416399,5.9051578 26.2536125,6.93119154 25.8247635,7.34128326 C23.7030434,8.01893379 23.6169585,10.9464404 23.6807132,11.9541651 C23.3131383,12.0266806 21.7711122,12.5612974 21.0409435,9.89070026 C21.4660417,8.86547145 22.2736607,7.72474371 23.1801101,6.83579538 C23.2588783,6.76953133 23.1660444,6.66603054 22.9847525,6.77230447 C21.1630917,8.02258413 20.4961302,10.2232338 19.517154,12.081148 C18.7494867,13.2351543 17.7135349,13.8592347 16.159446,13.7929694 C14.2190078,13.7629624 13.280431,11.7395356 12.3914856,10.425492 C11.0286809,7.44107669 7.5030115,8.51127539 4.88242619,7.8736331 C4.73614241,7.79861703 4.44533273,6.93515558 4.02773628,6.96766209 C3.73142784,6.99016729 4.00974462,7.29736825 3.83970535,7.39989093 C3.51087939,7.26236016 3.23398919,7.02099578 2.82140389,7.08976067 C2.56259411,7.1422728 2.49251917,7.41618569 2.5112735,7.65873972 C2.71757115,8.60645162 3.73523747,9.02304222 4.49415276,9.36811893 C4.78547005,9.80321643 4.67565969,11.3059339 4.43310116,11.8222992 C4.12052896,12.397427 2.89188642,12.191908 2.64557952,13.5097002 C2.59806855,13.777262 2.65770733,14.0088392 2.76768273,14.2276398 C2.29071288,14.4785303 1.88687815,14.8487121 1.59553698,15.3021067 C1.07416656,15.4271356 0.563941206,15.5691796 0.0888414667,15.7392189 C-0.0361874127,15.7842293 -0.0346245517,15.8555583 0.127912991,15.8930632 C0.49269725,15.9677679 0.867887662,16.0312164 1.24633508,16.0786536 C1.15882453,16.3603382 1.1119548,16.6530686 1.10714293,16.9479944 C1.16694308,18.6198209 2.53922767,19.9444308 4.21212327,19.9451042 C5.88501886,19.9457775 7.25836936,18.6222728 7.31951537,16.9504949 C7.31951537,16.58292 7.24412295,16.2328979 7.12659956,15.9053323 C7.48418215,15.8428178 7.83645102,15.7696172 8.18153073,15.6733449 C8.34406827,15.6295848 8.33592139,15.5558178 8.20838693,15.5170588 C7.74829066,15.3757762 7.2579724,15.2652619 6.75785688,15.1727406 C6.17907972,14.3401424 5.22976847,13.8431447 4.21576596,13.8418669 C3.81567354,13.8418669 3.43759747,13.9241109 3.09001718,14.0616439 C3.08501603,14.0591433 3.08026493,14.0518917 3.07776435,14.0493911 C2.93384446,13.7909661 2.91938193,13.4800216 3.03869283,13.2093533 C3.35501589,12.6942343 4.05691677,12.493778 4.6332999,12.4450165 C4.82708466,12.4350142 5.29145942,12.4559315 5.34147098,12.5109492 C5.45399697,12.60097 5.64798677,12.6347528 5.85428443,12.5622361 C6.05183005,12.6372534 6.10297437,12.694903 6.32802635,12.7649191 C8.3084738,13.4400651 10.5007289,13.7964074 12.7162207,13.3900635 C13.0625506,13.7176392 13.2550951,14.2940423 13.4976511,14.6916342 C13.5626662,14.7916573 13.6393539,14.6168169 14.730846,14.5793082 C15.1159349,14.5643048 15.5893355,14.5668053 16.0006705,14.5768077 C15.1504842,14.6743302 14.4198954,15.1515892 13.9860452,15.8417486 C13.3033975,16.0592888 12.7770159,16.2662791 12.5794703,16.3863069 C12.3369143,16.5325907 12.2919039,16.6140945 12.5794703,16.6891118 C12.9270506,16.7803829 13.2638959,16.8383263 13.6002136,16.8795858 C13.5777209,17.0171176 13.558704,17.1582627 13.558704,17.3020459 C13.5880661,18.8036791 14.8137687,20.0056494 16.3156889,20.0056494 C17.8176092,20.0056494 19.0433118,18.8036791 19.0726739,17.3020459 C19.0726739,16.8269461 18.9420962,16.3856817 18.7307974,15.9955916 C19.0783777,15.8705627 19.4421042,15.7329335 19.8296837,15.5828988 C20.129753,15.6916739 20.3350155,15.8700751 20.5500651,16.1201329 C20.7251056,16.3176785 21.120862,16.2411358 21.3559163,16.1836226 C21.7372443,16.0835995 21.7955291,15.7802581 21.7930285,15.4339381 C21.7930285,15.2764018 21.8010303,15.1218536 21.8760602,14.9968247 C22.3224133,13.9803499 24.1061165,13.844606 25.0213179,13.6195541 C25.0213179,13.6195541 24.542086,14.195312 24.2032577,14.3228415 C24.1344918,15.8069243 23.5662943,17.097945 23.4975284,18.5132619 C23.9288781,18.5307659 23.9114528,19.0147452 24.0152268,19.2898088 C23.895199,19.5498688 23.686322,19.2902089 23.4975284,19.3777166 C22.8423871,19.0151428 23.6516953,18.4297639 23.1165817,17.9809102 C23.3916352,16.7931458 23.8427257,15.6355922 23.805217,14.3765614 C23.6339274,14.3940654 23.5687949,14.5833479 23.4975284,14.7208797 C23.3762504,15.9123949 23.0310532,17.0002637 22.7209816,18.1030084 C22.8585133,18.1717743 23.1010894,18.2397787 23.0848356,18.4473267 C22.6697397,18.7061365 23.1010894,19.12173 22.9285495,19.4167881 L18.6697671,19.4167881 L18.1984669,19.8441331 L24.7258534,19.8441331 L24.7893431,19.6023785 C23.8266307,18.6021574 24.1891557,17.1015958 24.6354988,15.963843 L25.7563639,14.447379 C26.6878191,14.0847953 27.2571306,12.9467299 28.2398476,12.5841561 C28.2398476,13.0680079 27.6345903,13.2761122 27.3070146,13.5511758 C26.9644355,14.3613629 25.8772118,14.4458849 25.722176,15.3435823 C26.1347713,15.8261937 26.7539669,16.1376919 27.2728267,16.5865456 C27.8079503,16.9153616 27.6143318,17.6040944 28.0469318,17.9491641 C28.1169479,18.0529381 28.0473619,18.2072125 27.9248286,18.2934824 C27.4709737,18.4022575 27.4849607,18.7099748 27.7587739,18.9650238 C27.9338144,19.1275613 28.1329229,19.3392127 28.1104177,19.4192312 L25.0970266,19.4192312 C25.0970266,19.5567629 25.2209053,19.6090888 25.3534334,19.8441331 L41.9954674,19.8441331 C42.1204962,19.6090888 41.8480108,19.3306357 41.7317339,19.0993323 C40.5564725,18.6554898 40.5624214,17.5456434 40.4936555,16.3203704 C40.5061584,16.2703588 40.4274277,16.1529092 40.4399306,15.9003509 C40.2649001,15.735323 39.4903175,13.7691651 39.8416486,12.2300694 L40.0980553,11.7245816 C40.3393611,11.3782536 40.0830519,11.1921509 40.2543414,10.8308204 L43.763452,10.1543947 C43.8259664,10.1218872 43.8077372,9.97765359 43.7414719,9.91263957 L42.6767772,10.1104151 C41.8303417,9.75408583 40.5885111,8.96697802 39.7708323,7.8979901 C40.0246409,6.16510384 39.8981667,4.76005117 39.7268721,3.82234158 C40.2394805,3.39724739 40.6572633,2.99451374 40.6572633,2.99451374 C41.011085,3.20706084 41.0871275,3.10709725 41.1358888,2.99207568 C41.0796258,2.92706066 40.5563412,2.70437048 40.6426111,2.47681992 C40.9739277,2.56433888 41.0479973,2.46162015 41.0992591,2.27657829 L40.86483,2.19355161 L40.8574532,2.19355161 L40.8965248,2.06901159 C40.9640404,1.93148083 41.2746584,2.06251009 41.3946861,2.02749826 C41.6034843,1.8999698 41.3710681,1.70675905 41.4410843,1.53422019 C40.9534717,1.12162839 40.0738535,1.10976361 39.5412305,0.725928055 C39.3762586,0.418354761 39.3084505,0.289298014 39.1359206,0.164270135 C39.0027649,0.0704992256 38.5333389,0.0070462692 38.2470428,0.000658131163 Z M38.4546107,0.53544962 C38.5328163,0.537195024 38.6343435,0.57514654 38.6670623,0.598940911 C38.7083218,0.63019788 38.674439,0.756672956 38.6719384,0.799182475 C38.6719384,0.841692044 38.4814644,0.931048871 38.4814644,0.931048871 C38.4814644,0.931048871 38.303142,0.792852588 38.3056426,0.750343069 L38.2958903,0.747901255 C38.3253161,0.677247301 38.3595846,0.608709179 38.3984515,0.54277575 C38.4054531,0.540431459 38.4146303,0.538996127 38.4228697,0.537892122 C38.432872,0.536558064 38.4434494,0.53520025 38.4546145,0.535450308 L38.4546107,0.53544962 Z M40.31295,1.85411358 C40.4018205,1.84354864 40.581527,1.91186192 40.6597101,1.93225663 C40.7122222,1.94475952 40.6932928,2.05689542 40.6670868,2.1569179 C40.5370567,2.18442425 40.3331721,2.11335284 40.3056758,2.04458695 C40.2684422,1.970111 40.2171428,1.89191144 40.2885844,1.85899734 C40.2950859,1.85653427 40.3047256,1.85509643 40.3130025,1.85410871 L40.31295,1.85411358 Z M40.122476,2.35471746 C40.1900791,2.35259197 40.2536588,2.35731806 40.3056245,2.37181141 C40.3306178,2.5180942 40.3902941,2.68633819 40.4765615,2.81136606 C40.4740609,2.87888041 40.1055683,3.21806363 39.6804801,3.5781448 C39.5754559,3.05677837 39.4686137,2.69993308 39.4436079,2.55740115 C39.5754746,2.46363074 39.8810315,2.36232872 40.122476,2.35471746 Z M39.2506934,2.63310164 C39.2506934,2.63310164 39.3855283,3.03991986 39.5193092,3.70756907 C39.1942441,3.97887974 38.8579264,4.24361189 38.6328744,4.3986467 C38.3978201,3.92353996 38.2067997,3.41954729 38.2568113,2.68438348 C38.4843539,2.68063262 38.8143426,2.83064577 39.2506934,2.63310164 L39.2506934,2.63310164 Z M3.04115715,7.34122088 C3.16418556,7.34493423 3.305682,7.40979296 3.40256813,7.45355182 C3.53384845,7.52231771 4.56691082,8.07932249 4.84821454,8.15683927 C6.93618557,8.6769549 9.57371229,7.90923695 11.2290834,9.40957 C11.3103522,9.48458733 11.3711175,9.55732013 11.3536247,9.66109297 C8.9243248,8.00572486 5.26498831,10.4522902 3.05825109,8.15928083 C2.90321528,7.95173514 2.67439243,7.63566164 2.85068315,7.41936392 C2.89944441,7.35935006 2.9673476,7.33899411 3.04115715,7.34122088 Z M26.1519641,7.69042253 C25.2292522,8.61813594 25.3460354,10.0042785 25.4535602,11.0945292 C25.2410111,11.2495649 24.9789194,11.3780128 24.8088801,11.4730346 C24.708857,10.1352269 24.8529153,8.14052612 26.1519641,7.69042253 Z M40.0736372,8.69163042 C40.5237362,9.18299191 41.5984031,9.92765904 42.286062,10.1714644 L40.295856,10.5402019 C40.520908,9.69626047 39.7535633,9.3742856 40.0736372,8.69163042 Z M5.02159459,10.8332383 L5.02409517,10.8332383 C5.19662377,10.9370111 5.26383804,11.2129952 5.45388194,11.3680299 C5.76394231,11.8856449 6.35014271,12.0583861 6.66021433,12.5059883 C6.5553885,12.5135908 6.45001548,12.5053587 6.34764213,12.4815689 C6.14509535,12.4415597 6.06591706,12.3832062 5.89587778,12.308189 C5.80585699,12.1619064 5.5801411,12.1130475 5.40260009,12.2080684 C5.26131746,12.2330742 4.86901935,12.2133446 4.60895928,12.1445775 C4.65897083,11.7294861 5.05916077,11.3333505 5.0216521,10.8332383 L5.02159459,10.8332383 Z M35.5877373,12.4498227 C36.7167431,12.9699418 37.2870798,12.8502666 38.13227,12.7477429 C38.253548,12.9027787 38.417981,13.0469333 38.417981,13.2532309 C37.3839972,13.5470488 36.5802465,13.1673236 35.6487864,12.6647163 L35.651287,12.6622157 C34.9386274,12.3046331 35.3814984,12.6048024 35.5877973,12.449764 L35.5877373,12.4498227 Z M38.3935616,13.4876307 C38.5432312,13.4907858 38.669953,13.6973373 38.7842769,14.1640863 C38.9430611,14.7117103 39.1349629,15.1643386 39.2799964,15.6219418 C39.4725409,16.0820481 39.6184146,16.6937331 39.7659486,17.0163076 C39.7659486,17.0163076 39.8961149,17.0403132 39.9686317,17.2141071 C40.3312154,18.2268385 40.4254947,18.3895936 40.3642306,18.8722051 C40.4517508,19.2510401 40.9844138,18.9418336 40.9356526,19.4094379 L39.8050202,19.4094379 L40.3031815,19.4045618 C39.9606048,19.041978 40.2022207,18.5038437 39.7171086,18.2275324 C39.6508433,17.6799059 39.6204613,17.2922764 39.3679079,17.030966 C39.1678617,16.4858426 38.5863787,14.970195 38.1737834,13.6048822 C38.2519264,13.5275143 38.3255297,13.4862173 38.3935616,13.4876307 L38.3935616,13.4876307 Z M22.0470121,14.3203724 C21.4368712,14.7604653 21.7237537,15.2788551 21.3461665,15.382629 C21.2086347,15.3626244 20.4405661,15.5034319 20.3205384,15.5584509 C20.0617373,15.3171452 19.7975075,15.114032 19.3999157,15.0090077 C20.1563404,14.6989361 21.3568527,14.3903886 22.0470121,14.3203724 L22.0470121,14.3203724 Z M4.17911499,14.3399144 C4.1882421,14.3394568 4.19675657,14.3399144 4.2059712,14.3399144 C4.42351394,14.3399144 4.63101062,14.3729346 4.83355741,14.4229461 L4.83355741,14.4254467 C4.87981809,14.4592045 4.94313272,14.5934543 4.90437376,14.7184831 L4.81890402,14.9553541 C4.5876006,14.9453518 4.35912282,14.9333115 4.1278269,14.9358121 C4.06781303,14.9358121 4.01082487,14.9480649 3.94956197,14.9480649 L3.89096093,14.628166 C3.86845574,14.4806319 3.93738416,14.3857475 3.9886335,14.361992 C4.05427366,14.3564908 4.11526274,14.3432127 4.17910749,14.340012 L4.17911499,14.3399144 Z M3.49780512,14.4498023 C3.55406812,14.4560538 3.66196429,14.5420486 3.69072093,14.6695806 L3.72735439,14.8722637 C3.59953137,14.7546187 3.4818968,14.6263641 3.37571067,14.4888738 L3.49780512,14.4498023 Z M5.31463103,14.598763 C5.31850692,14.5988518 5.3210075,14.6006384 5.32438328,14.6012636 C5.5669393,14.7175404 5.79230386,14.8680439 5.9885992,15.0505861 C5.67073284,15.0092673 5.35142208,14.9799439 5.03134684,14.9626783 L5.09483651,14.7819728 C5.14641092,14.6483482 5.25589746,14.5974927 5.31461352,14.5988255 L5.31463103,14.598763 Z M3.04359896,14.6256192 C3.1511238,14.7481475 3.27486363,14.8694455 3.40989482,14.9894732 C3.16733879,15.0119784 2.92587677,15.0398724 2.68707161,15.077381 C2.63706006,14.9798585 2.63514712,14.8901115 2.66265347,14.857604 C2.7814309,14.7700838 2.90856902,14.6931323 3.04360021,14.6256167 L3.04359896,14.6256192 Z M16.3840791,15.0138851 C16.621634,15.0201366 16.8479563,15.0659096 17.0605054,15.1384264 C16.8104476,15.1709214 16.563378,15.2106306 16.3108197,15.255641 L16.3083191,15.1677332 C16.3058185,15.115221 16.3440149,15.0226409 16.3840241,15.0138889 L16.3840791,15.0138851 Z M16.0470875,15.0358652 L16.0519636,15.0358652 C16.0894723,15.0508687 16.1252181,15.1311747 16.1252181,15.1799422 L16.1325948,15.2898301 C15.7575081,15.3623469 15.3887317,15.444007 15.0361503,15.5340278 C15.0136451,15.4877671 15.0027425,15.4320542 15.0214969,15.4070447 C15.3215662,15.2032476 15.6720384,15.078375 16.047125,15.0358652 L16.0470875,15.0358652 Z M4.13515609,15.1530798 C4.34145374,15.1530798 4.54310157,15.1603314 4.74564835,15.1653326 L4.44773204,15.9931213 L4.44523146,15.9931213 C4.34609606,15.9956219 4.25137418,16.0016233 4.15463684,16.0028736 L4.14976071,16.0028736 L3.99347461,15.1652776 C4.04348617,15.162777 4.08634606,15.1567756 4.13510858,15.1530248 L4.13515609,15.1530798 Z M4.95809992,15.1701712 C5.31568252,15.1826741 5.66234509,15.206042 5.98616989,15.2385495 C5.97116642,15.2823096 5.95767581,15.3280827 5.92268022,15.3630908 L5.92017965,15.3630908 L5.2168922,15.961374 C5.03685812,15.9738769 4.85368331,15.9807284 4.66989085,15.9882302 L4.95809992,15.1701712 Z M3.78595418,15.1775479 L3.93979847,16.0029336 C3.79601525,16.0054341 3.65141185,16.0054341 3.50512806,16.0029336 L2.83114739,15.2654145 C3.14121901,15.2279058 3.45713198,15.1987491 3.78595793,15.1775067 L3.78595418,15.1775479 Z M18.5208027,15.2825472 C18.9648252,15.2769209 19.3268288,15.3168926 19.5635248,15.4144139 C19.4322444,15.4769283 19.0825149,15.6132286 18.611156,15.7782667 C18.4937966,15.6015884 18.3561055,15.4392954 18.2009088,15.2947187 C18.3115593,15.2888424 18.4183402,15.2838412 18.5208064,15.2824659 L18.5208027,15.2825472 Z M2.59183086,15.2996386 L3.22918558,16.0029261 C2.7690793,15.9991752 2.32453537,15.9779578 1.90319555,15.9492012 C1.87068804,15.9041908 1.85293394,15.861881 1.86168596,15.8368752 C1.94295473,15.6668359 2.04094612,15.5106674 2.1547224,15.3631333 C2.29600503,15.3381275 2.44430053,15.318398 2.59183461,15.2996436 L2.59183086,15.2996386 Z M17.4414521,15.3631283 C17.4374226,15.4013409 17.4266759,15.4385415 17.4097073,15.4730162 L16.8431689,16.3325897 C16.6756377,16.3826013 16.5219622,16.4220604 16.369427,16.4595715 L16.3254756,15.5389151 C16.7080639,15.4663984 17.082623,15.4056031 17.4414558,15.3630933 L17.4414521,15.3631283 Z M6.87016282,15.3656289 C7.10521712,15.4106393 7.320098,15.4583253 7.50263266,15.5145895 L7.50513324,15.5170901 C7.60265577,15.5483473 7.63623852,15.6127622 7.51250994,15.646515 C7.38247991,15.6815106 7.22298932,15.7080542 7.07295467,15.7393114 C7.01669167,15.6067808 6.94278835,15.4869681 6.8702716,15.3656901 L6.87016282,15.3656289 Z M6.24501843,15.4388833 C6.2998686,15.4365077 6.34171576,15.4536867 6.35734437,15.4730662 L6.35984495,15.4730662 C6.43736286,15.5855922 6.50007234,15.7058149 6.5600862,15.8295935 C6.247514,15.8758542 5.91384318,15.909537 5.56376232,15.9370433 L6.05948182,15.5121415 C6.12199626,15.4621299 6.19021577,15.4412251 6.24507219,15.438887 L6.24501843,15.4388833 Z M17.6905334,15.4926082 C17.6967848,15.4920993 17.7022861,15.4915142 17.7076248,15.4926082 C17.8701624,15.6201376 18.0197082,15.7683156 18.144737,15.934604 C17.8071591,16.04713 17.4569219,16.1543623 17.1093416,16.2593866 L17.561106,15.5731931 C17.582986,15.5370972 17.6463882,15.4961628 17.6905309,15.4926119 L17.6905334,15.4926082 Z M1.47585059,15.4951088 C1.40677287,15.6235942 1.34640187,15.7565736 1.2951451,15.8931495 C1.1163538,15.8718946 0.932365055,15.8510897 0.7823304,15.8223331 C0.654800943,15.7998404 0.686058162,15.7279238 0.7823304,15.6929095 C0.977375451,15.6228933 1.21328994,15.5576245 1.47585059,15.4951088 Z M16.1472081,15.5732518 L16.1887177,16.5060848 C16.0636889,16.5360792 15.9604425,16.5557087 15.854168,16.5744631 L15.2192551,15.7783805 C15.5268261,15.7033631 15.8371328,15.6345197 16.1472044,15.5732556 L16.1472081,15.5732518 Z M15.0263442,15.8223319 L15.6514886,16.611089 L15.6221819,16.6159652 C15.2170883,16.6659767 14.8381658,16.6891071 14.4793404,16.6941082 L14.2913082,16.6452719 L14.2913082,16.6477725 C14.2412967,16.632769 14.1667044,16.5657411 14.169205,16.5232312 C14.2404715,16.3281937 14.3312537,16.1449601 14.4500311,15.9786717 C14.6375744,15.9249218 14.832542,15.8723972 15.0263367,15.8223856 L15.0263442,15.8223319 Z M6.62352336,15.9737343 C6.66478289,16.0800089 6.69490234,16.1884327 6.72364648,16.3009587 C6.72139596,16.3614101 6.63706398,16.466757 6.50875435,16.4914327 L4.99473339,16.7281548 C4.97623979,16.7309171 4.95820056,16.7208971 4.95077323,16.7037367 C4.93487365,16.6512199 4.91359777,16.6004837 4.88728357,16.5523342 C4.87478068,16.5360805 4.88090709,16.5197517 4.89466027,16.5034979 L5.34398281,16.1176676 C5.77408215,16.0851601 6.20098576,16.0360987 6.62357462,15.9735905 L6.62352336,15.9737343 Z M5.00205508,16.1446726 L4.76518411,16.3449138 C4.75268123,16.3574167 4.7313513,16.3622928 4.71634783,16.3497899 C4.68219206,16.3186218 4.64449148,16.2915759 4.60402189,16.2692088 C4.58401727,16.2592065 4.57942871,16.2440655 4.58693044,16.2228106 L4.60647245,16.1642096 L5.00205508,16.1446726 Z M18.2790481,16.1446726 C18.3159941,16.2062493 18.3518399,16.2687387 18.3816093,16.3327047 C18.3816093,16.3764648 18.3130934,16.4458184 18.2668327,16.4645702 L18.3547405,16.4352634 L16.9506075,16.962729 C16.935604,16.9689805 16.9142116,16.9508513 16.9042092,16.9383109 C16.8731878,16.895736 16.839759,16.8549684 16.8040861,16.8162077 C16.7878449,16.8037048 16.7758546,16.7677215 16.782106,16.752718 L16.9042092,16.5695707 C17.3318143,16.4569009 17.7914392,16.3120625 18.2790518,16.1445238 L18.2790481,16.1446726 Z M2.34519514,16.1640595 C2.695276,16.1840642 3.0463621,16.1933663 3.3976845,16.1933663 L3.59060031,16.4058166 C3.60310319,16.4183195 3.6091796,16.4469761 3.59797701,16.4619796 C3.56673229,16.4994883 3.55460449,16.5109534 3.52959872,16.5572141 C3.5208467,16.5747181 3.49831649,16.5769312 3.47831187,16.5694669 L2.34519514,16.1640595 Z M13.7980368,16.1738118 C13.7267703,16.3338488 13.6720502,16.5018763 13.6295404,16.6744162 C13.4184157,16.6583661 13.2091792,16.6232227 13.004396,16.5694169 L13.004396,16.5669163 C12.8818677,16.5294077 12.9110869,16.4931618 12.984854,16.4619046 C13.2311608,16.3643821 13.5079635,16.2675234 13.7980305,16.1737518 L13.7980368,16.1738118 Z M3.95689616,16.1884652 L3.95689616,16.1909657 C3.9531453,16.1959669 3.95464564,16.2055566 3.94714391,16.2080572 C3.89503444,16.227126 3.84510054,16.2516822 3.79818451,16.2813116 C3.78068046,16.2938145 3.76185111,16.2853125 3.74934822,16.2715594 L3.67853187,16.1934163 C3.77105324,16.1909157 3.86564509,16.1922823 3.95691617,16.1885402 L3.95689616,16.1884652 Z M1.86168596,16.2422026 C1.89936966,16.2392019 1.93905383,16.243953 1.97890053,16.256856 L3.407453,16.7672276 C3.42370676,16.7722288 3.44051064,16.7899829 3.43675977,16.8087372 C3.42778495,16.8554354 3.42288208,16.9028247 3.42210639,16.9503712 C3.42210639,16.9703758 3.4078656,16.9807532 3.39036156,16.9870046 L1.89587511,17.2653889 C1.74834103,17.2866438 1.64606366,17.2152773 1.6248175,17.1652658 C1.61856605,17.0902485 1.60283742,17.0205061 1.60283742,16.9454888 C1.60283742,16.7291888 1.63579503,16.5204494 1.68830716,16.3179026 C1.70807423,16.2860952 1.77879056,16.2488866 1.86168721,16.2421976 L1.86168596,16.2422026 Z M18.371847,16.6255924 C18.4184953,16.6220916 18.4753834,16.6314687 18.4988288,16.6548992 C18.5575924,16.8599465 18.598952,17.0720855 18.598952,17.2971375 C18.598952,17.4471722 18.5824982,17.5977932 18.5549918,17.7415764 C18.5293484,17.7770096 18.4304255,17.7904127 18.3816118,17.7782099 L17.0263187,17.4021455 C17.010065,17.3983946 17.0019006,17.3708133 17.0019006,17.3533092 C17.0018997,17.3524757 17.0018997,17.3516422 17.0019006,17.3508087 C17.0018997,17.3499751 17.0018997,17.3491416 17.0019006,17.3483081 C17.0018997,17.3474745 17.0018997,17.346641 17.0019006,17.3458075 C17.0019014,17.344974 17.0019014,17.3441404 17.0019006,17.3433069 C17.0019014,17.3424734 17.0019014,17.3416399 17.0019006,17.3408063 C17.0019014,17.3399728 17.0019014,17.3391393 17.0019006,17.3383058 C17.0018997,17.3374722 17.0018997,17.3366387 17.0019006,17.3358052 C17.0018997,17.3349717 17.0018997,17.3341381 17.0019006,17.3333046 C17.0018997,17.3324711 17.0018997,17.3316376 17.0019006,17.330804 C17.0019014,17.3299705 17.0019014,17.329137 17.0019006,17.3283035 C17.0019014,17.3274699 17.0019014,17.3266364 17.0019006,17.3258029 C17.0019014,17.3249694 17.0019014,17.3241358 17.0019006,17.3233023 C17.0018997,17.3224688 17.0018997,17.3216352 17.0019006,17.3208017 C17.0018997,17.3199682 17.0018997,17.3191347 17.0019006,17.3183011 C17.0018997,17.3174676 17.0018997,17.3166341 17.0019006,17.3158006 C17.0019014,17.314967 17.0019014,17.3141335 17.0019006,17.3133 C17.0010683,17.3124652 17.0002348,17.3116317 16.9994,17.3107994 C16.9993991,17.3099659 16.9993991,17.3091324 16.9994,17.3082988 C16.9993991,17.3074653 16.9993991,17.3066318 16.9994,17.3057983 C16.9993991,17.3049647 16.9993991,17.3041312 16.9994,17.3032977 C16.9994009,17.3024642 16.9994009,17.3016306 16.9994,17.3007971 C16.9994009,17.2999636 16.9994009,17.29913 16.9994,17.2982965 C16.9994009,17.297463 16.9994009,17.2966295 16.9994,17.2957959 C16.9993991,17.2949624 16.9993991,17.2941289 16.9994,17.2932954 C16.9993991,17.2924618 16.9993991,17.2916283 16.9994,17.2907948 C16.9993991,17.2899613 16.9993991,17.2891277 16.9994,17.2882942 C16.9994009,17.2874607 16.9994009,17.2866272 16.9994,17.2857936 C16.9994009,17.2849601 16.9994009,17.2841266 16.9994,17.2832931 C16.9994009,17.2824595 16.9994009,17.281626 16.9994,17.2807925 C16.9993991,17.279959 16.9993991,17.2791254 16.9994,17.2782919 C16.9993991,17.2774584 16.9993991,17.2766248 16.9994,17.2757913 C16.9993991,17.2749578 16.9993991,17.2741243 16.9994,17.2732907 C16.9994009,17.2724572 16.9994009,17.2716237 16.9994,17.2707902 C16.9994009,17.2699566 16.9994009,17.2691231 16.9994,17.2682896 C16.9994009,17.2674561 16.9994009,17.2666225 16.9994,17.265789 C16.9985746,17.2633274 16.9977411,17.2608685 16.9968994,17.2584123 C16.9969003,17.2575788 16.9969003,17.2567453 16.9968994,17.2559117 C16.9969003,17.2550782 16.9969003,17.2542447 16.9968994,17.2534112 C16.9969003,17.2525776 16.9969003,17.2517441 16.9968994,17.2509106 C16.9968985,17.2500771 16.9968985,17.2492435 16.9968994,17.24841 C16.9968985,17.2475765 16.9968985,17.2467429 16.9968994,17.2459094 C16.9968985,17.2450759 16.9968985,17.2442424 16.9968994,17.2434088 C16.9969003,17.2425753 16.9969003,17.2417418 16.9968994,17.2409083 C16.9969003,17.2400747 16.9969003,17.2392412 16.9968994,17.2384077 C16.9969003,17.2375742 16.9969003,17.2367406 16.9968994,17.2359071 C16.996074,17.2334455 16.9952405,17.2309865 16.9943988,17.2285304 C16.9943997,17.2276969 16.9943997,17.2268634 16.9943988,17.2260298 C16.9943997,17.2251963 16.9943997,17.2243628 16.9943988,17.2235293 C16.9943979,17.2226957 16.9943979,17.2218622 16.9943988,17.2210287 C16.9943979,17.2201951 16.9943979,17.2193616 16.9943988,17.2185281 C16.9943979,17.2176946 16.9943979,17.216861 16.9943988,17.2160275 C16.9943997,17.215194 16.9943997,17.2143605 16.9943988,17.2135269 C16.9943997,17.2126934 16.9943997,17.2118599 16.9943988,17.2110264 C16.9935666,17.2101916 16.992733,17.2093581 16.9918983,17.2085258 C16.9918974,17.2076923 16.9918974,17.2068587 16.9918983,17.2060252 C16.9918974,17.2051917 16.9918974,17.2043582 16.9918983,17.2035246 C16.9918974,17.2026911 16.9918974,17.2018576 16.9918983,17.2010241 C16.9918991,17.2001905 16.9918991,17.199357 16.9918983,17.1985235 C16.9918991,17.19769 16.9918991,17.1968564 16.9918983,17.1960229 C16.9918991,17.1951894 16.9918991,17.1943558 16.9918983,17.1935223 C16.9881474,17.1760183 16.9963993,17.1375344 17.0114403,17.1300327 L18.3303337,16.6329178 C18.3419613,16.6285418 18.3563022,16.6267914 18.3718432,16.6255411 L18.371847,16.6255924 Z M6.57224651,16.6915326 C6.70636499,16.6841559 6.7901681,16.7484833 6.80423385,16.7965319 C6.80673442,16.8465434 6.81648668,16.8979178 6.81648668,16.9479343 C6.81648668,17.1642343 6.78471684,17.3729738 6.733455,17.5755206 L6.73095442,17.5755206 C6.7109498,17.6230315 6.58146614,17.6937354 6.44768524,17.6512255 L5.00448064,17.1335285 C4.98823939,17.1285273 4.97267329,17.1083226 4.97517387,17.0895683 C4.9826756,17.0420573 4.9874267,17.0187269 4.9874267,16.9674651 C4.9874267,16.9474605 5.00655612,16.9370831 5.02406016,16.9308316 L6.54540656,16.6939607 C6.55478373,16.6927892 6.5633232,16.6919602 6.57226276,16.6914601 L6.57224651,16.6915326 Z M15.7931264,16.8233993 C15.7906258,16.8321514 15.7932426,16.8403157 15.7882502,16.8478175 C15.7584488,16.8907554 15.7315293,16.9356234 15.7076691,16.982126 C15.7001674,16.9983797 15.670248,17.02126 15.6515061,17.0187595 L15.1948569,16.8942182 C15.3891518,16.8742886 15.5876927,16.8581474 15.7931401,16.8234018 L15.7931264,16.8233993 Z M14.0617689,16.9235225 C14.2468117,16.9335248 14.4370119,16.9321494 14.6283061,16.9283986 L15.5977687,17.1945738 C15.6102716,17.1983247 15.6197488,17.2259061 15.6197488,17.2434101 C15.6197488,17.2809188 15.6280007,17.380363 15.6392908,17.4241156 C15.6392908,17.4416196 15.6249875,17.4569482 15.6099841,17.4631871 L14.3157401,18.0346091 C14.2682291,18.0533634 14.1760003,18.0524632 14.1472437,18.0199557 C14.0667498,17.7889851 14.0238744,17.5465855 14.0202556,17.3020174 C14.0202556,17.1719873 14.0368845,17.0472323 14.0568891,16.9259543 L14.0617689,16.9235225 Z M3.42210514,17.1921395 C3.44076671,17.1883787 3.45939687,17.1987271 3.46606529,17.2165576 C3.48106876,17.2590675 3.48739522,17.2789971 3.51490157,17.3240075 C3.52365359,17.3415115 3.5189025,17.3578403 3.50264874,17.3728437 L2.31829268,18.3276543 C2.19076322,18.4239265 2.05407165,18.4017964 2.02281443,18.3642877 C1.88754264,18.1455712 1.78394978,17.9087878 1.71512586,17.6610003 C1.72012701,17.6047373 1.80612188,17.4919563 1.93490287,17.4631996 L3.42210514,17.1921395 Z M4.90926489,17.324005 C4.91789189,17.3220045 4.92736908,17.3238887 4.9361211,17.3288811 L6.38665114,17.8441364 C6.5366858,17.9028999 6.57497589,18.0212873 6.562473,18.0687982 C6.44974419,18.298829 6.3050491,18.5117608 6.13268623,18.7012681 L6.1278101,18.7012681 C6.08154942,18.7300247 5.93342896,18.7193973 5.8396573,18.623125 L4.82868003,17.4924914 C4.81617714,17.4799885 4.81003822,17.4550202 4.8238039,17.4387665 C4.84976947,17.409083 4.87191753,17.3762663 4.88973163,17.3410814 C4.89410764,17.3317042 4.90073417,17.3260154 4.90927365,17.32399 L4.90926489,17.324005 Z M3.65409122,17.5242475 C3.66296827,17.5229972 3.67038249,17.526498 3.67850936,17.5339997 C3.71226716,17.5652569 3.76780499,17.6042284 3.81281789,17.6292342 C3.83155971,17.6392365 3.83747358,17.6555653 3.82747127,17.6780705 L3.31465782,19.1041799 C3.25964511,19.2479631 3.14370083,19.3046562 3.09243899,19.2946539 C2.81668078,19.1635603 2.56555804,18.985957 2.35008002,18.7696301 C2.32409902,18.7248448 2.34407863,18.5703466 2.44776508,18.4839204 L3.62967808,17.5388771 C3.63592953,17.5301251 3.64519417,17.525474 3.65409622,17.5242237 L3.65409122,17.5242475 Z M16.9701557,17.5755218 C16.9727813,17.5750805 16.9751569,17.5752092 16.9775324,17.5755218 L18.3401522,17.9515862 C18.382662,17.9640891 18.452128,18.0104498 18.4671353,18.0517093 C18.3508584,18.3767769 18.17359,18.676111 17.9347848,18.9161665 C17.8972761,18.9386717 17.8037395,18.8901855 17.7687314,18.8526768 L16.8481088,17.7806517 C16.8356059,17.7706494 16.8454832,17.7431805 16.8554855,17.7269268 C16.8800585,17.6902195 16.9020861,17.6518708 16.9214132,17.6121503 C16.92904,17.597922 16.9520703,17.5786175 16.9702495,17.5755168 L16.9701557,17.5755218 Z M4.63087934,17.6121553 C4.64430744,17.6100298 4.65813564,17.6189068 4.6675128,17.6292467 L5.68581426,18.7501106 C5.78583737,18.8676378 5.78306172,19.0018875 5.74930393,19.043147 C5.49924617,19.2256892 5.21677842,19.3622445 4.91170796,19.4485144 C4.85669525,19.4410127 4.75124089,19.3562056 4.72123396,19.2311792 L4.44529147,17.7391358 C4.44029032,17.7203815 4.44854223,17.6953507 4.46727155,17.687849 C4.51951777,17.6711903 4.56953984,17.6482284 4.61623221,17.6194707 C4.62035816,17.616345 4.62635955,17.6128442 4.63088559,17.612094 L4.63087934,17.6121553 Z M15.7003312,17.6536649 C15.7131091,17.6566655 15.7294629,17.6711439 15.7369646,17.6805336 C15.7594698,17.7080399 15.7911772,17.7493995 15.8224344,17.7806567 C15.8374378,17.7931596 15.8519162,17.8292054 15.8444145,17.8417083 L15.0678688,19.0260631 C15.0403625,19.0685729 14.9564806,19.1118204 14.9164664,19.0993175 C14.6488912,18.8920973 14.4311119,18.6275919 14.2791117,18.3252137 L14.2766111,18.3252137 C14.2766111,18.2827039 14.3451769,18.218239 14.388937,18.1982306 L15.6880646,17.6561129 C15.6911903,17.6542375 15.6960664,17.6526121 15.7003174,17.6536123 L15.7003312,17.6536649 Z M4.05213316,17.722043 C4.05438368,17.7220231 4.05713432,17.7240436 4.05950987,17.7245437 C4.10577055,17.7332957 4.14738016,17.7367966 4.20114383,17.7367966 C4.22239874,17.7367978 4.23402643,17.7534254 4.23777729,17.77343 L4.51616284,19.2679165 C4.53865554,19.4116997 4.47337796,19.5065266 4.42336641,19.5365335 C4.35335024,19.5415347 4.28343159,19.5560755 4.21091484,19.5560755 C3.98961372,19.5560755 3.77979901,19.5219301 3.57600194,19.4681677 L3.57350136,19.4681677 C3.52599038,19.4394111 3.4602377,19.3124292 3.50024694,19.1848998 L4.01794402,17.7514624 C4.02232003,17.7350462 4.03614822,17.7222932 4.05212691,17.7221557 L4.05213316,17.722043 Z M16.6746775,17.8929801 C16.6878055,17.8925188 16.7001709,17.8940554 16.7064223,17.9003568 L17.6319286,18.972382 C17.6636234,19.011391 17.6951682,19.0969232 17.6734382,19.1335517 L17.6709376,19.1360523 C17.3589055,19.3686972 16.9846041,19.5160225 16.5769349,19.5633972 C16.5369257,19.5508943 16.5012924,19.469338 16.4987919,19.4193214 L16.4328641,18.0103035 C16.4303636,17.9953125 16.4569322,17.9799215 16.4719357,17.97367 C16.5069312,17.9611671 16.6016719,17.9229208 16.6404308,17.9004156 C16.6479326,17.8960396 16.6614857,17.893539 16.6746137,17.8930389 L16.6746775,17.8929801 Z M16.0104616,17.9369403 C16.0225894,17.9343147 16.0385931,17.9362564 16.0495331,17.9394409 C16.0820406,17.9494432 16.1571704,17.9698229 16.2009356,17.9760743 C16.2184396,17.9760743 16.2522224,18.0013302 16.2522224,18.0175839 L16.3206007,19.4314842 C16.3231013,19.4814958 16.2812791,19.567942 16.2400196,19.5804449 L16.2425202,19.5829455 C15.8674335,19.5704426 15.5183879,19.4636429 15.2095666,19.2923509 C15.1845608,19.2573428 15.1930252,19.1651077 15.2218194,19.1238557 L15.9934814,17.9468251 C15.9963571,17.942074 16.0032336,17.9385732 16.0105728,17.9370728 L16.0104616,17.9369403 Z" id="path184"></path>
                        <path d="M37.5960137,7.74649024 C36.6958057,7.12634699 35.9981446,5.68351373 35.0166679,5.78103625 C34.9216459,4.71829078 34.4577888,2.91412405 35.9256278,1.01118451 C36.1156717,0.923664291 36.4257434,0.889906493 36.5457711,0.751124437 C35.9456325,0.688609998 35.1554499,1.05994577 34.5828177,0.734870683 C34.5828177,0.734870683 34.8478789,1.19747754 35.1554499,1.26749371 C34.9529032,1.54255724 34.5603125,1.73885258 34.7991176,2.21771319 C34.3090044,2.50903048 34.4940472,2.94538127 34.6453321,3.18043556 C34.4002755,3.4329939 34.2514911,3.88684873 34.5765662,4.16316255 C34.1764738,4.59201161 34.6728385,4.95584565 34.7891153,5.10087915 C34.5865685,5.5297282 34.7816136,5.86105473 34.7816136,5.86105473 C34.7741119,6.16987607 34.2239848,6.61122801 34.0251889,6.75376093 C33.787634,7.47892843 33.8789051,8.93801545 33.9151635,9.90448869 C35.2529725,9.26434083 36.5657757,8.6541999 37.5960137,7.74523995 L37.5960137,7.74649024 Z" id="path1028"></path>
                        <path d="M27.6899756,12.066238 C29.8279694,11.4660994 31.3033102,10.953481 33.0749694,10.2095592 C32.337299,8.63419528 32.4998365,8.17909016 32.562351,7.17135739 C32.562351,7.17135739 31.6621431,7.18386028 30.6156513,6.90629617 C29.3753649,7.70648099 27.9275304,10.5696423 27.6899756,12.0649877 L27.6899756,12.066238 Z" id="path1024"></path>
                        <path d="M33.4638092,10.0032615 C33.4100468,9.26559112 33.713867,8.64044672 33.3700375,7.85276478 C33.3737884,7.5276897 33.601341,7.27763194 33.5400768,6.97756263 L32.9811977,7.11259382 C32.8961781,7.73273706 32.7936544,7.93778442 32.8774238,8.52166929 C33.0249578,9.19057379 33.0999752,9.79946443 33.4625589,10.0045118 L33.4638092,10.0032615 Z" id="path1022"></path>
                    </g>
                    <g id="g1563" transform="translate(42.3364, 7.0091)">
                        <path d="M4.33667291,1.27876024 C4.28416078,1.32252035 4.26665674,1.38253421 4.30916656,1.39128624 C4.38918504,1.4062897 4.43419544,1.43379605 4.52671681,1.51881569 C4.57672836,1.54382147 4.56422547,1.46630356 4.55172259,1.42379374 C4.50171103,1.30376602 4.39668678,1.23124927 4.33917349,1.27876024 L4.33667291,1.27876024 Z" id="path1214"></path>
                        <path d="M5.21207011,0 C4.99451986,0.120035601 4.85026779,0.363920559 4.45017538,0.673991679 C4.43767249,0.690245434 3.96875543,0.511747579 3.8274728,0.661776358 C3.68994103,0.774302349 3.73852725,1.13702338 3.99108559,1.33331822 C3.95982837,1.42959046 3.93127177,1.46612265 3.87875964,1.58239925 C3.85125329,1.63991254 3.83761264,1.70248574 3.87388352,1.73624329 C3.95640258,1.81126062 3.986372,1.92619004 3.92760843,2.10498084 C3.86509399,2.29502448 4.07725299,2.43644415 4.15227032,2.4639505 C4.16477321,2.46770137 4.19075421,2.49249209 4.21575999,2.5249996 C4.24326634,2.73504787 3.52956649,3.11214722 3.52956649,3.27468452 C3.47330349,3.76604701 3.16780293,3.71914593 2.87023419,5.33326551 C2.90774286,5.7246059 2.90262918,6.06960809 2.87511032,6.37842942 C2.51002599,7.34364987 2.21181211,7.90051975 1.96425493,8.59818089 C1.75920757,9.17331124 2.90888687,10.8377232 2.92639092,11.9729829 C2.67633316,12.3480695 2.47866875,12.2951298 2.4624175,12.4076533 L0.00335324897,12.4076533 C-0.0279039709,12.5739417 0.166769745,12.6964513 0.279295736,12.825231 L2.96302063,12.825231 L3.71270629,12.4589352 C3.8452344,12.1338601 3.57816271,11.8472701 3.58816502,11.5847095 C3.63317542,10.8020312 3.19551558,10.0227649 2.96546244,9.30635197 C3.1154971,9.14756529 3.30278661,8.78148448 3.5490935,8.87900701 C4.12422634,9.77421128 4.2326889,10.9158075 4.13516637,12.0535678 C4.0764028,12.3348828 3.59758095,12.5919159 3.61258441,12.8569771 C3.62133643,12.9494985 4.2487276,12.9097768 4.50878767,12.6884807 C4.55504835,12.5059385 4.89329148,12.2800663 5.00206661,12.2538103 C5.12209433,11.9099809 4.93542621,11.9216823 4.96543315,11.7141344 C5.02544701,11.5703512 4.94352809,10.0196417 4.83600825,9.85335331 C4.79599901,9.82834754 4.78234586,9.82762237 4.77984528,9.83137324 C4.65981755,9.52380219 4.95291275,9.05310722 5.0704399,8.76178993 L5.92757163,8.68364688 C5.82504795,7.92097072 5.55311014,7.12936162 5.38057028,6.34668084 C5.48559454,6.16413867 5.67563844,6.02066804 5.84942858,5.91689407 C6.75338488,5.32050756 5.95757856,4.3592279 5.92757163,3.61655786 C5.77378611,3.23146966 5.24374118,2.93055878 5.19497992,2.50546134 C5.30500533,2.59048098 5.38856213,2.55537537 5.41231512,2.56162681 C5.6711249,2.38408605 5.65830944,2.12838149 5.52952969,1.80705802 C5.92212037,1.33945076 6.16274345,1.12557224 6.2352602,0.97678812 C6.21025443,0.585448478 5.58090906,0 5.21207387,0 L5.21207011,0 Z M4.25725957,0.996331759 C4.88490455,1.02133753 4.74405201,1.30040587 4.76030577,1.35041742 C4.81031732,1.48544824 5.07352311,1.7744021 5.20230286,1.86567319 C5.16479419,2.24575985 4.86708793,2.02239013 4.99961854,2.368719 C4.96461046,3.02636903 4.18327748,2.94457627 3.84945037,3.48469952 C3.81581761,2.95140997 4.28513976,2.9503676 4.33784569,2.73257255 C4.36977806,2.70632148 4.39996003,2.62658182 4.4184268,2.59826428 C4.79726055,2.355709 4.53591644,2.53088496 4.15957701,2.33208954 C4.03704871,2.2695751 4.03468566,2.15161773 4.04968913,1.9853297 C4.07219432,1.7790328 3.98696214,1.73902243 3.95445463,1.6727575 C3.94195174,1.64525115 4.00092786,1.54378208 4.04968913,1.472516 C4.13720934,1.33998576 4.21599629,1.06384698 4.25725582,0.996331759 L4.25725957,0.996331759 Z M3.62234792,5.56037422 L3.6248485,5.56287479 C3.79488777,5.71666032 3.97344527,5.90887346 4.1034753,5.94138097 C4.19349609,6.1664292 3.91778741,6.19895922 3.81776431,6.30523377 C3.5839603,6.34024185 3.49495474,6.09258715 3.35867326,6.20511064 C3.32741604,6.23011641 3.18767752,6.20085966 3.1901781,6.17336581 C3.26519542,5.97332335 3.47362232,5.68546061 3.62240668,5.56043173 L3.62234792,5.56037422 Z M4.37203233,6.17575136 C4.55291911,6.16774951 4.66659287,6.28641442 4.6797209,6.4614611 L4.33051899,7.00602063 C4.99317205,7.03102641 4.11709345,8.09726894 4.9922931,7.90222389 C4.96353646,8.3023163 4.75047975,9.42366907 4.59669422,9.36740607 C4.4766665,8.74601254 4.37691721,9.00415842 4.37691721,9.18670058 C4.40192299,9.42800382 4.39799708,9.62412537 4.54052875,9.81917042 C4.49301778,9.86918197 4.31459782,9.86408079 4.26458626,9.87533339 C3.7694719,9.16892022 3.78976909,8.20103791 3.47094545,7.43336309 C3.41718303,7.43086251 3.3512303,7.49431467 3.35373087,7.55057767 C3.31622221,8.01318452 3.13553547,8.68093626 2.75544768,8.90098709 C2.51789531,9.04101943 3.27797087,8.95762517 2.65532455,9.25018899 C2.89287943,9.40772538 2.67487907,9.62136848 2.41356996,9.62136848 C2.28401754,9.3448246 2.18157638,9.11396253 2.1425111,8.91319741 C2.05746646,8.45800852 2.66122217,7.74681174 3.06313375,6.36133797 C3.22817187,6.30382469 3.3140317,6.68344362 3.549086,6.53715984 C3.91166975,6.54591186 3.75850937,7.49138399 4.09608734,6.89124537 C4.08858561,6.62618415 4.08139645,6.32679875 4.29144497,6.18551611 C4.31988904,6.17888958 4.34618261,6.17688912 4.37202608,6.17576386 L4.37203233,6.17575136 Z M2.87754713,9.7556795 C2.99007313,9.88070838 3.10060616,10.1122856 3.11685991,10.317333 C3.03559114,10.3610931 2.92443296,10.4380109 2.79940408,10.4467566 C2.70938329,10.3417324 2.56995609,10.0359192 2.51369309,9.90463891 L2.87754713,9.7556795 Z M4.39156809,10.0951129 C4.47928836,10.091112 4.57393522,10.1167054 4.63332394,10.1073657 C4.74960079,10.6449874 4.77693086,10.718737 4.32807718,10.6812283 L4.32807718,10.6787277 C4.26931361,10.5249422 4.2199272,10.3076658 4.24993413,10.1463785 C4.28744279,10.1102827 4.33894219,10.0974672 4.39156809,10.0950917 L4.39156809,10.0951129 Z" id="path186"></path>
                    </g>
                </g>
            </g>
        </g>
    </g>
</svg>