<?xml version="1.0" encoding="UTF-8"?>
<svg width="78px" height="42px" viewBox="0 0 78 42" version="1.1" xmlns="http://www.w3.org/2000/svg" xmlns:xlink="http://www.w3.org/1999/xlink">
    <title>3B9CF937-997D-47E9-866F-BBF1CE046404</title>
    <g id="Page-1" stroke="none" stroke-width="1" fill="none" fill-rule="evenodd">
        <g id="Capture-d’écran-2023-11-22-à-16.31.05" transform="translate(-968, -3612)" fill-rule="nonzero">
            <g id="PS_Logo_RGB-(1)" transform="translate(968, 3612)">
                <path d="M59.7333333,13.1541667 C58.9166667,13.7958333 57.8666667,14.175 56.7291667,14.175 C54.1041667,14.175 51.975,12.1041667 51.975,9.56666667 C51.975,7.02916667 54.1333333,4.95833333 56.7583333,4.95833333 C57.8958333,4.95833333 58.9458333,5.3375 59.7625,5.97916667 L60.7833333,4.95833333 C59.7041667,4.05416667 58.3041667,3.52916667 56.7875,3.52916667 C53.375,3.52916667 50.6041667,6.24166667 50.6041667,9.56666667 C50.6041667,12.8916667 53.375,15.6041667 56.7875,15.6041667 C58.3041667,15.6041667 59.7041667,15.05 60.7833333,14.175 L59.7333333,13.1541667 Z" id="Path" fill="#000000"></path>
                <g id="Group" transform="translate(40.5708, 22.0792)" fill="#FE414D">
                    <path d="M0.904166667,1.80833333 C1.4,1.80833333 1.80833333,1.4 1.80833333,0.904166667 C1.80833333,0.408333333 1.4,0 0.904166667,0 C0.408333333,0 0,0.408333333 0,0.904166667 C0,1.4 0.408333333,1.80833333 0.904166667,1.80833333 Z" id="Path"></path>
                    <rect id="Rectangle" x="0.204166667" y="3.52916667" width="1.42916667" height="12.0458333"></rect>
                </g>
                <path d="M11.6666667,9.5375 C11.6666667,6.24166667 9.04166667,3.52916667 5.83333333,3.52916667 C4.1125,3.52916667 2.50833333,4.2875 1.42916667,5.6 L1.42916667,3.52916667 L0,3.52916667 L0,19.9208333 L1.42916667,19.9208333 L1.42916667,13.475 C2.5375,14.8166667 4.1125,15.575 5.83333333,15.575 C9.04166667,15.575 11.6666667,12.8625 11.6666667,9.5375 Z M5.83333333,14.1458333 C3.44166667,14.1458333 1.51666667,12.1916667 1.42916667,9.7125 L1.42916667,9.5375 C1.42916667,7 3.38333333,4.95833333 5.83333333,4.95833333 C8.28333333,4.95833333 10.2375,7 10.2375,9.5375 C10.2375,12.075 8.25416667,14.1458333 5.83333333,14.1458333 Z" id="Shape" fill="#000000"></path>
                <path d="M16.9458333,37.6541667 C18.6666667,37.6541667 20.2416667,36.8958333 21.35,35.5541667 L21.35,37.6541667 L22.7791667,37.6541667 L22.7791667,25.6083333 L21.35,25.6083333 L21.35,27.6791667 C20.2416667,26.3666667 18.6666667,25.6083333 16.9458333,25.6083333 C13.7375,25.6083333 11.1125,28.2916667 11.1125,31.6166667 C11.1416667,34.9416667 13.7375,37.6541667 16.9458333,37.6541667 Z M12.5416667,31.5875 C12.5416667,29.05 14.525,27.0083333 16.9458333,27.0083333 C19.3666667,27.0083333 21.35,29.05 21.35,31.5875 L21.35,31.7625 C21.2625,34.2416667 19.3083333,36.1958333 16.9458333,36.1958333 C14.525,36.225 12.5416667,34.1541667 12.5416667,31.5875 Z" id="Shape" fill="#FE414D"></path>
                <path d="M38.15,31.5875 C38.15,28.2916667 35.525,25.5791667 32.3166667,25.5791667 C30.5958333,25.5791667 28.9916667,26.3375 27.9125,27.65 L27.9125,25.5791667 L26.4833333,25.5791667 L26.4833333,42 L27.9125,42 L27.9125,35.5541667 C29.0208333,36.8958333 30.5958333,37.6541667 32.3166667,37.6541667 C35.5541667,37.6541667 38.15,34.9416667 38.15,31.5875 Z M32.3458333,36.225 C29.9541667,36.225 28.0291667,34.2708333 27.9416667,31.7916667 L27.9416667,31.6166667 C27.9416667,29.0791667 29.925,27.0375 32.3458333,27.0375 C34.7666667,27.0375 36.75,29.0791667 36.75,31.6166667 C36.75,34.1541667 34.7666667,36.225 32.3458333,36.225 Z" id="Shape" fill="#FE414D"></path>
                <path d="M22.2833333,3.52916667 L22.2833333,10.6458333 C22.2833333,12.6 20.7375,14.175 18.7541667,14.175 C16.8,14.1458333 15.2541667,12.6 15.2541667,10.6458333 L15.2541667,3.52916667 L13.8541667,3.52916667 L13.8541667,10.6458333 C13.8541667,13.3583333 16.0416667,15.575 18.7541667,15.575 C21.4958333,15.575 23.7125,13.3583333 23.7125,10.6458333 L23.7125,3.52916667 L22.2833333,3.52916667 Z" id="Path" fill="#000000"></path>
                <path d="M32.3458333,3.52916667 C30.625,3.52916667 29.05,4.2875 27.9416667,5.62916667 L27.9416667,0 L26.5125,0 L26.5125,15.6041667 L27.9416667,15.6041667 L27.9416667,13.5333333 C29.05,14.8458333 30.625,15.6041667 32.3458333,15.6041667 C35.5541667,15.6041667 38.1791667,12.9208333 38.1791667,9.59583333 C38.15,6.24166667 35.5541667,3.52916667 32.3458333,3.52916667 Z M36.75,9.56666667 C36.75,12.1041667 34.7666667,14.1458333 32.3458333,14.1458333 C29.925,14.1458333 27.9416667,12.1041667 27.9416667,9.56666667 L27.9416667,9.39166667 C28.0291667,6.9125 29.9833333,4.95833333 32.3458333,4.95833333 C34.7666667,4.95833333 36.75,7.02916667 36.75,9.56666667 Z" id="Shape" fill="#000000"></path>
                <path d="M47.0458333,1.80833333 C47.5416667,1.80833333 47.95,1.4 47.95,0.904166667 C47.95,0.408333333 47.5416667,0 47.0458333,0 C46.55,0 46.1416667,0.408333333 46.1416667,0.904166667 C46.1416667,1.4 46.55,1.80833333 47.0458333,1.80833333 Z" id="Path" fill="#000000"></path>
                <rect id="Rectangle" fill="#000000" x="46.3458333" y="3.52916667" width="1.42916667" height="12.0458333"></rect>
                <path d="M64.8083333,1.80833333 C65.3041667,1.80833333 65.7125,1.4 65.7125,0.904166667 C65.7125,0.408333333 65.3041667,0 64.8083333,0 C64.3125,0 63.9041667,0.408333333 63.9041667,0.904166667 C63.875,1.4 64.2833333,1.80833333 64.8083333,1.80833333 Z" id="Path" fill="#000000"></path>
                <rect id="Rectangle" fill="#000000" x="64.0791667" y="3.52916667" width="1.42916667" height="12.0458333"></rect>
                <path d="M64.6916667,25.6083333 C63.35,25.6083333 62.0666667,26.1625 61.1625,27.125 L61.1625,25.6083333 L59.7916667,25.6083333 L59.7916667,37.6541667 L61.1625,37.6541667 L61.1625,30.5083333 C61.2208333,28.5541667 62.7958333,26.9791667 64.6916667,26.9791667 C66.6458333,26.9791667 68.2208333,28.5541667 68.2208333,30.5083333 L68.2208333,37.6541667 L69.6208333,37.6541667 L69.6208333,30.5083333 C69.5916667,27.7958333 67.375,25.6083333 64.6916667,25.6083333 Z" id="Path" fill="#FE414D"></path>
                <path d="M76.9125,36.2833333 L76.7666667,36.3125 C76.6208333,36.3416667 76.4166667,36.4 76.0666667,36.4 C75.4833333,36.4 75.25,36.05 75.25,35.2041667 L75.25,26.9791667 L76.9125,26.9791667 L76.9125,25.6083333 L75.25,25.6083333 L75.25,21.5541667 L73.7916667,21.5541667 L73.7916667,25.6083333 L72.1,25.6083333 L72.1,26.9791667 L73.7916667,26.9791667 L73.7916667,35.2333333 C73.7916667,36.1375 73.9666667,36.7208333 74.2875,37.1 C74.6083333,37.4791667 75.1041667,37.6541667 75.7166667,37.6541667 C76.1833333,37.6541667 76.5916667,37.5958333 76.8541667,37.4791667 L76.9416667,37.45 L76.9125,36.2833333 Z" id="Path" fill="#FE414D"></path>
                <path d="M54.775,34.1833333 C53.9875,35.4666667 52.5875,36.2541667 51.0708333,36.2541667 C48.7375,36.2541667 46.7833333,34.3875 46.6083333,31.9666667 L56.175,31.9666667 C56.5541667,31.9666667 56.875,31.675 56.875,31.325 L56.875,31.2083333 C56.6125,28.0291667 54.1333333,25.6083333 51.0708333,25.6083333 C47.8333333,25.6083333 45.2083333,28.3208333 45.2083333,31.6458333 C45.2083333,34.9416667 47.8333333,37.6541667 51.0708333,37.6541667 C53.0541667,37.6541667 54.8625,36.6333333 55.9416667,34.9416667 L54.775,34.1833333 Z M51.0708333,27.0083333 C53.1416667,27.0083333 54.9208333,28.525 55.3583333,30.5958333 L46.725,30.5958333 C47.1916667,28.4666667 48.9708333,27.0083333 51.0708333,27.0083333 Z" id="Shape" fill="#FE414D"></path>
                <path d="M7.875,31.85 C7.875,31.85 7.49583333,31.5583333 7.11666667,31.3833333 C6.70833333,31.2083333 6.15416667,31.0333333 4.95833333,30.7416667 C4.78333333,30.7125 4.6375,30.6833333 4.49166667,30.625 C3.70416667,30.4208333 3.09166667,30.1583333 2.625,29.8375 C2.1875,29.4583333 2.04166667,29.1375 2.04166667,28.7291667 C2.07083333,28.2916667 2.33333333,27.8541667 2.8,27.5041667 C3.325,27.0958333 4.1125,26.9208333 4.9875,26.95 C5.97916667,26.9791667 6.7375,27.5041667 7.55416667,28.0875 L7.64166667,28.1458333 L8.6625,27.1833333 C8.54583333,27.0666667 8.51666667,27.0375 8.16666667,26.8041667 C7.35,26.25 6.35833333,25.6666667 5.01666667,25.6083333 C3.85,25.55 2.82916667,25.7833333 2.0125,26.3083333 C1.1375,26.8916667 0.583333333,27.7375 0.583333333,28.6416667 C0.583333333,29.3125 0.7,29.9541667 1.4,30.5958333 C2.21666667,31.3833333 3.47083333,31.7916667 4.60833333,31.9958333 C5.6,32.2 6.50416667,32.55 6.97083333,32.9291667 C7.525,33.425 7.7,33.8041667 7.7,34.3291667 C7.67083333,34.825 7.35,35.2916667 6.79583333,35.6416667 C6.24166667,36.05 5.425,36.2833333 4.60833333,36.2541667 C3.5,36.1958333 2.3625,35.7291667 1.225,34.825 L1.1375,34.7666667 L0.116666667,35.7 L0.204166667,35.7875 C1.54583333,36.925 2.975,37.5666667 4.52083333,37.6541667 C5.65833333,37.7125 6.65,37.4208333 7.58333333,36.8083333 C8.51666667,36.1666667 9.04166667,35.3208333 9.1,34.3875 C9.1875,33.425 8.69166667,32.4333333 7.875,31.85 Z" id="Path" fill="#FE414D"></path>
                <path d="M76.0375,9.77083333 C76.0375,9.77083333 75.6583333,9.47916667 75.2791667,9.30416667 C74.8708333,9.12916667 74.3166667,8.95416667 73.1208333,8.6625 C72.9458333,8.63333333 72.8,8.60416667 72.6541667,8.54583333 C71.8666667,8.34166667 71.2541667,8.07916667 70.7875,7.75833333 C70.35,7.37916667 70.175,7.05833333 70.2041667,6.65 C70.2333333,6.2125 70.4958333,5.775 70.9625,5.425 C71.4875,5.01666667 72.275,4.84166667 73.15,4.87083333 C74.1416667,4.9 74.9,5.425 75.7166667,6.00833333 L75.8041667,6.06666667 L76.825,5.10416667 C76.7083333,4.9875 76.6791667,4.95833333 76.3291667,4.725 C75.5125,4.17083333 74.5208333,3.5875 73.1791667,3.52916667 C72.0125,3.47083333 70.9916667,3.70416667 70.175,4.22916667 C69.3,4.8125 68.7458333,5.65833333 68.7458333,6.5625 C68.7458333,7.23333333 68.8625,7.875 69.5625,8.51666667 C70.3791667,9.30416667 71.6333333,9.7125 72.7708333,9.91666667 C73.7625,10.1208333 74.6666667,10.4708333 75.1333333,10.85 C75.6875,11.3458333 75.8625,11.725 75.8625,12.25 C75.8333333,12.7458333 75.5125,13.2125 74.9583333,13.5625 C74.4041667,13.9708333 73.5875,14.2041667 72.7708333,14.175 C71.6625,14.1166667 70.525,13.65 69.3875,12.7458333 L69.3,12.6875 L68.2791667,13.6208333 L68.3666667,13.7083333 C69.7083333,14.8458333 71.1375,15.4875 72.6833333,15.575 C73.8208333,15.6333333 74.8125,15.3416667 75.7458333,14.7291667 C76.6791667,14.0875 77.2041667,13.2416667 77.2625,12.3083333 C77.35,11.3458333 76.8833333,10.3541667 76.0375,9.77083333 Z" id="Path" fill="#000000"></path>
                <rect id="Rectangle" fill="#000000" x="40.775" y="0" width="1.42916667" height="15.575"></rect>
            </g>
        </g>
    </g>
</svg>