<?xml version="1.0" encoding="UTF-8"?>
<svg width="156px" height="38px" viewBox="0 0 156 38" version="1.1" xmlns="http://www.w3.org/2000/svg" xmlns:xlink="http://www.w3.org/1999/xlink">
    <title>37299987-0063-4778-8E1A-08A47EA79AFE</title>
    <g id="Page-1" stroke="none" stroke-width="1" fill="none" fill-rule="evenodd">
        <g id="Capture-d’écran-2023-11-22-à-16.31.05" transform="translate(-321, -3614)" fill-rule="nonzero">
            <g id="Arconic_logo_(horizontal)" transform="translate(321, 3614)">
                <path d="M73.3869447,28.6896616 L70.0766093,28.6896616 L69.1306785,26.034491 L64.2561274,26.034491 L63.3103355,28.6896616 L60,28.6896616 L64.6563594,16.2758665 L68.8397534,16.2758665 L73.3869447,28.6896616 Z M66.6934057,18.7241406 L64.9472886,23.5862038 L68.3667894,23.5862038 L66.6934057,18.7241406 Z M80.225813,28.6897007 L76.8791789,28.6897007 L76.8791789,16.2758665 L82.1175301,16.2758665 C85.6097642,16.2758665 87.4286146,17.7930994 87.4286146,20.2069016 C87.4286146,21.8620743 86.51912,23.1379387 84.7367057,23.7931004 L87.6468105,28.6897007 L84.3364737,28.6897007 L81.7172981,24.517245 L80.1895144,24.6207258 L80.1895144,28.6897007 L80.225813,28.6897007 Z M81.8628995,22.2758675 C83.2815179,22.1723866 84.0455458,21.6206928 84.0455458,20.4137982 C84.0455458,19.3103454 83.2452192,18.7931104 81.5718328,18.7931104 L80.1895144,18.7931104 L80.1895144,22.3103524 L81.8628995,22.2758675 Z M101.106484,19.5517269 C100.124261,19 98.9602729,18.6551707 97.7961476,18.6551707 C95.5407693,18.6551707 94.085719,20.1034468 94.085719,22.4482791 C94.085719,24.7931114 95.4680387,26.3103444 97.8325837,26.3103444 C99.1057354,26.3103444 100.306159,25.8965512 101.288382,25.3103464 L101.979543,28.1034568 C100.961022,28.6551767 99.2149049,29 97.6869837,29 C93.5035883,29 90.7389474,26.7241376 90.7389474,22.5517209 C90.7389474,18.5517289 93.467291,16 97.7961476,16 C99.3968021,16 100.924586,16.3793082 102.125006,16.9310412 L101.106484,19.5517269 Z M111.510454,29 C107.654423,29 104.671452,26.7241376 104.671452,22.517249 C104.671452,18.5862138 107.654423,16 111.54689,16 C115.439217,16 118.385757,18.2758624 118.385757,22.4482791 C118.385757,26.3793143 115.402785,29 111.510454,29 M111.510454,18.517244 C109.291375,18.517244 108.018219,20.1034468 108.018219,22.4137942 C108.018219,24.7931114 109.327807,26.4137992 111.54689,26.4137992 C113.729536,26.4137992 115.039124,24.7931114 115.039124,22.482764 C115.039124,20.1379317 113.729536,18.517244 111.510454,18.517244 M130.935937,16.2758665 L134.064513,16.2758665 L134.064513,28.6896616 L130.463113,28.6896616 L125.042861,20.6551797 L125.042861,28.6896616 L121.914427,28.6896616 L121.914427,16.2758665 L125.515826,16.2758665 L130.972372,24.3448333 L130.972372,16.2758665 L130.935937,16.2758665 Z M137.702205,16.2758665 L141.048976,16.2758665 L141.048976,28.6896616 L137.702205,28.6896616 L137.702205,16.2758665 Z M154.981478,19.5517269 C153.999252,19 152.835266,18.6551707 151.671142,18.6551707 C149.415764,18.6551707 147.960575,20.1034468 147.960575,22.4482791 C147.960575,24.7931114 149.343032,26.3103444 151.707577,26.3103444 C152.98073,26.3103444 154.181151,25.8965512 155.163376,25.3103464 L155.854536,28.1034568 C154.836014,28.6551767 153.089897,29 151.561975,29 C147.378581,29 144.613942,26.7241376 144.613942,22.5517209 C144.613942,18.5517289 147.342284,16 151.671142,16 C153.271795,16 154.799579,16.3793082 156,16.9310412 L154.981478,19.5517269 Z" id="path13976" fill="#000000"></path>
                <path d="M36.3412934,37.8593315 L24.9999328,31.125567 L13.6587062,37.8593315 C13.3427284,38.0403444 12.9213805,38.0403444 12.60527,37.8593315 L0.526718095,30.6549252 C0.210607613,30.4739123 0,30.1118729 0,29.7136418 L0,15.3410345 C0,14.9428034 0.210607613,14.5807776 0.526718095,14.3997647 L24.4733474,0.135759672 C24.7893252,-0.0452532239 25.2106731,-0.0452532239 25.5266509,0.135759672 L49.4732806,14.3997647 C49.7892597,14.5807776 50,14.9428034 50,15.3410345 L50,29.7498471 C50,30.1480782 49.7892597,30.4739123 49.4732806,30.6911305 L37.3945969,37.8955232 C37.0786178,38.0403444 36.6572698,38.0403444 36.3412934,37.8593999 M13.1319881,35.1441655 L22.4368102,29.6051079 L13.1319881,24.0660367 L3.82729912,29.6051079 L13.1319881,35.1441655 Z M38.1319213,34.3839086 L47.4367434,28.8448373 L47.4367434,17.7667085 L38.1319213,23.3057798 L38.1319213,34.3839086 Z M35.6038337,34.3839086 L35.6038337,23.3057798 L24.9999328,17.0064516 L15.6952433,22.5455092 L35.6038337,34.3839086 Z M2.56325519,27.2881045 L10.6039009,22.5093039 L2.56325519,17.7667085 L2.56325519,27.2881045 Z M13.1319881,20.9887764 L23.700854,14.6894483 L23.700854,3.61131947 L3.82729912,15.4497188 L13.1319881,20.9887764 Z M36.8678775,20.9887764 L46.1726996,15.4497188 L26.2639766,3.61131947 L26.2639766,14.6894483 L36.8678775,20.9887764 Z" id="path13978" fill="#01B0BA"></path>
            </g>
        </g>
    </g>
</svg>