<?xml version="1.0" encoding="UTF-8"?>
<svg width="103px" height="35px" viewBox="0 0 103 35" version="1.1" xmlns="http://www.w3.org/2000/svg" xmlns:xlink="http://www.w3.org/1999/xlink">
    <title>160C2A30-36C5-4BC5-B7C8-2EFE24242A48</title>
    <g id="Page-1" stroke="none" stroke-width="1" fill="none" fill-rule="evenodd">
        <g id="Capture-d’écran-2023-11-22-à-16.31.05" transform="translate(-570, -3616)" fill-rule="nonzero">
            <g id="chauvin-arnoux-group-vector-logo" transform="translate(570, 3616)">
                <path d="M19.2429732,24.707887 L5.49311825,24.707887 C2.47360915,24.707887 0,22.2370983 0,19.2210321 L0,5.48685492 C0,2.4707887 2.47360915,0 5.49311825,0 L19.2429732,0 C22.2624823,0 24.7360915,2.4707887 24.7360915,5.48685492 L24.7360915,19.2210321 C24.7360915,22.2370983 22.2624823,24.707887 19.2429732,24.707887 M37.6841559,2.16407011 C36.7970685,0.886075949 35.3299624,0.0340798442 33.7093219,0.0340798442 C30.6898128,0.0340798442 28.2673818,2.30038948 28.2673818,5.60613437 C28.2673818,8.48588121 30.604516,10.9225901 33.5216688,10.9225901 C35.5005561,10.9225901 37.0700185,10.1217137 38.008284,8.17916261 L37.3259091,7.83836417 C36.728831,9.18451801 35.4323186,10.1046738 33.896975,10.1046738 C31.5257221,10.1046738 30.3486254,7.83836417 30.3486254,5.52093476 C30.3486254,2.55598832 31.6280784,0.698636806 34.1358063,0.698636806 C35.5005561,0.698636806 36.3705842,1.60175268 37.1041372,2.57302824 L37.6841559,2.16407011 Z M43.4843429,10.9055501 L43.4843429,5.67429406 L47.9538987,5.67429406 L47.9538987,10.9055501 L50.0010236,10.9055501 L50.0010236,0.0340798442 L47.9538987,0.0340798442 L47.9538987,4.80525803 L43.4843429,4.80525803 L43.4843429,0.0340798442 L41.4372181,0.0340798442 L41.4372181,10.9055501 L43.4843429,10.9055501 Z M57.3194948,0.0340798442 L57.285376,0.0340798442 L52.9693545,10.9055501 L53.9076201,10.9055501 L54.9653012,8.14508277 L58.6160072,8.14508277 L59.7419258,10.9055501 L61.7890506,10.9055501 L57.3194948,0.0340798442 Z M58.3430572,7.46348588 L55.2382512,7.46348588 L56.7735948,3.57838364 L58.3430572,7.46348588 Z M65.0303316,0.0340798442 L65.0303316,7.53164557 C65.0303316,10.2239533 67.2139314,10.8885102 68.9710468,10.8885102 C71.6493685,10.8885102 72.6899902,9.26971762 72.6899902,7.92356378 L72.6899902,0.0340798442 L71.8370216,0.0340798442 L71.8370216,7.68500487 C71.8370216,9.49123661 70.2163811,9.83203505 69.2781156,9.83203505 C68.4592656,9.83203505 67.0262783,9.23563778 67.0262783,7.59980526 L67.0262783,0.0340798442 L65.0303316,0.0340798442 Z M80.8955489,7.03748783 L77.9613366,0.0340798442 L75.8800931,0.0340798442 L80.3496489,10.9055501 L80.3837677,10.9055501 L84.5633142,0.0340798442 L83.6079892,0.0340798442 L80.8955489,7.03748783 Z M87.8216545,10.9055501 L89.8687793,10.9055501 L89.8687793,0.0340798442 L87.8216545,0.0340798442 L87.8216545,10.9055501 Z M94.7818789,10.9055501 L94.7818789,2.2322298 L94.8159976,2.2322298 L101.435034,10.9055501 L102.339181,10.9055501 L102.339181,0.0340798442 L101.469153,0.0340798442 L101.469153,7.51460565 L101.435034,7.51460565 L95.7372038,0.0340798442 L93.9118508,0.0340798442 L93.9118508,10.9055501 L94.7818789,10.9055501 Z M32.5834033,13.8364167 L32.5492845,13.8364167 L28.233263,24.707887 L29.1715286,24.707887 L30.2292097,21.9474197 L33.8799157,21.9474197 L35.0058343,24.707887 L37.0529591,24.707887 L32.5834033,13.8364167 Z M33.6069657,21.2658228 L30.5192191,21.2658228 L32.0545627,17.3807205 L33.6069657,21.2658228 Z M43.4161054,24.707887 L43.4161054,14.3646543 L44.5249647,14.3646543 C46.5209114,14.3646543 47.1179895,15.5915287 47.1179895,16.8013632 C47.1179895,18.4371957 45.9408927,19.1358325 44.1325991,19.1358325 L43.9961241,19.1358325 L46.9644551,24.707887 L49.2162924,24.707887 L46.3332583,19.6299903 C47.9709581,19.4255112 49.1651143,18.7098345 49.1651143,17.0399221 C49.1651143,15.30185 48.056255,13.8364167 46.0773677,13.8364167 L41.3689806,13.8364167 L41.3689806,24.707887 L43.4161054,24.707887 Z M54.4705794,24.707887 L54.4705794,16.0345667 L54.5046982,16.0345667 L61.123735,24.707887 L62.0278818,24.707887 L62.0278818,13.8364167 L61.1578538,13.8364167 L61.1578538,21.3169426 L61.123735,21.3169426 L55.4259043,13.8364167 L53.6005514,13.8364167 L53.6005514,24.707887 L54.4705794,24.707887 Z M71.5128935,13.8364167 C68.5275031,13.8364167 66.3950814,16.2390458 66.3950814,19.2721519 C66.3950814,22.305258 68.5275031,24.707887 71.5128935,24.707887 C74.4982838,24.707887 76.6307055,22.305258 76.6307055,19.2721519 C76.6307055,16.2390458 74.4982838,13.8364167 71.5128935,13.8364167 M71.5128935,24.0433301 C69.022225,24.0433301 68.4933844,21.2828627 68.4933844,19.2721519 C68.4933844,17.2614411 69.0392843,14.5009737 71.5128935,14.5009737 C74.003562,14.5009737 74.5494619,17.2614411 74.5494619,19.2721519 C74.5494619,21.2658228 73.9865026,24.0433301 71.5128935,24.0433301 M81.1855582,13.8364167 L81.1855582,21.3339825 C81.1855582,24.0262902 83.369158,24.6908471 85.1262735,24.6908471 C87.8045951,24.6908471 88.8452169,23.0720545 88.8452169,21.7259007 L88.8452169,13.8364167 L87.9922482,13.8364167 L87.9922482,21.4873418 C87.9922482,23.2935735 86.3716077,23.634372 85.4504016,23.634372 C84.6315517,23.634372 83.1985643,23.0379747 83.1985643,21.4021422 L83.1985643,13.8364167 L81.1855582,13.8364167 Z M96.4536974,19.5447907 L92.8029915,24.6908471 L93.9289102,24.6908471 L97.0166568,20.4138267 L99.7973346,24.6908471 L102.339181,24.6908471 L98.3472879,18.5564752 L101.742103,13.8023369 L100.565006,13.8023369 L97.7843286,17.7044791 L95.2083632,13.8364167 L92.7688728,13.8364167 L96.4536974,19.5447907 Z M5.44194013,31.1489776 L5.44194013,33.9264849 C5.22016827,34.2502434 4.57191208,34.5058423 3.95777464,34.5058423 C2.28595604,34.5058423 1.46710612,32.9211295 1.46710612,31.0808179 C1.46710612,28.9337877 2.33713416,27.5876339 4.07719025,27.5876339 C5.01545579,27.5876339 5.61253386,28.2351509 6.12431507,28.9508277 L6.51668066,28.6441091 C5.90254321,27.7239533 4.89604018,27.0934761 3.7871809,27.0934761 C1.70593734,27.0934761 0.0341187469,28.7463486 0.0341187469,31.1148978 C0.0341187469,33.1937683 1.63769985,34.9659202 3.65070592,34.9659202 C4.82780268,34.9659202 5.90254321,34.556962 6.78963063,33.8072055 L6.78963063,31.1148978 L5.44194013,31.1148978 L5.44194013,31.1489776 Z M8.29085549,34.9829601 L8.29085549,29.7346641 L8.81969607,29.7346641 C9.77502098,29.7346641 10.0650303,30.3481013 10.0650303,30.9615385 C10.0650303,31.7794547 9.50207101,32.1372931 8.63204296,32.1372931 L8.56380547,32.1372931 L9.99679284,34.9659202 L11.0885927,34.9659202 L9.68972412,32.4099318 C10.4744553,32.3076923 11.054474,31.9498539 11.054474,31.0978578 C11.054474,30.2117819 10.5256334,29.4790652 9.5703085,29.4790652 L7.30141183,29.4790652 L7.30141183,35 L8.29085549,35 L8.29085549,34.9829601 Z M13.9033894,29.4790652 C12.470402,29.4790652 11.4468396,30.6888997 11.4468396,32.2395326 C11.4468396,33.7731256 12.470402,35 13.9033894,35 C15.3363767,35 16.3769985,33.7901655 16.3769985,32.2395326 C16.3599391,30.6888997 15.3363767,29.4790652 13.9033894,29.4790652 M13.9033894,34.6421616 C12.7092332,34.6421616 12.4533426,33.244888 12.4533426,32.2224927 C12.4533426,31.2000974 12.7092332,29.8028238 13.9033894,29.8028238 C15.0975455,29.8028238 15.3704955,31.2000974 15.3704955,32.2224927 C15.3534361,33.244888 15.0975455,34.6421616 13.9033894,34.6421616 M16.8205422,29.4790652 L16.8205422,33.2789679 C16.8205422,34.6421616 17.8782234,34.9829601 18.7141327,34.9829601 C20.010645,34.9829601 20.5053669,34.1650438 20.5053669,33.4834469 L20.5053669,29.4790652 L20.0959419,29.4790652 L20.0959419,33.3641675 C20.0959419,34.2843233 19.3112107,34.4547225 18.867667,34.4547225 C18.4753014,34.4547225 17.7758671,34.1480039 17.7758671,33.3130477 L17.7758671,29.4790652 L16.8205422,29.4790652 Z M21.0000887,34.9829601 L21.9895324,34.9829601 L21.9895324,32.6996105 L22.7060261,32.6996105 C24.0366572,32.6996105 24.7360915,32.3076923 24.7360915,31.1148978 C24.7360915,30.0413827 23.9343009,29.4790652 23.1495698,29.4790652 L21.0000887,29.4790652 L21.0000887,34.9829601 Z M21.9895324,29.751704 L22.4501355,29.751704 C23.4736979,29.751704 23.7466478,30.3821811 23.7466478,30.9615385 C23.7466478,31.8987342 23.3372229,32.3417722 22.4842542,32.3417722 L22.0065917,32.3417722 L22.0065917,29.751704 L21.9895324,29.751704 Z" id="Shape" fill="#000000"></path>
                <path d="M2.66081871,11.6799935 C2.66081871,8.18813402 4.60425515,5.15249736 7.43417137,3.67854661 C7.58760056,3.59081145 7.79217282,3.66099958 7.86036357,3.83646991 L8.57636647,5.43324988 C8.64455722,5.59117318 8.59341416,5.7666435 8.43998496,5.85437867 C6.3942624,6.95984173 4.97930429,9.15322082 4.97930429,11.6975406 C4.97930429,15.3297763 7.84331588,18.2776778 11.389235,18.2952249 C12.2586671,18.2952249 13.0940038,18.1197545 13.8441021,17.7863609 C13.9975313,17.7161728 14.1680081,17.7863609 14.2361989,17.9442842 L14.9522018,19.5410642 C15.0203926,19.6989875 14.9522018,19.8920048 14.7987726,19.97974 C13.7418159,20.4359628 12.5996208,20.6991683 11.389235,20.6991683 C6.58178697,20.6816213 2.66081871,16.6458038 2.66081871,11.6799935 Z M11.2699012,2.69591278 C16.1796353,2.69591278 20.2540328,6.8370125 20.134699,11.8905579 C20.0665082,14.6805361 18.7708839,17.1546677 16.7763044,18.7514477 C16.6228752,18.8742769 16.3842076,18.8216358 16.2989692,18.6286185 L15.5488709,16.9791974 C15.4977278,16.8563682 15.5318232,16.6984449 15.6341093,16.5931627 C16.5717322,15.7509051 17.2706874,14.610348 17.5945934,13.3294146 C17.6457365,13.1188502 17.4923073,12.9258328 17.2877351,12.9258328 L12.9064792,12.9258328 C12.7360024,12.9258328 12.5996208,13.0662091 12.5996208,13.2416794 L12.5996208,16.3124102 C12.5996208,16.4878805 12.4632393,16.6282568 12.2927625,16.6282568 L10.5879937,16.6282568 C10.4175168,16.6282568 10.2811353,16.4878805 10.2811353,16.3124102 L10.2811353,2.9766653 C10.2811353,2.80119498 10.4175168,2.66081871 10.5879937,2.66081871 L11.2699012,2.66081871 M12.9917177,5.31042065 C12.7871454,5.25777955 12.5996208,5.41570285 12.5996208,5.62626724 L12.5996208,10.2586839 C12.5996208,10.4341542 12.7360024,10.5745305 12.9064792,10.5745305 L17.3218304,10.5745305 C17.5264027,10.5745305 17.6627842,10.3815131 17.6286888,10.1884957 C17.0831628,7.8020993 15.2931556,5.90701977 12.9917177,5.31042065 M100.309976,35 C100.855502,35 101.315789,34.5437771 101.315789,33.9647251 L101.315789,31.9643633 C101.315789,31.4028583 100.87255,30.9290884 100.309976,30.9290884 L28.3005415,30.9290884 C27.7550155,30.9290884 27.2947279,31.3853113 27.2947279,31.9643633 L27.2947279,33.9647251 C27.2947279,34.5262301 27.7379678,35 28.3005415,35 L100.309976,35" id="Shape" fill="#FFDF00"></path>
            </g>
        </g>
    </g>
</svg>