<?xml version="1.0" encoding="UTF-8" standalone="no"?>
<svg
   width="279px"
   height="52px"
   viewBox="0 0 279 52"
   version="1.1"
   id="svg5"
   sodipodi:docname="Logo_octobre_conseil.svg"
   inkscape:version="1.3 (0e150ed, 2023-07-21)"
   xmlns:inkscape="http://www.inkscape.org/namespaces/inkscape"
   xmlns:sodipodi="http://sodipodi.sourceforge.net/DTD/sodipodi-0.dtd"
   xmlns:xlink="http://www.w3.org/1999/xlink"
   xmlns="http://www.w3.org/2000/svg"
   xmlns:svg="http://www.w3.org/2000/svg"
   xmlns:rdf="http://www.w3.org/1999/02/22-rdf-syntax-ns#"
   xmlns:cc="http://creativecommons.org/ns#"
   xmlns:dc="http://purl.org/dc/elements/1.1/">
  <sodipodi:namedview
     id="namedview5"
     pagecolor="#ffffff"
     bordercolor="#000000"
     borderopacity="0.25"
     inkscape:showpageshadow="2"
     inkscape:pageopacity="0.0"
     inkscape:pagecheckerboard="0"
     inkscape:deskcolor="#d1d1d1"
     inkscape:zoom="2.9605735"
     inkscape:cx="139.33111"
     inkscape:cy="26.008475"
     inkscape:window-width="1312"
     inkscape:window-height="449"
     inkscape:window-x="0"
     inkscape:window-y="25"
     inkscape:window-maximized="0"
     inkscape:current-layer="Group-17-Copy" />
  <title
     id="title1">E0DF8195-BB19-4516-9267-2490CC9B6BF9</title>
  <defs
     id="defs3">
    <linearGradient
       x1="14.1851327%"
       y1="85.4110516%"
       x2="100%"
       y2="18.3966546%"
       id="octobreConseilLogoGradient-1">
      <stop
         stop-color="#B5530C"
         offset="0%"
         id="stop1" />
      <stop
         stop-color="#EB9D34"
         offset="49.261484%"
         id="stop2" />
      <stop
         stop-color="#F72900"
         offset="100%"
         id="stop3" />
    </linearGradient>
    <path
       d="M93,42 C100.179702,42 106,36.1797017 106,29 C106,21.8202983 100.179702,16 93,16 C85.8202983,16 80,21.8202983 80,29 C80,36.1797017 85.8202983,42 93,42 Z"
       id="path-2" />
    <mask
       id="mask-3"
       maskContentUnits="userSpaceOnUse"
       maskUnits="objectBoundingBox"
       x="0"
       y="0"
       width="26"
       height="26"
       fill="white">
      <use
         xlink:href="#path-2"
         id="use3" />
    </mask>
  </defs>
  <g
     id="Page-1"
     stroke="none"
     stroke-width="1"
     fill="none"
     fill-rule="evenodd">
    <g
       id="Capture-d’écran-2023-11-22-à-16.31.05"
       transform="translate(-201, -5557)">
      <g
         id="Group-17-Copy"
         transform="translate(201, 5557)">
        <g
           id="Group-5">
          <path
             d="M 5.928,37.88 Q 2.34,34.24 2.34,28.78 q 0,-5.46 3.588,-9.1 3.64,-3.64 9.048,-3.64 5.408,0 8.996,3.64 3.64,3.64 3.64,9.1 0,5.46 -3.64,9.1 -3.588,3.64 -8.996,3.64 -5.408,0 -9.048,-3.64 z M 9.464,23.06 Q 7.28,25.4 7.28,28.78 q 0,3.38 2.184,5.72 2.184,2.34 5.512,2.34 3.328,0 5.512,-2.34 2.184,-2.34 2.184,-5.72 0,-3.38 -2.184,-5.72 -2.184,-2.34 -5.512,-2.34 -3.328,0 -5.512,2.34 z m 41.761553,9.984 3.796,2.756 q -1.508,2.548 -4.524,4.16 -3.016,1.56 -6.344,1.56 -5.616,0 -9.36,-3.64 -3.692,-3.64 -3.692,-9.1 0,-5.46 3.64,-9.1 3.64,-3.64 9.1,-3.64 3.12,0 5.876,1.456 2.756,1.404 4.524,3.848 l -3.64,3.068 q -2.652,-3.692 -6.76,-3.692 -3.328,0 -5.564,2.288 -2.236,2.288 -2.236,5.772 0,3.588 2.288,5.824 2.288,2.236 5.824,2.236 4.212,0 7.072,-3.796 z m 22.417577,3.484 0.988,4.472 q -1.56,0.52 -3.848,0.52 -4.368,0 -6.916,-2.86 -1.976,-2.184 -1.976,-6.5 V 20.98 h -6.24 v -4.42 h 6.24 V 9.8 h 4.94 v 6.76 h 7.8 v 4.42 h -7.8 v 11.44 q 0,2.288 0.728,3.12 1.04,1.3 3.38,1.3 1.612,0 2.704,-0.312 z"
             id="oct"
             style="font-size:52px;font-family:Brown-Regular, Brown;letter-spacing:-1.19036;fill:#1c1c1c"
             aria-label="oct" />
          <path
             d="M 116.204,38.764 V 41 H 111.42 V 4.08 h 4.94 v 14.612 q 3.172,-2.652 7.488,-2.652 3.328,0 5.98,1.56 2.86,1.664 4.576,4.628 1.716,2.964 1.716,6.552 0,3.588 -1.716,6.552 -1.664,2.912 -4.524,4.576 -2.704,1.612 -6.136,1.612 -4.472,0 -7.54,-2.756 z m 0.156,-14.56 v 9.152 q 2.6,3.484 6.708,3.484 3.484,0 5.772,-2.34 2.34,-2.392 2.34,-5.72 0,-3.328 -2.236,-5.668 -2.184,-2.392 -5.616,-2.392 -4.316,0 -6.968,3.484 z m 39.36962,-8.008 -0.572,4.732 q -0.78,-0.208 -1.924,-0.208 -1.872,0 -3.744,1.196 -1.82,1.144 -2.86,2.912 V 41 h -4.94 V 16.56 h 4.784 v 2.808 q 0.988,-1.404 2.912,-2.34 1.924,-0.988 4.42,-0.988 1.04,0 1.924,0.156 z m 25.27753,13.624 h -18.824 q 0.208,3.12 2.444,5.252 2.288,2.132 5.46,2.132 4.004,0 7.02,-3.328 l 3.224,3.068 q -1.508,1.976 -4.16,3.276 -2.652,1.3 -6.136,1.3 -5.356,0 -8.996,-3.64 -3.64,-3.64 -3.64,-9.1 0,-5.512 3.328,-9.1 3.38,-3.64 8.58,-3.64 5.096,0 8.424,3.64 3.328,3.64 3.328,9.1 0,0.572 -0.052,1.04 z m -11.544,-9.464 q -2.392,0 -4.316,1.508 -1.924,1.456 -2.548,3.796 h 13.312 q -0.52,-2.288 -2.392,-3.796 -1.82,-1.508 -4.056,-1.508 z"
             id="bre"
             style="font-size:52px;font-family:Brown-Regular, Brown;letter-spacing:-1.19036;fill:#1c1c1c"
             aria-label="bre" />
          <use
             id="Oval-Copy"
             stroke="url(#octobreConseilLogoGradient-1)"
             mask="url(#mask-3)"
             stroke-width="8"
             stroke-linejoin="round"
             stroke-dasharray="6,2.6"
             xlink:href="#path-2" />
        </g>
        <path
           d="m 216.881,27.817675 q 0,-2.432 1.616,-4.096 1.632,-1.664 4.048,-1.664 1.2,0 2.272,0.464 1.088,0.448 1.824,1.264 l -1.072,1.056 q -0.512,-0.56 -1.328,-0.912 -0.816,-0.352 -1.696,-0.352 -1.728,0 -2.896,1.216 -1.168,1.216 -1.168,3.024 0,1.872 1.2,3.056 1.2,1.184 3.008,1.184 1.904,0 3.216,-1.584 l 1.136,1.024 q -0.736,0.944 -1.904,1.52 -1.168,0.56 -2.448,0.56 -2.512,0 -4.16,-1.632 -1.648,-1.648 -1.648,-4.128 z m 12.30398,4.64 q -1.104,-1.12 -1.104,-2.8 0,-1.68 1.104,-2.8 1.12,-1.12 2.784,-1.12 1.664,0 2.768,1.12 1.12,1.12 1.12,2.8 0,1.68 -1.12,2.8 -1.104,1.12 -2.768,1.12 -1.664,0 -2.784,-1.12 z m 1.088,-4.56 q -0.672,0.72 -0.672,1.76 0,1.04 0.672,1.76 0.672,0.72 1.696,0.72 1.024,0 1.696,-0.72 0.672,-0.72 0.672,-1.76 0,-1.04 -0.672,-1.76 -0.672,-0.72 -1.696,-0.72 -1.024,0 -1.696,0.72 z m 9.13597,-2 v 0.72 q 0.912,-0.88 2.256,-0.88 1.696,0 2.736,1.328 0.736,0.928 0.736,2.672 v 3.68 h -1.52 v -3.76 q 0,-1.184 -0.448,-1.744 -0.576,-0.736 -1.552,-0.736 -1.28,0 -2.16,1.072 v 5.168 h -1.52 v -7.52 z m 7.56798,6.64 0.784,-1.12 q 1.072,0.832 2.224,0.832 0.528,0 0.912,-0.256 0.4,-0.272 0.4,-0.688 0,-0.24 -0.128,-0.416 -0.128,-0.192 -0.4,-0.304 -0.256,-0.128 -0.512,-0.192 -0.24,-0.08 -0.656,-0.176 -0.4,-0.112 -0.656,-0.192 -1.728,-0.576 -1.728,-1.936 0,-1.136 0.832,-1.744 0.832,-0.608 1.952,-0.608 1.472,0 2.496,0.832 l -0.784,1.088 q -0.784,-0.592 -1.616,-0.592 -0.576,0 -0.976,0.256 -0.384,0.256 -0.384,0.688 0,0.352 0.32,0.528 0.336,0.176 1.024,0.352 0.544,0.144 0.944,0.304 0.4,0.144 0.848,0.416 0.448,0.272 0.688,0.704 0.256,0.416 0.256,0.96 0,1.024 -0.832,1.664 -0.816,0.64 -1.968,0.64 -1.76,0 -3.04,-1.04 z m 14.624,-2.56 h -5.792 q 0.064,0.96 0.752,1.616 0.704,0.656 1.68,0.656 1.232,0 2.16,-1.024 l 0.992,0.944 q -0.464,0.608 -1.28,1.008 -0.816,0.4 -1.888,0.4 -1.648,0 -2.768,-1.12 -1.12,-1.12 -1.12,-2.8 0,-1.696 1.024,-2.8 1.04,-1.12 2.64,-1.12 1.568,0 2.592,1.12 1.024,1.12 1.024,2.8 0,0.176 -0.016,0.32 z m -3.552,-2.912 q -0.736,0 -1.328,0.464 -0.592,0.448 -0.784,1.168 h 4.096 q -0.16,-0.704 -0.736,-1.168 -0.56,-0.464 -1.248,-0.464 z m 5.64797,6.352 v -7.52 h 1.52 v 7.52 z m 0.048,-9.488 q -0.288,-0.288 -0.288,-0.704 0,-0.416 0.288,-0.704 0.288,-0.304 0.704,-0.304 0.416,0 0.704,0.304 0.304,0.288 0.304,0.704 0,0.416 -0.304,0.704 -0.288,0.288 -0.704,0.288 -0.416,0 -0.704,-0.288 z m 4.19199,9.488 v -11.36 h 1.52 v 11.36 z"
           id="Conseil"
           style="font-size:16px;font-family:Brown-Regular, Brown;fill:#000000"
           aria-label="Conseil" />
        <line
           x1="202.5"
           y1="14.5"
           x2="202.5"
           y2="39.5"
           id="Line-3"
           stroke="#979797"
           stroke-linecap="square" />
      </g>
    </g>
  </g>
  <metadata
     id="metadata5">
    <rdf:RDF>
      <cc:Work
         rdf:about="">
        <dc:title>E0DF8195-BB19-4516-9267-2490CC9B6BF9</dc:title>
      </cc:Work>
    </rdf:RDF>
  </metadata>
</svg>
