<?xml version="1.0" encoding="UTF-8" standalone="no"?>
<!-- Created with Inkscape (http://www.inkscape.org/) -->

<svg
   width="59.844002mm"
   height="7.8590002mm"
   viewBox="-2 -2 59.844002 7.8590002"
   version="1.1"
   id="svg1"
   sodipodi:docname="Unnamed document 1"
   xmlns:inkscape="http://www.inkscape.org/namespaces/inkscape"
   xmlns:sodipodi="http://sodipodi.sourceforge.net/DTD/sodipodi-0.dtd"
   xmlns="http://www.w3.org/2000/svg"
   xmlns:svg="http://www.w3.org/2000/svg">
  <sodipodi:namedview
     id="namedview1"
     pagecolor="#ffffff"
     bordercolor="#000000"
     borderopacity="0.25"
     inkscape:showpageshadow="2"
     inkscape:pageopacity="0.0"
     inkscape:pagecheckerboard="0"
     inkscape:deskcolor="#d1d1d1"
     inkscape:document-units="mm" />
  <defs
     id="defs1" />
  <g
     inkscape:label="Layer 1"
     inkscape:groupmode="layer"
     id="layer1"
     transform="translate(-21.48039,-32.143321)">
    <path
       d="m 23.569853,35.150637 0.394136,0.286154 q -0.156575,0.264557 -0.469724,0.43193 -0.31315,0.161974 -0.658694,0.161974 -0.583106,0 -0.971843,-0.377939 -0.383338,-0.377939 -0.383338,-0.944848 0,-0.566909 0.377939,-0.944848 0.377939,-0.377939 0.944847,-0.377939 0.323948,0 0.610102,0.151176 0.286154,0.145776 0.469724,0.399536 l -0.377939,0.318548 q -0.275355,-0.383338 -0.701887,-0.383338 -0.345544,0 -0.577707,0.237562 -0.232162,0.237561 -0.232162,0.599303 0,0.37254 0.237562,0.604703 0.237561,0.232162 0.604702,0.232162 0.43733,0 0.734282,-0.394136 z m 1.144609,0.502119 q -0.37254,-0.377939 -0.37254,-0.944848 0,-0.566909 0.37254,-0.944848 0.377939,-0.377939 0.939448,-0.377939 0.56151,0 0.93405,0.377939 0.377939,0.377939 0.377939,0.944848 0,0.566909 -0.377939,0.944848 -0.37254,0.377939 -0.93405,0.377939 -0.561509,0 -0.939448,-0.377939 z m 0.367141,-1.538752 q -0.226764,0.242961 -0.226764,0.593904 0,0.350944 0.226764,0.593904 0.226763,0.242961 0.572307,0.242961 0.345545,0 0.572308,-0.242961 0.226763,-0.24296 0.226763,-0.593904 0,-0.350943 -0.226763,-0.593904 -0.226763,-0.242961 -0.572308,-0.242961 -0.345544,0 -0.572307,0.242961 z m 3.082894,-0.674891 v 0.24296 q 0.30775,-0.296952 0.761277,-0.296952 0.572308,0 0.923251,0.448128 0.24836,0.31315 0.24836,0.901655 v 1.2418 h -0.512917 v -1.268796 q 0,-0.399535 -0.151176,-0.588505 -0.194368,-0.24836 -0.523715,-0.24836 -0.431931,0 -0.728883,0.361742 v 1.743919 h -0.512917 v -2.537591 z m 2.553781,2.240639 0.264557,-0.37794 q 0.361742,0.280755 0.750479,0.280755 0.178172,0 0.307751,-0.08639 0.134978,-0.09179 0.134978,-0.232162 0,-0.08099 -0.04319,-0.140378 -0.04319,-0.06479 -0.134978,-0.102583 -0.08639,-0.04319 -0.172773,-0.06479 -0.08099,-0.027 -0.221364,-0.05939 -0.134978,-0.03779 -0.221364,-0.06479 -0.583106,-0.194369 -0.583106,-0.653295 0,-0.383338 0.280755,-0.588505 0.280754,-0.205167 0.658693,-0.205167 0.49672,0 0.842265,0.280755 l -0.264558,0.367141 q -0.264557,-0.199768 -0.545312,-0.199768 -0.194368,0 -0.329347,0.08639 -0.129579,0.08639 -0.129579,0.232163 0,0.118781 0.107983,0.178171 0.113381,0.05939 0.345544,0.118781 0.18357,0.04859 0.318549,0.102583 0.134978,0.04859 0.286154,0.140378 0.151175,0.09179 0.232162,0.237561 0.08639,0.140378 0.08639,0.323948 0,0.345545 -0.280754,0.56151 -0.275356,0.215965 -0.664093,0.215965 -0.593905,0 -1.025835,-0.350943 z m 4.934804,-0.863861 h -1.954485 q 0.0216,0.323948 0.25376,0.545312 0.237561,0.221364 0.566908,0.221364 0.415733,0 0.728883,-0.345544 l 0.334746,0.318549 q -0.156575,0.205166 -0.431931,0.340145 -0.275355,0.134978 -0.637097,0.134978 -0.55611,0 -0.934049,-0.377939 -0.377939,-0.377939 -0.377939,-0.944848 0,-0.572308 0.345544,-0.944848 0.350943,-0.377939 0.890856,-0.377939 0.529115,0 0.874659,0.377939 0.345545,0.377939 0.345545,0.944848 0,0.05939 -0.0054,0.107983 z m -1.198606,-0.982642 q -0.24836,0 -0.448128,0.156575 -0.199768,0.151175 -0.264558,0.394136 h 1.382178 q -0.05399,-0.237561 -0.24836,-0.394136 -0.18897,-0.156575 -0.421132,-0.156575 z m 1.905882,2.143455 v -2.537591 h 0.512917 v 2.537591 z m 0.0162,-3.201684 q -0.09718,-0.09718 -0.09718,-0.237562 0,-0.140377 0.09718,-0.237562 0.09718,-0.102583 0.237562,-0.102583 0.140378,0 0.237562,0.102583 0.102583,0.09719 0.102583,0.237562 0,0.140377 -0.102583,0.237562 -0.09718,0.09718 -0.237562,0.09718 -0.140377,0 -0.237562,-0.09718 z m 1.41457,3.201684 v -3.833383 h 0.512917 v 3.833383 z m 4.162725,-0.917852 v -0.890857 q -0.221364,-0.242961 -0.55611,-0.242961 -0.264558,0 -0.458926,0.183571 -0.194369,0.18357 -0.194369,0.518316 0,0.340145 0.194369,0.523716 0.199767,0.178171 0.469724,0.178171 0.275356,0 0.545312,-0.269956 z m 0.658694,1.11222 0.253759,0.377939 q -0.588505,0.453527 -1.36598,0.453527 -0.977242,0 -1.668331,-0.696487 -0.691089,-0.696488 -0.691089,-1.67913 0,-0.982641 0.691089,-1.679129 0.691089,-0.696488 1.668331,-0.696488 0.631698,0 1.150015,0.269957 0.518316,0.264557 0.826067,0.766676 0.30775,0.49672 0.30775,1.123019 0,0.588505 -0.269956,0.982642 -0.264558,0.394136 -0.766677,0.394136 -0.448128,0 -0.669492,-0.318549 -0.253759,0.318549 -0.74508,0.318549 -0.426531,0 -0.750479,-0.313149 -0.323948,-0.31315 -0.323948,-0.847664 0,-0.534514 0.323948,-0.847663 0.329347,-0.31315 0.766676,-0.31315 0.37794,0 0.631699,0.237562 V 33.5201 h 0.458926 v 1.311988 q 0,0.237562 0.05399,0.334746 0.09718,0.161974 0.291553,0.161974 0.24836,0 0.383338,-0.24836 0.140378,-0.253759 0.140378,-0.68029 0,-0.734282 -0.518317,-1.209405 -0.512917,-0.480523 -1.290392,-0.480523 -0.777475,0 -1.328186,0.56151 -0.545312,0.561509 -0.545312,1.355181 0,0.793672 0.545312,1.355182 0.550711,0.561509 1.328186,0.561509 0.610102,0 1.112221,-0.37254 z m 2.165041,-0.518316 q -0.37254,-0.377939 -0.37254,-0.944848 0,-0.566909 0.37254,-0.944848 0.377939,-0.377939 0.939449,-0.377939 0.561509,0 0.934049,0.377939 0.37794,0.377939 0.37794,0.944848 0,0.566909 -0.37794,0.944848 -0.37254,0.377939 -0.934049,0.377939 -0.56151,0 -0.939449,-0.377939 z m 0.367141,-1.538752 q -0.226763,0.242961 -0.226763,0.593904 0,0.350944 0.226763,0.593904 0.226764,0.242961 0.572308,0.242961 0.345544,0 0.572308,-0.242961 0.226763,-0.24296 0.226763,-0.593904 0,-0.350943 -0.226763,-0.593904 -0.226764,-0.242961 -0.572308,-0.242961 -0.345544,0 -0.572308,0.242961 z m 4.459673,1.036633 0.394136,0.286154 q -0.156575,0.264557 -0.469724,0.43193 -0.31315,0.161974 -0.658694,0.161974 -0.583106,0 -0.971843,-0.377939 -0.383339,-0.377939 -0.383339,-0.944848 0,-0.566909 0.377939,-0.944848 0.37794,-0.377939 0.944848,-0.377939 0.323948,0 0.610102,0.151176 0.286154,0.145776 0.469724,0.399536 l -0.377939,0.318548 q -0.275356,-0.383338 -0.701887,-0.383338 -0.345544,0 -0.577707,0.237562 -0.232162,0.237561 -0.232162,0.599303 0,0.37254 0.237561,0.604703 0.237562,0.232162 0.604703,0.232162 0.43733,0 0.734282,-0.394136 z m 2.451198,0.361741 0.102583,0.464326 q -0.161973,0.05399 -0.399535,0.05399 -0.453527,0 -0.718084,-0.296952 -0.205167,-0.226764 -0.205167,-0.674891 v -1.160813 h -0.647896 v -0.458926 h 0.647896 v -0.701887 h 0.512917 v 0.701887 h 0.809869 v 0.458926 h -0.809869 v 1.187808 q 0,0.237562 0.07559,0.323948 0.107982,0.134978 0.350943,0.134978 0.167373,0 0.280755,-0.0324 z m 0.880041,0.140378 q -0.37254,-0.377939 -0.37254,-0.944848 0,-0.566909 0.37254,-0.944848 0.377939,-0.377939 0.939448,-0.377939 0.56151,0 0.93405,0.377939 0.377939,0.377939 0.377939,0.944848 0,0.566909 -0.377939,0.944848 -0.37254,0.377939 -0.93405,0.377939 -0.561509,0 -0.939448,-0.377939 z m 0.367141,-1.538752 q -0.226764,0.242961 -0.226764,0.593904 0,0.350944 0.226764,0.593904 0.226763,0.242961 0.572307,0.242961 0.345545,0 0.572308,-0.242961 0.226764,-0.24296 0.226764,-0.593904 0,-0.350943 -0.226764,-0.593904 -0.226763,-0.242961 -0.572308,-0.242961 -0.345544,0 -0.572307,0.242961 z m 3.082892,1.630537 v 0.232163 h -0.49672 v -3.833383 h 0.512917 v 1.517156 q 0.329347,-0.275356 0.777475,-0.275356 0.345544,0 0.6209,0.161974 0.296952,0.172772 0.475124,0.480523 0.178171,0.30775 0.178171,0.68029 0,0.37254 -0.178171,0.68029 -0.172773,0.302352 -0.469725,0.475124 -0.280755,0.167373 -0.637097,0.167373 -0.464325,0 -0.782874,-0.286154 z m 0.0162,-1.511756 v 0.950247 q 0.269957,0.361741 0.696488,0.361741 0.361742,0 0.599304,-0.242961 0.24296,-0.24836 0.24296,-0.593904 0,-0.345544 -0.232162,-0.588505 -0.226764,-0.24836 -0.583106,-0.24836 -0.448128,0 -0.723484,0.361742 z m 4.21132,-0.831466 -0.05939,0.491321 q -0.08099,-0.0216 -0.199768,-0.0216 -0.194369,0 -0.388738,0.12418 -0.188969,0.118781 -0.296952,0.302351 v 1.67913 H 59.155429 V 33.43911 h 0.49672 v 0.291553 q 0.102583,-0.145777 0.302351,-0.242961 0.199768,-0.102584 0.458926,-0.102584 0.107983,0 0.199768,0.0162 z m 2.748147,1.414572 H 61.40685 q 0.0216,0.323948 0.253759,0.545312 0.237562,0.221364 0.566909,0.221364 0.415733,0 0.728883,-0.345544 l 0.334746,0.318549 q -0.156575,0.205166 -0.431931,0.340145 -0.275355,0.134978 -0.637097,0.134978 -0.55611,0 -0.934049,-0.377939 -0.37794,-0.377939 -0.37794,-0.944848 0,-0.572308 0.345545,-0.944848 0.350943,-0.377939 0.890856,-0.377939 0.529115,0 0.874659,0.377939 0.345545,0.377939 0.345545,0.944848 0,0.05939 -0.0054,0.107983 z m -1.198606,-0.982642 q -0.24836,0 -0.448128,0.156575 -0.199768,0.151175 -0.264558,0.394136 h 1.382178 q -0.05399,-0.237561 -0.24836,-0.394136 -0.18897,-0.156575 -0.421132,-0.156575 z m 2.148844,2.089463 q -0.107983,-0.113381 -0.107983,-0.269956 0,-0.156575 0.107983,-0.264558 0.113382,-0.113381 0.269956,-0.113381 0.156575,0 0.264558,0.113381 0.113381,0.107983 0.113381,0.264558 0,0.156575 -0.113381,0.269956 -0.107983,0.107983 -0.264558,0.107983 -0.156574,0 -0.269956,-0.107983 z m 3.055896,-0.410334 0.102584,0.464326 q -0.161974,0.05399 -0.399536,0.05399 -0.453527,0 -0.718084,-0.296952 -0.205167,-0.226764 -0.205167,-0.674891 v -1.160813 h -0.647895 v -0.458926 h 0.647895 v -0.701887 h 0.512917 v 0.701887 h 0.80987 v 0.458926 h -0.80987 v 1.187808 q 0,0.237562 0.07559,0.323948 0.107983,0.134978 0.350944,0.134978 0.167373,0 0.280754,-0.0324 z m 2.958706,-0.696487 H 68.37169 q 0.0216,0.323948 0.253759,0.545312 0.237562,0.221364 0.566909,0.221364 0.415733,0 0.728883,-0.345544 l 0.334746,0.318549 q -0.156575,0.205166 -0.431931,0.340145 -0.275355,0.134978 -0.637097,0.134978 -0.55611,0 -0.93405,-0.377939 -0.377939,-0.377939 -0.377939,-0.944848 0,-0.572308 0.345545,-0.944848 0.350943,-0.377939 0.890856,-0.377939 0.529115,0 0.874659,0.377939 0.345544,0.377939 0.345544,0.944848 0,0.05939 -0.0054,0.107983 z m -1.198607,-0.982642 q -0.248359,0 -0.448127,0.156575 -0.199768,0.151175 -0.264558,0.394136 h 1.382178 q -0.05399,-0.237561 -0.24836,-0.394136 -0.18897,-0.156575 -0.421133,-0.156575 z m 3.779382,1.317388 0.394136,0.286154 q -0.156574,0.264557 -0.469724,0.43193 -0.313149,0.161974 -0.658694,0.161974 -0.583106,0 -0.971843,-0.377939 -0.383338,-0.377939 -0.383338,-0.944848 0,-0.566909 0.377939,-0.944848 0.377939,-0.377939 0.944847,-0.377939 0.323948,0 0.610102,0.151176 0.286154,0.145776 0.469724,0.399536 l -0.377939,0.318548 q -0.275355,-0.383338 -0.701887,-0.383338 -0.345544,0 -0.577706,0.237562 -0.232163,0.237561 -0.232163,0.599303 0,0.37254 0.237562,0.604703 0.237561,0.232162 0.604702,0.232162 0.43733,0 0.734282,-0.394136 z m 1.50095,-3.007316 v 1.517156 q 0.323947,-0.275356 0.745079,-0.275356 0.572308,0 0.923252,0.448128 0.24836,0.31315 0.24836,0.901655 v 1.2418 h -0.512918 v -1.268796 q 0,-0.399535 -0.151175,-0.588505 -0.194369,-0.24836 -0.523716,-0.24836 -0.43193,0 -0.728882,0.361742 v 1.743919 h -0.512918 v -3.833383 z"
       id="text1"
       style="font-size:5.39913px;font-family:Brown;-inkscape-font-specification:Brown;stroke-width:0.449927"
       aria-label="conseil@octobre.tech" />
  </g>
</svg>
